<svg width="74" height="72" viewBox="0 0 74 72" fill="none" xmlns="http://www.w3.org/2000/svg">
<g clip-path="url(#clip0_1655_49)">
<path d="M13.3637 33.6691C10.7879 33.6691 8.56011 33.1339 6.68024 32.0636C4.83509 30.9617 3.47613 29.4192 2.60335 27.4358C1.735 25.421 1.49328 23.0442 1.8782 20.3054L4.07086 4.70378C4.43596 2.10596 6.85858 0 9.48193 0V0C12.1053 0 13.936 2.10595 13.5709 4.70377L11.3782 20.3054C11.2455 21.2498 11.282 22.0683 11.4876 22.7609C11.7236 23.4535 12.1008 24.0044 12.619 24.4137C13.1417 24.7914 13.7969 24.9803 14.5848 24.9803C15.3727 24.9803 16.0811 24.7914 16.7099 24.4137C17.3432 24.0044 17.86 23.4535 18.2604 22.7609C18.691 22.0683 18.9727 21.2498 19.1055 20.3054L21.2918 4.74879C21.6604 2.12611 24.1062 0 26.7547 0V0C29.4031 0 31.2513 2.1261 30.8827 4.74879L28.6964 20.3054C28.5637 21.2498 28.6001 22.0683 28.8058 22.7609C29.0115 23.4535 29.3735 24.0044 29.8917 24.4137C30.4447 24.7914 31.1151 24.9803 31.903 24.9803C32.6909 24.9803 33.3992 24.7914 34.0281 24.4137C34.6614 24.0044 35.1782 23.4535 35.5786 22.7609C36.0092 22.0683 36.2909 21.2498 36.4237 20.3054L38.6195 4.68127C38.9828 2.09588 41.3939 0 44.0047 0V0C46.6155 0 48.4374 2.09587 48.074 4.68127L45.8782 20.3054C45.4933 23.0442 44.5835 25.421 43.1488 27.4358C41.7489 29.4192 39.9715 30.9617 37.8166 32.0636C35.6662 33.1339 33.2879 33.6691 30.6819 33.6691C29.5 33.6691 28.3965 33.5432 27.3713 33.2913C26.3764 33.0395 25.4576 32.6775 24.6149 32.2052V32.2052C23.2469 31.4101 21.3659 31.3709 19.7838 32.1885C19.7729 32.1941 19.7621 32.1997 19.7512 32.2052C18.8061 32.6775 17.8007 33.0395 16.735 33.2913C15.6693 33.5432 14.5455 33.6691 13.3637 33.6691Z" fill="white"/>
<path d="M52.1117 33.273C49.8716 33.273 48.3084 31.4747 48.6202 29.2565L48.8206 27.8305C49.0217 26.3998 50.3559 25.24 51.8007 25.24V25.24C53.2455 25.24 54.5797 24.0801 54.7808 22.6494L56.4709 10.6236C56.672 9.19288 55.6637 8.03306 54.219 8.03306V8.03306C52.7742 8.03306 51.766 6.87323 51.967 5.44251L52.1674 4.01653C52.4792 1.79826 54.5479 0 56.7879 0H69.5559C71.796 0 73.3592 1.79826 73.0474 4.01653L72.8504 5.41875C72.6475 6.86259 71.301 8.03306 69.843 8.03306V8.03306C68.3849 8.03306 67.0385 9.20352 66.8355 10.6474L65.1521 22.6256C64.9492 24.0695 65.9667 25.24 67.4247 25.24V25.24C68.8827 25.24 69.9002 26.4104 69.6973 27.8543L69.5002 29.2565C69.1884 31.4747 67.1198 33.273 64.8797 33.273H52.1117Z" fill="white"/>
<path d="M5.67357 71.6691C3.40683 71.6691 1.82502 69.8494 2.14048 67.6048V67.6048C2.45595 65.3601 4.54924 63.5404 6.81598 63.5404H19.9732C20.6319 63.5404 21.1901 63.4282 21.6479 63.2037C22.1444 62.9793 22.5337 62.6907 22.8157 62.338C23.141 61.9532 23.333 61.5523 23.3916 61.1355C23.4547 60.6866 23.3754 60.2857 23.1537 59.933C22.9753 59.5482 22.6694 59.2436 22.236 59.0191C21.8413 58.7947 21.3147 58.6825 20.656 58.6825H15.4252C12.9067 58.6825 10.677 58.2816 8.73608 57.48C6.79518 56.6783 5.3107 55.524 4.28262 54.0169C3.29779 52.4777 2.95635 50.6339 3.25829 48.4855C3.55572 46.3692 4.39605 44.5254 5.77926 42.9542C7.16247 41.3829 8.90295 40.1644 11.0007 39.2987C13.0984 38.4329 15.3485 38 17.7507 38H32.1866C34.4534 38 36.0352 39.8197 35.7197 42.0643V42.0643C35.4042 44.309 33.3109 46.1287 31.0442 46.1287H18.2938C17.7513 46.1287 17.2535 46.2249 16.8002 46.4173C16.3857 46.6097 16.0397 46.8662 15.7622 47.1869C15.5234 47.5075 15.3769 47.8602 15.3229 48.245C15.2688 48.6298 15.3161 48.9825 15.4647 49.3032C15.6522 49.6239 15.9238 49.8964 16.2797 50.1209C16.6789 50.3133 17.1497 50.4095 17.6922 50.4095H23.3298C26.0808 50.4095 28.4222 50.8424 30.3541 51.7081C32.2905 52.5419 33.7146 53.7123 34.6264 55.2193C35.5383 56.7264 35.85 58.5061 35.5616 60.5583C35.2326 62.8991 34.3504 64.9032 32.9149 66.5707C31.5181 68.2381 29.7709 69.5047 27.6732 70.3705C25.5754 71.2362 23.3254 71.6691 20.9231 71.6691H5.67357Z" fill="white"/>
<path d="M50.6686 71.6691C48.3334 71.6691 46.2514 71.2523 44.4225 70.4186C42.6326 69.5848 41.2747 68.4465 40.3488 67.0035C39.4274 65.5285 39.1019 63.829 39.3723 61.9051C39.5841 60.398 40.1911 58.9871 41.1931 57.6724C41.3108 57.5208 41.4321 57.372 41.5569 57.2261C42.9659 55.5785 43.3735 52.9678 42.5009 51.2753V51.2753C41.8937 50.0568 41.6803 48.8062 41.8605 47.5235C42.1264 45.6317 42.9034 43.9803 44.1914 42.5694C45.5229 41.1264 47.1791 40.0041 49.1599 39.2025C51.1797 38.4008 53.3182 38 55.5756 38H69.6276C71.8944 38 73.4762 39.8197 73.1607 42.0643V42.0643C72.8453 44.309 70.752 46.1287 68.4852 46.1287H57.2355C56.6127 46.1287 56.0349 46.2249 55.5019 46.4173C54.9734 46.5776 54.5287 46.8341 54.1677 47.1869C53.8502 47.5075 53.6554 47.9244 53.5833 48.4374C53.5157 48.9184 53.5934 49.3353 53.8162 49.688C54.0825 50.0087 54.4551 50.2652 54.9341 50.4576C55.4175 50.6179 55.9706 50.6981 56.5933 50.6981H65.824C68.0773 50.6981 69.6498 52.507 69.3362 54.7384V54.7384C69.0226 56.9698 66.9417 58.7787 64.6884 58.7787H55.516C54.8544 58.7787 54.257 58.8749 53.724 59.0672C53.191 59.2596 52.7441 59.5322 52.3831 59.8849C52.0611 60.2376 51.8641 60.6705 51.792 61.1836C51.7244 61.6646 51.802 62.0814 52.0249 62.4342C52.2867 62.7869 52.657 63.0594 53.1359 63.2518C53.6194 63.4122 54.1919 63.4923 54.8536 63.4923H66.0206C68.3008 63.4923 69.892 65.3228 69.5746 67.5807V67.5807C69.2573 69.8387 67.1516 71.6691 64.8715 71.6691H50.6686Z" fill="white"/>
</g>
<defs>
<clipPath id="clip0_1655_49">
<rect width="74" height="72" fill="white"/>
</clipPath>
</defs>
</svg>
