<svg width="161" height="39" viewBox="0 0 161 39" fill="none" xmlns="http://www.w3.org/2000/svg">
<g clip-path="url(#clip0_1655_56)">
<g clip-path="url(#clip1_1655_56)">
<path d="M6.68184 16.8346C5.39396 16.8346 4.28006 16.567 3.34012 16.0318C2.41755 15.4809 1.73806 14.7096 1.30167 13.7179C0.867498 12.7105 0.74664 11.5221 0.939101 10.1527L2.03543 2.35189C2.21798 1.05298 3.42929 -4.85275e-09 4.74097 -1.08389e-08V-1.08389e-08C6.05264 -1.68251e-08 6.96798 1.05298 6.78543 2.35189L5.6891 10.1527C5.62273 10.6249 5.64098 11.0342 5.74382 11.3804C5.86182 11.7267 6.05038 12.0022 6.3095 12.2068C6.57083 12.3957 6.89847 12.4902 7.29241 12.4902C7.68635 12.4902 8.04053 12.3957 8.35495 12.2068C8.67159 12.0022 8.93 11.7267 9.13019 11.3804C9.34552 11.0342 9.48637 10.6249 9.55274 10.1527L10.6459 2.3744C10.8302 1.06306 12.0531 -4.42097e-08 13.3773 -5.02532e-08V-5.02532e-08C14.7016 -5.62966e-08 15.6257 1.06305 15.4414 2.37439L14.3482 10.1527C14.2818 10.6249 14.3001 11.0342 14.4029 11.3804C14.5058 11.7267 14.6867 12.0022 14.9459 12.2068C15.2223 12.3957 15.5576 12.4902 15.9515 12.4902C16.3454 12.4902 16.6996 12.3957 17.014 12.2068C17.3307 12.0022 17.5891 11.7267 17.7893 11.3804C18.0046 11.0342 18.1455 10.6249 18.2118 10.1527L19.3097 2.34064C19.4914 1.04794 20.6969 -8.3658e-08 22.0023 -8.96155e-08V-8.96155e-08C23.3077 -9.55731e-08 24.2187 1.04794 24.037 2.34063L22.9391 10.1527C22.7466 11.5221 22.2917 12.7105 21.5744 13.7179C20.8744 14.7096 19.9857 15.4809 18.9083 16.0318C17.8331 16.567 16.644 16.8346 15.3409 16.8346C14.75 16.8346 14.1983 16.7716 13.6857 16.6457C13.1882 16.5197 12.7288 16.3387 12.3074 16.1026V16.1026C11.6235 15.7051 10.6829 15.6855 9.89189 16.0942C9.88647 16.097 9.88105 16.0998 9.87562 16.1026C9.40304 16.3387 8.90033 16.5197 8.36748 16.6457C7.83463 16.7716 7.27275 16.8346 6.68184 16.8346Z" fill="white"/>
<path d="M26.0559 16.6365C24.9358 16.6365 24.1542 15.7374 24.3101 14.6282L24.4103 13.9152C24.5108 13.1999 25.178 12.62 25.9003 12.62V12.62C26.6227 12.62 27.2898 12.0401 27.3904 11.3247L28.2354 5.3118C28.336 4.59644 27.8319 4.01653 27.1095 4.01653V4.01653C26.3871 4.01653 25.883 3.43662 25.9835 2.72126L26.0837 2.00826C26.2396 0.899131 27.2739 -4.14374e-09 28.394 -9.25529e-09L34.778 -3.83903e-08C35.898 -4.35019e-08 36.6796 0.899131 36.5237 2.00826L36.4252 2.70937C36.3237 3.4313 35.6505 4.01653 34.9215 4.01653V4.01653C34.1925 4.01653 33.5192 4.60176 33.4178 5.32368L32.5761 11.3128C32.4746 12.0347 32.9833 12.62 33.7123 12.62V12.62C34.4414 12.62 34.9501 13.2052 34.8486 13.9271L34.7501 14.6282C34.5942 15.7374 33.5599 16.6365 32.4399 16.6365L26.0559 16.6365Z" fill="white"/>
<path d="M2.83678 35.8346C1.70342 35.8346 0.912508 34.9247 1.07024 33.8024V33.8024C1.22798 32.68 2.27462 31.7702 3.40799 31.7702L9.98662 31.7702C10.316 31.7702 10.5951 31.7141 10.8239 31.6019C11.0722 31.4896 11.2668 31.3453 11.4079 31.169C11.5705 30.9766 11.6665 30.7762 11.6958 30.5677C11.7273 30.3433 11.6877 30.1429 11.5769 29.9665C11.4877 29.7741 11.3347 29.6218 11.118 29.5096C10.9207 29.3973 10.6573 29.3412 10.328 29.3412L7.7126 29.3412C6.45334 29.3412 5.33849 29.1408 4.36804 28.74C3.39759 28.3392 2.65535 27.762 2.14131 27.0084C1.6489 26.2389 1.47817 25.317 1.62914 24.2428C1.77786 23.1846 2.19802 22.2627 2.88963 21.4771C3.58124 20.6915 4.45148 20.0822 5.50035 19.6493C6.54922 19.2164 7.67423 19 8.87537 19L16.0933 19C17.2267 19 18.0176 19.9098 17.8599 21.0322V21.0322C17.7021 22.1545 16.6555 23.0643 15.5221 23.0643L9.1469 23.0643C8.87567 23.0643 8.62675 23.1124 8.40012 23.2086C8.19287 23.3048 8.01986 23.4331 7.88109 23.5934C7.76169 23.7538 7.68847 23.9301 7.66143 24.1225C7.63439 24.3149 7.65804 24.4913 7.73237 24.6516C7.82608 24.8119 7.96191 24.9482 8.13987 25.0604C8.33945 25.1566 8.57486 25.2047 8.84608 25.2047L11.6649 25.2047C13.0404 25.2047 14.2111 25.4212 15.177 25.8541C16.1452 26.2709 16.8573 26.8561 17.3132 27.6097C17.7691 28.3632 17.925 29.253 17.7808 30.2792C17.6163 31.4496 17.1752 32.4516 16.4574 33.2853C15.7591 34.119 14.8855 34.7523 13.8366 35.1852C12.7877 35.6181 11.6627 35.8346 10.4616 35.8346L2.83678 35.8346Z" fill="white"/>
<path d="M25.3343 35.8346C24.1667 35.8346 23.1257 35.6261 22.2113 35.2093C21.3163 34.7924 20.6373 34.2233 20.1744 33.5018C19.7137 32.7643 19.551 31.9145 19.6861 30.9525C19.7921 30.199 20.0955 29.4935 20.5966 28.8362C20.6554 28.7604 20.716 28.686 20.7784 28.613C21.4829 27.7893 21.6867 26.4839 21.2504 25.6376V25.6376C20.9469 25.0284 20.8401 24.4031 20.9303 23.7618C21.0632 22.8158 21.4517 21.9901 22.0957 21.2847C22.7615 20.5632 23.5895 20.0021 24.58 19.6012C25.5898 19.2004 26.6591 19 27.7878 19L34.8138 19C35.9472 19 36.7381 19.9098 36.5804 21.0322V21.0322C36.4226 22.1545 35.376 23.0643 34.2426 23.0643L28.6177 23.0643C28.3064 23.0643 28.0174 23.1124 27.7509 23.2086C27.4867 23.2888 27.2643 23.4171 27.0839 23.5934C26.9251 23.7538 26.8277 23.9622 26.7917 24.2187C26.7579 24.4592 26.7967 24.6676 26.9081 24.844C27.0413 25.0043 27.2276 25.1326 27.467 25.2288C27.7087 25.309 27.9853 25.349 28.2966 25.349L32.912 25.349C34.0387 25.349 34.8249 26.2535 34.6681 27.3692V27.3692C34.5113 28.4849 33.4708 29.3893 32.3442 29.3893L27.758 29.3893C27.4272 29.3893 27.1285 29.4374 26.862 29.5336C26.5955 29.6298 26.372 29.7661 26.1916 29.9425C26.0306 30.1188 25.932 30.3353 25.896 30.5918C25.8622 30.8323 25.901 31.0407 26.0124 31.2171C26.1433 31.3934 26.3285 31.5297 26.568 31.6259C26.8097 31.7061 27.096 31.7462 27.4268 31.7462L33.0103 31.7462C34.1504 31.7462 34.946 32.6614 34.7873 33.7904V33.7904C34.6286 34.9193 33.5758 35.8346 32.4357 35.8346L25.3343 35.8346Z" fill="white"/>
</g>
<path d="M43.8696 29.6546C41.9095 29.6546 40.5417 28.0811 40.8145 26.1401V26.1401C41.0873 24.1991 42.8974 22.6256 44.8574 22.6256H53.7824C54.2584 22.6256 54.6641 22.5286 54.9993 22.3345C55.3626 22.1404 55.6497 21.8909 55.8606 21.5859C56.1033 21.2531 56.25 20.9065 56.3007 20.5461C56.3552 20.1579 56.306 19.8113 56.1528 19.5063C56.0316 19.1736 55.8166 18.9102 55.5079 18.7161C55.2272 18.522 54.8488 18.4249 54.3728 18.4249H50.5928C48.7728 18.4249 47.1695 18.0783 45.7829 17.3851C44.3963 16.692 43.3466 15.6938 42.6338 14.3906C41.9528 13.0597 41.7429 11.4653 42.004 9.60758C42.2612 7.77757 42.9053 6.18324 43.9362 4.82459C44.9671 3.46594 46.2492 2.41229 47.7824 1.66365C49.3157 0.915008 50.9503 0.540687 52.6863 0.540687H62.5353C64.4953 0.540687 65.8631 2.11416 65.5903 4.05515V4.05515C65.3175 5.99613 63.5075 7.56961 61.5474 7.56961H52.9164C52.5244 7.56961 52.1627 7.65279 51.8313 7.81916C51.528 7.98552 51.2728 8.20734 51.0658 8.48462C50.8868 8.76189 50.774 9.0669 50.7272 9.39963C50.6805 9.73236 50.7076 10.0374 50.8086 10.3146C50.9377 10.5919 51.1285 10.8276 51.3813 11.0217C51.6659 11.1881 52.0042 11.2712 52.3962 11.2712H56.4702C58.4582 11.2712 60.1416 11.6456 61.5204 12.3942C62.903 13.1151 63.9088 14.1272 64.5377 15.4304C65.1665 16.7336 65.3562 18.2724 65.1068 20.047C64.8224 22.0711 64.1448 23.8041 63.0742 25.2459C62.0315 26.6877 60.7436 27.783 59.2104 28.5316C57.6772 29.2802 56.0426 29.6546 54.3066 29.6546H43.8696Z" fill="white"/>
<path d="M76.7602 38.0976C74.2667 38.0976 72.5266 36.0958 72.8736 33.6265L72.9438 33.1274C73.2908 30.6581 75.5936 28.6564 78.0871 28.6564V28.6564C80.5807 28.6564 82.3208 30.6581 81.9738 33.1274L81.9036 33.6265C81.5566 36.0958 79.2538 38.0976 76.7602 38.0976V38.0976ZM77.8498 30.1953C75.5258 30.1953 73.4365 29.8209 71.5817 29.0723C69.7549 28.3237 68.223 27.27 66.9859 25.9114C65.7808 24.525 64.9148 22.9168 64.388 21.0868C63.8612 19.2568 63.7497 17.2604 64.0537 15.0976C64.3576 12.9349 65.0302 10.9385 66.0714 9.10849C67.1165 7.25074 68.4345 5.64255 70.0255 4.2839C71.6444 2.92525 73.4725 1.87161 75.5097 1.12296C77.5749 0.374321 79.7695 0 82.0935 0C84.4175 0 86.4929 0.374321 88.3197 1.12296C90.1745 1.87161 91.7064 2.92525 92.9155 4.2839C94.1525 5.64255 95.0325 7.25074 95.5554 9.10849C96.0822 10.9385 96.1936 12.9349 95.8897 15.0976C95.5857 17.2604 94.9132 19.2568 93.872 21.0868C92.8308 22.9168 91.4988 24.525 89.8759 25.9114C88.285 27.27 86.4569 28.3237 84.3917 29.0723C82.3545 29.8209 80.1738 30.1953 77.8498 30.1953ZM78.8669 22.9584C79.9029 22.9584 80.8682 22.7643 81.7628 22.3761C82.6612 21.9602 83.4551 21.3918 84.1444 20.6709C84.8337 19.9499 85.3986 19.1181 85.8391 18.1754C86.2835 17.2049 86.5817 16.179 86.7337 15.0976C86.8857 14.0163 86.8739 13.0042 86.6984 12.0615C86.5268 11.091 86.1976 10.2453 85.7109 9.5244C85.2243 8.80348 84.5882 8.24893 83.8028 7.86075C83.0212 7.44484 82.1124 7.23688 81.0764 7.23688C80.0404 7.23688 79.0732 7.44484 78.1748 7.86075C77.2802 8.24893 76.4883 8.80348 75.7989 9.5244C75.1096 10.2453 74.5428 11.091 74.0984 12.0615C73.6579 13.0042 73.3617 14.0163 73.2097 15.0976C73.0577 16.179 73.0675 17.2049 73.2391 18.1754C73.4146 19.1181 73.7457 19.9499 74.2324 20.6709C74.7191 21.3918 75.3532 21.9602 76.1348 22.3761C76.9202 22.7643 77.8309 22.9584 78.8669 22.9584Z" fill="white"/>
<path d="M104.078 30.1537C101.894 30.1537 99.9579 29.6823 98.2704 28.7396C96.6109 27.7968 95.354 26.4798 94.4997 24.7884C93.6773 23.0693 93.422 21.1006 93.7337 18.8824C94.0455 16.6642 94.8522 14.7094 96.1539 13.0181C97.4836 11.3267 99.1247 10.0096 101.077 9.0669C103.034 8.09643 105.104 7.6112 107.288 7.6112C109.472 7.6112 111.392 8.09643 113.047 9.0669C114.707 10.0096 115.95 11.3267 116.776 13.0181C117.602 14.7094 117.859 16.6642 117.548 18.8824C117.236 21.1006 116.427 23.0693 115.122 24.7884C113.82 26.4798 112.193 27.7968 110.24 28.7396C108.316 29.6823 106.262 30.1537 104.078 30.1537ZM105.083 23C105.839 23 106.536 22.8197 107.175 22.4593C107.814 22.0988 108.33 21.6136 108.724 21.0036C109.149 20.3659 109.419 19.6449 109.532 18.8408C109.645 18.0367 109.576 17.3297 109.326 16.7197C109.103 16.1097 108.724 15.6245 108.186 15.264C107.649 14.9035 107.002 14.7233 106.246 14.7233C105.49 14.7233 104.793 14.9035 104.154 15.264C103.516 15.6245 102.985 16.1097 102.564 16.7197C102.142 17.3297 101.875 18.0367 101.762 18.8408C101.649 19.6449 101.715 20.3659 101.962 21.0036C102.212 21.6136 102.606 22.0988 103.143 22.4593C103.68 22.8197 104.327 23 105.083 23Z" fill="white"/>
<path d="M126.492 30.1537C124.308 30.1537 122.372 29.6823 120.684 28.7396C119.025 27.7968 117.768 26.4798 116.914 24.7884C116.091 23.0693 115.836 21.1006 116.148 18.8824C116.46 16.6642 117.266 14.7094 118.568 13.0181C119.898 11.3267 121.539 10.0096 123.491 9.0669C125.448 8.09643 127.518 7.6112 129.702 7.6112C131.886 7.6112 133.806 8.09643 135.461 9.0669C137.121 10.0096 138.364 11.3267 139.19 13.0181C140.016 14.7094 140.274 16.6642 139.962 18.8824C139.65 21.1006 138.841 23.0693 137.536 24.7884C136.234 26.4798 134.607 27.7968 132.654 28.7396C130.73 29.6823 128.676 30.1537 126.492 30.1537ZM127.497 23C128.253 23 128.95 22.8197 129.589 22.4593C130.228 22.0988 130.744 21.6136 131.138 21.0036C131.563 20.3659 131.833 19.6449 131.946 18.8408C132.059 18.0367 131.99 17.3297 131.74 16.7197C131.517 16.1097 131.138 15.6245 130.6 15.264C130.063 14.9035 129.416 14.7233 128.66 14.7233C127.904 14.7233 127.207 14.9035 126.568 15.264C125.93 15.6245 125.399 16.1097 124.978 16.7197C124.556 17.3297 124.289 18.0367 124.176 18.8408C124.063 19.6449 124.129 20.3659 124.376 21.0036C124.626 21.6136 125.02 22.0988 125.557 22.4593C126.094 22.8197 126.741 23 127.497 23Z" fill="white"/>
<path d="M147.338 29.6546C145.35 29.6546 143.672 29.2387 142.305 28.4068C140.938 27.575 139.944 26.4798 139.323 25.1211C138.706 23.7347 138.514 22.2097 138.748 20.5461L140.928 5.03254C141.277 2.55175 143.59 0.540687 146.096 0.540687V0.540687C148.601 0.540687 150.349 2.55176 150 5.03254L147.808 20.6293C147.734 21.1561 147.85 21.6275 148.156 22.0434C148.493 22.4316 148.942 22.6256 149.502 22.6256H153.723C155.683 22.6256 157.051 24.1991 156.778 26.1401V26.1401C156.505 28.0811 154.695 29.6546 152.735 29.6546H147.338Z" fill="white"/>
</g>
<defs>
<clipPath id="clip0_1655_56">
<rect width="161" height="39" fill="white"/>
</clipPath>
<clipPath id="clip1_1655_56">
<rect width="37" height="36" fill="white"/>
</clipPath>
</defs>
</svg>
