<svg width="135" height="32" viewBox="0 0 135 32" fill="none" xmlns="http://www.w3.org/2000/svg">
<g clip-path="url(#clip0_1684_556)">
<g clip-path="url(#clip1_1684_556)">
<path d="M5.48264 15.0439C4.42592 15.0439 3.51194 14.8244 2.74071 14.3852C1.98373 13.9332 1.4262 13.3004 1.06814 12.4867C0.711893 11.6601 0.612728 10.685 0.770644 9.56136L1.6702 3.16071C1.81998 2.09494 2.81388 1.23096 3.89012 1.23096V1.23096C4.96637 1.23096 5.71742 2.09494 5.56763 3.16071L4.66808 9.56136C4.61363 9.94882 4.62859 10.2846 4.71298 10.5688C4.8098 10.8529 4.96451 11.0789 5.17713 11.2468C5.39155 11.4018 5.66038 11.4793 5.98361 11.4793C6.30685 11.4793 6.59746 11.4018 6.85545 11.2468C7.11525 11.0789 7.32728 10.8529 7.49153 10.5688C7.66822 10.2846 7.78379 9.94882 7.83824 9.56136L8.7352 3.17918C8.88642 2.1032 9.88983 1.23096 10.9764 1.23096V1.23096C12.0629 1.23096 12.8212 2.1032 12.6699 3.17918L11.773 9.56136C11.7185 9.94882 11.7335 10.2846 11.8179 10.5688C11.9023 10.8529 12.0508 11.0789 12.2634 11.2468C12.4902 11.4018 12.7653 11.4793 13.0885 11.4793C13.4117 11.4793 13.7024 11.4018 13.9603 11.2468C14.2201 11.0789 14.4322 10.8529 14.5964 10.5688C14.7731 10.2846 14.8887 9.94882 14.9431 9.56136L15.844 3.15147C15.9931 2.0908 16.9822 1.23096 18.0533 1.23096V1.23096C19.1244 1.23096 19.8718 2.0908 19.7228 3.15148L18.8219 9.56136C18.664 10.685 18.2908 11.6601 17.7022 12.4867C17.1278 13.3004 16.3986 13.9332 15.5146 14.3852C14.6324 14.8244 13.6567 15.0439 12.5875 15.0439C12.1027 15.0439 11.65 14.9923 11.2294 14.8889C10.8212 14.7856 10.4442 14.6371 10.0985 14.4434V14.4434C9.5373 14.1172 8.76558 14.1011 8.11652 14.4365C8.11207 14.4388 8.10762 14.4411 8.10317 14.4434C7.71542 14.6371 7.30293 14.7856 6.86572 14.8889C6.42851 14.9923 5.96749 15.0439 5.48264 15.0439Z" fill="#0CAD4D"/>
<path d="M21.3793 14.8814C20.4603 14.8814 19.819 14.1437 19.9469 13.2336L20.0291 12.6486C20.1116 12.0616 20.659 11.5858 21.2517 11.5858V11.5858C21.8445 11.5858 22.3918 11.11 22.4743 10.523L23.1677 5.58936C23.2502 5.0024 22.8366 4.52657 22.2439 4.52657V4.52657C21.6511 4.52657 21.2375 4.05074 21.32 3.46378L21.4022 2.87876C21.5301 1.9687 22.3788 1.23096 23.2978 1.23096L28.5359 1.23096C29.4549 1.23096 30.0963 1.96871 29.9684 2.87876L29.8875 3.45403C29.8043 4.04638 29.2519 4.52657 28.6537 4.52657V4.52657C28.0555 4.52657 27.5031 5.00676 27.4199 5.59911L26.7292 10.5133C26.646 11.1056 27.0634 11.5858 27.6616 11.5858V11.5858C28.2598 11.5858 28.6772 12.066 28.5939 12.6583L28.5131 13.2336C28.3852 14.1437 27.5365 14.8814 26.6175 14.8814L21.3793 14.8814Z" fill="#0CAD4D"/>
<path d="M2.32772 30.6338C1.39778 30.6338 0.748825 29.8872 0.878248 28.9663V28.9663C1.00767 28.0455 1.86646 27.2989 2.7964 27.2989L8.19425 27.2989C8.46448 27.2989 8.69349 27.2529 8.88129 27.1608C9.08498 27.0687 9.24469 26.9503 9.3604 26.8056C9.49386 26.6477 9.5726 26.4833 9.59664 26.3123C9.62252 26.1281 9.59 25.9637 9.49906 25.819C9.42587 25.6611 9.30037 25.5361 9.12256 25.444C8.96065 25.352 8.74458 25.3059 8.47435 25.3059L6.32839 25.3059C5.29515 25.3059 4.3804 25.1415 3.58413 24.8126C2.78787 24.4837 2.17885 24.0101 1.75707 23.3918C1.35304 22.7604 1.21296 22.004 1.33683 21.1226C1.45886 20.2543 1.80361 19.4979 2.37108 18.8533C2.93855 18.2087 3.65259 17.7088 4.51321 17.3536C5.37382 16.9984 6.2969 16.8208 7.28245 16.8208L13.2049 16.8208C14.1348 16.8208 14.7838 17.5673 14.6543 18.4882V18.4882C14.5249 19.4091 13.6661 20.1556 12.7362 20.1556L7.50525 20.1556C7.2827 20.1556 7.07846 20.1951 6.89251 20.274C6.72246 20.353 6.5805 20.4582 6.46663 20.5898C6.36866 20.7213 6.30859 20.866 6.2864 21.0239C6.26421 21.1818 6.28362 21.3265 6.34461 21.458C6.4215 21.5896 6.53295 21.7014 6.67897 21.7935C6.84273 21.8724 7.03588 21.9119 7.25843 21.9119L9.57129 21.9119C10.6999 21.9119 11.6605 22.0895 12.4531 22.4447C13.2475 22.7867 13.8317 23.2669 14.2058 23.8851C14.5799 24.5034 14.7078 25.2336 14.5895 26.0755C14.4545 27.0358 14.0926 27.858 13.5036 28.5421C12.9306 29.2262 12.2138 29.7458 11.3532 30.101C10.4926 30.4562 9.5695 30.6338 8.58395 30.6338L2.32772 30.6338Z" fill="#0CAD4D"/>
<path d="M20.7873 30.6338C19.8293 30.6338 18.9751 30.4628 18.2248 30.1207C17.4905 29.7787 16.9334 29.3117 16.5535 28.7197C16.1755 28.1145 16.042 27.4173 16.1529 26.628C16.2398 26.0097 16.4888 25.4309 16.9 24.8915C16.9482 24.8293 16.998 24.7683 17.0492 24.7084C17.6272 24.0325 17.7944 22.9614 17.4365 22.2671V22.2671C17.1874 21.7672 17.0998 21.2541 17.1738 20.7279C17.2828 19.9517 17.6016 19.2742 18.13 18.6954C18.6763 18.1034 19.3557 17.643 20.1684 17.3141C20.997 16.9852 21.8744 16.8208 22.8005 16.8208L28.5654 16.8208C29.4953 16.8208 30.1443 17.5673 30.0149 18.4882V18.4882C29.8854 19.4091 29.0266 20.1556 28.0967 20.1556L23.4814 20.1556C23.2259 20.1556 22.9889 20.1951 22.7702 20.274C22.5534 20.3398 22.3709 20.4451 22.2229 20.5898C22.0926 20.7213 22.0127 20.8923 21.9831 21.1028C21.9554 21.3002 21.9872 21.4712 22.0787 21.6159C22.1879 21.7474 22.3408 21.8527 22.5372 21.9316C22.7356 21.9974 22.9625 22.0303 23.218 22.0303L27.0049 22.0303C27.9294 22.0303 28.5745 22.7724 28.4458 23.6878V23.6878C28.3172 24.6033 27.4635 25.3454 26.539 25.3454L22.776 25.3454C22.5046 25.3454 22.2595 25.3848 22.0408 25.4638C21.8222 25.5427 21.6388 25.6545 21.4907 25.7992C21.3586 25.9439 21.2778 26.1215 21.2482 26.332C21.2205 26.5293 21.2523 26.7004 21.3437 26.8451C21.4511 26.9898 21.6031 27.1016 21.7996 27.1805C21.9979 27.2463 22.2328 27.2792 22.5042 27.2792L27.0856 27.2792C28.021 27.2792 28.6738 28.0301 28.5436 28.9565V28.9565C28.4135 29.8828 27.5496 30.6338 26.6141 30.6338L20.7873 30.6338Z" fill="#0CAD4D"/>
</g>
<path d="M39.1758 24.332C37.5675 24.332 36.4452 23.0409 36.669 21.4483V21.4483C36.8929 19.8557 38.378 18.5646 39.9863 18.5646H47.3094C47.6999 18.5646 48.0328 18.485 48.3079 18.3258C48.6059 18.1665 48.8415 17.9617 49.0145 17.7115C49.2137 17.4385 49.3341 17.1541 49.3756 16.8583C49.4204 16.5398 49.38 16.2554 49.2543 16.0052C49.1548 15.7322 48.9784 15.516 48.7251 15.3568C48.4948 15.1975 48.1844 15.1179 47.7938 15.1179H44.6922C43.1989 15.1179 41.8834 14.8335 40.7457 14.2647C39.608 13.696 38.7467 12.8769 38.1618 11.8077C37.6031 10.7156 37.4308 9.40745 37.645 7.88314C37.8561 6.38159 38.3845 5.07342 39.2304 3.95864C40.0763 2.84385 41.1283 1.97932 42.3863 1.36505C43.6443 0.750776 44.9856 0.443641 46.41 0.443641H54.4912C56.0994 0.443641 57.2218 1.7347 56.9979 3.3273V3.3273C56.7741 4.9199 55.2889 6.21096 53.6807 6.21096H46.5988C46.2772 6.21096 45.9804 6.27922 45.7085 6.41572C45.4596 6.55222 45.2502 6.73423 45.0804 6.96174C44.9335 7.18925 44.8409 7.4395 44.8025 7.71251C44.7642 7.98552 44.7864 8.23578 44.8693 8.46329C44.9752 8.6908 45.1318 8.88418 45.3392 9.04344C45.5727 9.17994 45.8503 9.24819 46.172 9.24819H49.5147C51.1459 9.24819 52.5271 9.55533 53.6585 10.1696C54.793 10.7611 55.6182 11.5915 56.1342 12.6608C56.6502 13.7301 56.8058 14.9928 56.6012 16.4488C56.3678 18.1096 55.8118 19.5315 54.9334 20.7146C54.0779 21.8976 53.0211 22.7963 51.7631 23.4105C50.5051 24.0248 49.1639 24.332 47.7395 24.332H39.1758Z" fill="#334155"/>
<path d="M66.163 31.2596C64.117 31.2596 62.6892 29.6171 62.9739 27.591L63.0315 27.1815C63.3162 25.1554 65.2057 23.5129 67.2517 23.5129V23.5129C69.2977 23.5129 70.7255 25.1554 70.4407 27.1815L70.3832 27.591C70.0984 29.6171 68.209 31.2596 66.163 31.2596V31.2596ZM67.057 24.7756C65.1501 24.7756 63.4358 24.4685 61.9139 23.8542C60.415 23.2399 59.158 22.3754 58.143 21.2606C57.1542 20.1231 56.4436 18.8035 56.0114 17.302C55.5791 15.8004 55.4877 14.1624 55.7371 12.3878C55.9865 10.6132 56.5383 8.97518 57.3926 7.47363C58.2502 5.94933 59.3316 4.62978 60.637 3.515C61.9654 2.40021 63.4653 1.53568 65.1369 0.921407C66.8314 0.307136 68.6321 0 70.539 0C72.4459 0 74.1488 0.307136 75.6477 0.921407C77.1695 1.53568 78.4265 2.40021 79.4185 3.515C80.4336 4.62978 81.1556 5.94933 81.5846 7.47363C82.0169 8.97518 82.1083 10.6132 81.8589 12.3878C81.6095 14.1624 81.0577 15.8004 80.2034 17.302C79.3491 18.8035 78.2561 20.1231 76.9246 21.2606C75.6192 22.3754 74.1192 23.2399 72.4247 23.8542C70.7531 24.4685 68.9639 24.7756 67.057 24.7756ZM67.8915 18.8376C68.7416 18.8376 69.5336 18.6784 70.2676 18.3599C71.0048 18.0186 71.6562 17.5522 72.2218 16.9607C72.7874 16.3692 73.2509 15.6867 73.6123 14.9131C73.9769 14.1169 74.2216 13.2751 74.3463 12.3878C74.471 11.5005 74.4614 10.6701 74.3174 9.89659C74.1765 9.10031 73.9065 8.40641 73.5071 7.81489C73.1078 7.22337 72.5859 6.76836 71.9415 6.44985C71.3002 6.10858 70.5545 5.93795 69.7045 5.93795C68.8544 5.93795 68.0608 6.10858 67.3236 6.44985C66.5896 6.76836 65.9398 7.22337 65.3742 7.81489C64.8086 8.40641 64.3435 9.10031 63.9789 9.89659C63.6175 10.6701 63.3744 11.5005 63.2497 12.3878C63.125 13.2751 63.1331 14.1169 63.2739 14.9131C63.4179 15.6867 63.6895 16.3692 64.0889 16.9607C64.4882 17.5522 65.0085 18.0186 65.6498 18.3599C66.2942 18.6784 67.0415 18.8376 67.8915 18.8376Z" fill="#334155"/>
<path d="M88.5773 24.7415C86.7853 24.7415 85.1969 24.3547 83.8123 23.5812C82.4507 22.8077 81.4194 21.727 80.7184 20.3392C80.0436 18.9286 79.8341 17.3133 80.0899 15.4933C80.3457 13.6732 81.0077 12.0693 82.0757 10.6815C83.1668 9.29369 84.5133 8.21303 86.1153 7.4395C87.7206 6.64323 89.4192 6.24509 91.2112 6.24509C93.0032 6.24509 94.5784 6.64323 95.9369 7.4395C97.2985 8.21303 98.3184 9.29369 98.9963 10.6815C99.6743 12.0693 99.8854 13.6732 99.6296 15.4933C99.3738 17.3133 98.7103 18.9286 97.639 20.3392C96.571 21.727 95.2359 22.8077 93.6339 23.5812C92.0548 24.3547 90.3693 24.7415 88.5773 24.7415ZM89.4022 18.8718C90.0225 18.8718 90.5947 18.7239 91.1187 18.4281C91.6427 18.1324 92.0663 17.7342 92.3893 17.2337C92.7386 16.7104 92.9595 16.1189 93.0523 15.4592C93.145 14.7994 93.0887 14.2192 92.8833 13.7187C92.701 13.2182 92.3893 12.8201 91.9484 12.5243C91.5075 12.2285 90.9769 12.0807 90.3566 12.0807C89.7363 12.0807 89.1641 12.2285 88.6401 12.5243C88.1161 12.8201 87.6811 13.2182 87.335 13.7187C86.989 14.2192 86.7696 14.7994 86.6769 15.4592C86.5842 16.1189 86.6389 16.7104 86.841 17.2337C87.0464 17.7342 87.3695 18.1324 87.8104 18.4281C88.2513 18.7239 88.7819 18.8718 89.4022 18.8718Z" fill="#334155"/>
<path d="M106.968 24.7415C105.176 24.7415 103.588 24.3547 102.203 23.5812C100.842 22.8077 99.8104 21.727 99.1094 20.3392C98.4347 18.9286 98.2252 17.3133 98.481 15.4933C98.7367 13.6732 99.3987 12.0693 100.467 10.6815C101.558 9.29369 102.904 8.21303 104.506 7.4395C106.112 6.64323 107.81 6.24509 109.602 6.24509C111.394 6.24509 112.969 6.64323 114.328 7.4395C115.69 8.21303 116.709 9.29369 117.387 10.6815C118.065 12.0693 118.276 13.6732 118.021 15.4933C117.765 17.3133 117.101 18.9286 116.03 20.3392C114.962 21.727 113.627 22.8077 112.025 23.5812C110.446 24.3547 108.76 24.7415 106.968 24.7415ZM107.793 18.8718C108.414 18.8718 108.986 18.7239 109.51 18.4281C110.034 18.1324 110.457 17.7342 110.78 17.2337C111.13 16.7104 111.351 16.1189 111.443 15.4592C111.536 14.7994 111.48 14.2192 111.274 13.7187C111.092 13.2182 110.78 12.8201 110.339 12.5243C109.899 12.2285 109.368 12.0807 108.748 12.0807C108.127 12.0807 107.555 12.2285 107.031 12.5243C106.507 12.8201 106.072 13.2182 105.726 13.7187C105.38 14.2192 105.161 14.7994 105.068 15.4592C104.975 16.1189 105.03 16.7104 105.232 17.2337C105.437 17.7342 105.761 18.1324 106.201 18.4281C106.642 18.7239 107.173 18.8718 107.793 18.8718Z" fill="#334155"/>
<path d="M124.073 24.332C122.442 24.332 121.065 23.9907 119.944 23.3082C118.822 22.6256 118.006 21.727 117.497 20.6122C116.99 19.4747 116.833 18.2234 117.025 16.8583L118.814 4.12927C119.1 2.09375 120.998 0.443641 123.054 0.443641V0.443641C125.109 0.443641 126.543 2.09375 126.257 4.12927L124.459 16.9266C124.398 17.3588 124.493 17.7456 124.744 18.0869C125.021 18.4054 125.389 18.5646 125.848 18.5646H129.312C130.92 18.5646 132.042 19.8557 131.818 21.4483V21.4483C131.595 23.0409 130.109 24.332 128.501 24.332H124.073Z" fill="#334155"/>
</g>
<defs>
<clipPath id="clip0_1684_556">
<rect width="134.832" height="32" fill="white"/>
</clipPath>
<clipPath id="clip1_1684_556">
<rect width="30.359" height="29.5385" fill="white" transform="translate(0 1.23096)"/>
</clipPath>
</defs>
</svg>
