<svg width="24" height="25" viewBox="0 0 24 25" fill="none" xmlns="http://www.w3.org/2000/svg">
<path opacity="0.4" d="M22 8.5V16.69C22 20.33 19.83 22.5 16.19 22.5H7.81C4.17 22.5 2 20.33 2 16.69V8.51L22 8.5Z" fill="#F8FAFC"/>
<path d="M8.99996 18.2499C8.88996 18.2499 8.76996 18.2199 8.66996 18.1699C7.89996 17.7799 7.23996 17.1999 6.75996 16.4799C6.35996 15.8799 6.35996 15.1099 6.75996 14.5099C7.23996 13.7899 7.89996 13.2099 8.66996 12.8299C9.03996 12.6399 9.48996 12.7999 9.67996 13.1699C9.86996 13.5399 9.71996 13.9899 9.33996 14.1799C8.79996 14.4499 8.33996 14.8599 8.00996 15.3599C7.94996 15.4499 7.94996 15.5699 8.00996 15.6699C8.33996 16.1699 8.79996 16.5799 9.33996 16.8499C9.70996 17.0399 9.85996 17.4899 9.67996 17.8599C9.53996 18.0999 9.26996 18.2499 8.99996 18.2499Z" fill="#F8FAFC"/>
<path d="M15.2102 18.2499C14.9302 18.2499 14.6702 18.0999 14.5402 17.8399C14.3502 17.4699 14.5002 17.0199 14.8802 16.8299C15.4202 16.5599 15.8802 16.1499 16.2102 15.6499C16.2702 15.5599 16.2702 15.4399 16.2102 15.3399C15.8802 14.8399 15.4202 14.4299 14.8802 14.1599C14.5102 13.9699 14.3602 13.5199 14.5402 13.1499C14.7302 12.7799 15.1802 12.6299 15.5502 12.8099C16.3202 13.1999 16.9802 13.7799 17.4602 14.4999C17.8602 15.0999 17.8602 15.8699 17.4602 16.4699C16.9802 17.1899 16.3202 17.7699 15.5502 18.1499C15.4302 18.2199 15.3202 18.2499 15.2102 18.2499Z" fill="#F8FAFC"/>
<path d="M22 8.31V8.5L2 8.51V8.31C2 4.67 4.17 2.5 7.81 2.5H16.19C19.83 2.5 22 4.67 22 8.31Z" fill="#F8FAFC"/>
</svg>
