<svg width="25" height="25" viewBox="0 0 25 25" fill="none" xmlns="http://www.w3.org/2000/svg">
<path opacity="0.4" d="M22.5 8.5V16.69C22.5 20.33 20.33 22.5 16.69 22.5H8.31C4.67 22.5 2.5 20.33 2.5 16.69V8.51L22.5 8.5Z" fill="#0F172A"/>
<path d="M9.49996 18.2499C9.38996 18.2499 9.26996 18.2199 9.16996 18.1699C8.39996 17.7799 7.73996 17.1999 7.25996 16.4799C6.85996 15.8799 6.85996 15.1099 7.25996 14.5099C7.73996 13.7899 8.39996 13.2099 9.16996 12.8299C9.53996 12.6399 9.98996 12.7999 10.18 13.1699C10.37 13.5399 10.22 13.9899 9.83996 14.1799C9.29996 14.4499 8.83996 14.8599 8.50996 15.3599C8.44996 15.4499 8.44996 15.5699 8.50996 15.6699C8.83996 16.1699 9.29996 16.5799 9.83996 16.8499C10.21 17.0399 10.36 17.4899 10.18 17.8599C10.04 18.0999 9.76996 18.2499 9.49996 18.2499Z" fill="#0F172A"/>
<path d="M15.71 18.2499C15.43 18.2499 15.17 18.0999 15.04 17.8399C14.85 17.4699 15 17.0199 15.38 16.8299C15.92 16.5599 16.38 16.1499 16.71 15.6499C16.77 15.5599 16.77 15.4399 16.71 15.3399C16.38 14.8399 15.92 14.4299 15.38 14.1599C15.01 13.9699 14.86 13.5199 15.04 13.1499C15.23 12.7799 15.68 12.6299 16.05 12.8099C16.82 13.1999 17.48 13.7799 17.96 14.4999C18.36 15.0999 18.36 15.8699 17.96 16.4699C17.48 17.1899 16.82 17.7699 16.05 18.1499C15.93 18.2199 15.82 18.2499 15.71 18.2499Z" fill="#0F172A"/>
<path d="M22.5 8.31V8.5L2.5 8.51V8.31C2.5 4.67 4.67 2.5 8.31 2.5H16.69C20.33 2.5 22.5 4.67 22.5 8.31Z" fill="#0F172A"/>
</svg>
