<svg width="160" height="160" viewBox="0 0 160 160" fill="none" xmlns="http://www.w3.org/2000/svg">
<mask id="mask0_1725_1507" style="mask-type:alpha" maskUnits="userSpaceOnUse" x="0" y="0" width="160" height="160">
<ellipse cx="79.7383" cy="79.7377" rx="79.7378" ry="79.7377" fill="#D9D9D9"/>
</mask>
<g mask="url(#mask0_1725_1507)">
<path d="M123.451 145.569C123.085 145.83 122.667 146.092 122.301 146.353C121.883 146.614 121.517 146.876 121.099 147.085C120.733 147.294 120.419 147.503 120.053 147.713C120 147.765 119.948 147.765 119.896 147.817C118.693 148.549 117.438 149.229 116.183 149.856C115.817 150.065 115.399 150.275 115.033 150.431C115.033 150.431 114.981 150.484 114.929 150.484C114.51 150.693 114.092 150.902 113.674 151.111C112.837 151.53 111.948 151.896 111.112 152.262C110.693 152.471 110.223 152.628 109.804 152.784C109.386 152.941 108.916 153.15 108.497 153.307C108.079 153.464 107.608 153.673 107.19 153.83C107.19 153.83 107.19 153.83 107.138 153.83C106.719 153.987 106.249 154.144 105.831 154.301C104.889 154.614 103.896 154.928 102.955 155.242C102.641 155.347 102.275 155.451 101.961 155.556C100.968 155.869 99.9743 156.131 98.9809 156.34C98.6149 156.445 98.2489 156.497 97.8306 156.601C96.8894 156.811 95.8959 157.02 94.9547 157.229C94.7456 157.281 94.5887 157.281 94.3796 157.333C94.0658 157.386 93.6998 157.438 93.3861 157.49C92.9155 157.543 92.4972 157.647 92.0266 157.699C91.8175 157.752 91.6083 157.752 91.3992 157.804C91.1377 157.856 90.824 157.909 90.5103 157.909C89.6737 158.013 88.7848 158.118 87.9482 158.222C87.6868 158.275 87.373 158.275 87.1116 158.327H87.0593C86.6933 158.379 86.3273 158.379 85.9613 158.431C85.5953 158.484 85.2292 158.484 84.8632 158.484C84.6541 158.484 84.3926 158.536 84.1835 158.536C83.7652 158.536 83.3992 158.588 83.0332 158.588C82.5103 158.588 82.0397 158.641 81.5168 158.641C80.9939 158.641 80.5234 158.641 80.0005 158.641C79.6345 158.641 79.2685 158.641 78.9024 158.641C56.8371 158.327 37.0201 148.967 22.8501 134.118C22.8501 134.118 22.8501 134.065 22.7979 134.065C21.2292 132.654 22.5887 125.124 28.9155 120.366C36.8632 114.353 55.8959 110.588 55.8959 110.588C55.8959 110.588 63.2685 109.386 90.6149 115.085C106.615 118.431 118.798 123.294 125.595 136.471C127.007 139.19 128.419 143.373 123.451 145.569Z" fill="#F8F8F8"/>
<path d="M90.7715 114.51C100.811 116.549 111.53 118.745 119.791 125.385C122.562 127.634 124.392 130.928 125.909 134.117C126.641 135.686 127.373 137.307 127.948 139.032C128.262 140.183 128.732 141.49 128.471 142.849C128.419 143.215 128.105 143.686 127.843 143.947C126.641 145.15 125.334 145.882 124.026 146.823C116.34 152.157 107.504 155.921 98.3532 157.908C77.961 162.353 55.8956 158.902 37.961 148.183C32.0002 144.575 26.51 140.183 21.8041 135.006C21.2812 134.379 21.2812 133.333 21.2812 132.653C21.3335 131.085 21.7518 129.568 22.2747 128.157C23.5296 124.915 25.1505 121.673 27.9218 119.425C29.9087 118.065 32.0525 116.915 34.2486 115.974C41.1505 113.046 48.4185 111.006 55.8956 110.17C56.5231 110.117 56.6277 111.006 56.0002 111.111C48.8368 112.575 41.7257 114.771 35.0852 117.751C32.6799 118.954 30.1179 120 28.1832 121.882C26.3531 123.869 25.046 126.327 24.0002 128.836C23.3205 130.353 22.8499 132.758 23.059 133.961C26.3531 137.882 30.2224 141.333 34.4054 144.314C57.3074 160.314 92.0787 161.359 116.445 148.026C118.641 146.823 120.785 145.464 122.824 144.052C123.817 143.372 124.863 142.797 125.647 142.013C125.7 141.961 125.647 142.013 125.647 142.065C125.647 142.117 125.595 142.17 125.595 142.17C125.647 141.542 125.438 140.706 125.177 139.869C124.236 136.836 122.719 133.647 121.098 130.876C118.536 126.745 114.196 124.13 109.804 122.039C106.771 120.627 103.582 119.529 100.34 118.483C97.0983 117.438 93.8042 116.549 90.51 115.764C89.6734 115.555 89.9349 114.353 90.7715 114.51Z" fill="#AA55FF"/>
<path d="M34.8764 117.542C34.8764 117.542 28.7588 119.477 26.615 122.458C23.3209 127.007 20.5496 135.895 17.5169 144.68C11.9744 160.627 12.1313 184.366 12.1313 184.366H131.452C131.452 184.366 131.556 158.745 127.112 141.281C126.327 138.144 123.661 133.02 122.406 130.928C119.896 126.745 115.452 124.654 113.726 123.451C113.726 123.451 117.02 143.843 93.9091 145.046C70.798 146.248 42.8764 138.876 42.1967 134.588C41.5169 130.248 34.8764 117.542 34.8764 117.542Z" fill="#F8F8F8"/>
<path d="M121.099 185.307C88.2621 200.471 34.1967 186.771 34.1967 186.771C34.1967 186.771 33.0987 173.438 37.0725 149.438C37.2294 148.34 37.3863 147.242 37.4908 146.248C38.6412 135.373 37.2294 121.464 34.4059 116.758C34.4059 115.556 35.6608 115.869 37.0725 114.667C37.6477 114.196 38.432 114.144 38.8503 114.458C39.5823 115.503 41.5693 120.627 42.1444 121.725C48.0006 132.549 56.9418 139.503 69.1771 140.706C85.8569 142.379 92.8111 142.118 101.125 140.288C109.125 138.51 112.733 133.804 110.484 125.961C109.177 121.307 106.981 119.007 106.929 118.902C108.184 119.425 111.321 120.837 112.471 122.928C112.785 123.451 114.876 126.693 116.497 133.647C117.648 138.614 118.223 142.745 118.903 148.34C121.203 166.641 121.099 185.307 121.099 185.307Z" fill="#AA55FF" stroke="#AA55FF" stroke-width="0.630856" stroke-miterlimit="10" stroke-linecap="round" stroke-linejoin="round"/>
<path d="M91.1381 148.392C92.12 148.392 92.9159 147.596 92.9159 146.614C92.9159 145.632 92.12 144.836 91.1381 144.836C90.1563 144.836 89.3604 145.632 89.3604 146.614C89.3604 147.596 90.1563 148.392 91.1381 148.392Z" fill="#F8F8F8"/>
<path d="M91.6083 154.98C92.5902 154.98 93.3861 154.184 93.3861 153.203C93.3861 152.221 92.5902 151.425 91.6083 151.425C90.6265 151.425 89.8306 152.221 89.8306 153.203C89.8306 154.184 90.6265 154.98 91.6083 154.98Z" fill="#F8F8F8"/>
<path d="M95.686 128.418C94.588 133.804 87.4769 137.046 75.503 132.183C63.0586 127.163 57.673 115.189 56.3135 111.634C63.686 97.8298 58.5618 88.2612 58.5618 88.2612C75.5553 86.7971 90.405 106.666 90.405 106.666L92.7057 116.496C92.9148 117.333 93.3331 118.065 93.9606 118.588C95.0586 120.523 96.3658 124.967 95.686 128.418Z" fill="#F8F8F8"/>
<path d="M56.0523 111.79C57.0458 110.274 57.6732 108.496 58.0915 106.771C58.8758 103.163 59.1373 99.5026 59.1896 95.8424V94.483C59.0327 93.1235 58.5621 91.7117 58.0392 90.4568C57.3595 88.7836 59.817 87.7379 60.6013 89.4111C60.7059 89.6202 60.7059 89.9862 60.7059 90.1954C60.8628 97.3065 61.1765 106.457 56.6798 112.365C56.366 112.679 55.7386 112.208 56.0523 111.79Z" fill="#AA55FF"/>
<path d="M90.9802 106.562C91.7645 107.033 92.026 107.66 92.1305 108.287C92.4443 109.542 92.3397 110.902 92.6534 112.209C92.9149 113.464 93.6992 114.667 93.9083 115.974C94.1698 117.333 94.9541 120.209 95.2678 121.621C95.3724 121.934 95.1632 122.301 94.7972 122.353C94.5881 122.405 94.4312 122.353 94.2743 122.248C93.5946 121.673 93.2809 121.098 92.8626 120.366C92.1828 119.111 91.7122 117.961 91.2939 116.549C90.9279 115.294 91.0848 113.934 90.7711 112.627C90.5096 111.372 89.7776 110.17 89.5162 108.863C89.3593 108.235 89.307 107.555 89.7776 106.771C90.0913 106.457 90.6142 106.353 90.9802 106.562Z" fill="#AA55FF"/>
<path d="M94.7453 120.366C84.7584 119.843 76.6015 116.706 68.6538 102.536C75.3466 108.444 83.2421 110.693 91.5558 111.738L92.6538 116.549C92.863 117.385 94.1179 119.843 94.7453 120.366Z" fill="#AA55FF"/>
<path d="M94.3273 118.431C96.1051 121.777 97.1509 125.96 96.0528 129.673C95.2162 132.287 92.811 134.222 90.1966 134.954C84.1312 136.575 77.1247 134.013 71.7391 131.137C65.0986 127.424 60.1835 121.202 57.0463 114.405C56.8371 113.882 57.5691 113.464 57.8829 113.986C58.9809 116.182 60.2358 118.326 61.6476 120.261C63.0593 122.248 64.6803 124.078 66.5103 125.699C71.8437 130.509 79.0593 133.49 86.275 133.49C93.6999 133.28 96.5234 129.359 94.7979 122.143C94.5365 120.993 94.1182 119.79 93.543 118.797C93.2293 118.379 94.0136 117.908 94.3273 118.431Z" fill="#AA55FF"/>
<path d="M114.562 55.6341C115.503 60.0262 112.366 64.7321 112.366 76.4446C112.366 88.4184 110.17 101.438 101.124 110.484C93.3335 118.275 84.3923 117.961 73.8825 109.752C72.4185 108.601 67.2943 104.732 65.9871 103.425C64.4707 101.909 63.6341 100.811 62.9021 99.6602C62.2747 98.6145 62.4315 92.5491 61.5426 91.1374C59.242 87.3204 58.7714 91.4511 55.791 88.1047C51.6603 83.608 46.693 74.5622 49.1505 58.5622C53.1243 32.6275 73.6734 29.5949 88.889 32.4707C104.209 35.3988 112.052 44.0785 114.562 55.6341Z" fill="#F8F8F8"/>
<path d="M58.4053 92.7582C57.2027 90.7712 55.6864 88.9935 54.2746 87.1634C52.8628 85.2288 51.7125 83.1895 50.7713 80.9935C45.438 68.0784 46.2223 51.1895 55.6864 40.3137C62.17 32.8889 72.4184 30.4314 81.8302 30.9542C91.2419 31.5294 101.02 33.9346 107.974 40.732C112 44.6536 114.562 49.8823 115.713 55.3203C116.079 57.0457 115.817 58.9281 115.399 60.549C114.196 65.098 113.046 69.4379 112.941 74.1438C112.994 81.1503 112.784 88.3137 110.745 95.0588C109.281 99.5556 107.556 104.052 104.837 107.974C102.013 111.948 97.7779 115.137 92.9151 116.078C83.1374 118.065 73.987 111.895 67.5034 105.203C67.2419 104.889 67.6079 104.523 67.9217 104.732C71.6341 107.556 75.4511 110.17 79.5818 111.948C91.5034 117.438 101.386 112.366 106.614 100.863C111.007 92.4967 112.262 83.451 111.896 74.0915C111.896 71.7386 112 69.3856 112.314 67.0327C112.628 63.634 113.778 60.2353 113.726 56.8889C112.837 51.451 110.327 46.2222 106.562 42.1961C97.621 32.732 80.4707 29.9608 68.4445 34.2484C54.2746 39.268 50.4576 53.5425 49.6733 67.1895C49.1504 75.3464 51.5556 83.3464 57.7256 88.9412L60.1831 91.5033C61.0197 92.6536 59.2419 94.0131 58.4053 92.7582Z" fill="#AA55FF"/>
<path d="M64.5754 76.1308C64.5754 76.1308 62.9545 68.2876 55.3205 69.2288C48.7322 70.0654 46.4316 85.8563 61.3858 90.2484" fill="#F8F8F8"/>
<path d="M60.7065 83.3985C59.5039 82.7187 58.6673 81.5684 58.615 80.1566C58.6673 79.1109 58.8241 77.9083 58.5627 76.8625C58.4058 75.869 57.3601 75.6076 56.5758 75.6599C55.7392 75.8168 55.2163 76.8625 55.0594 77.6991C55.0594 77.7514 55.0072 77.9083 55.0072 77.9605C54.9549 78.222 54.5366 78.222 54.432 77.9605C53.7523 75.9213 55.2686 73.673 57.4647 73.9344C60.5496 74.1436 60.9679 77.3854 60.3928 79.8429C60.079 80.8886 60.4974 81.8298 61.0725 82.7187L61.1771 82.8756C61.4385 83.1893 61.0202 83.6076 60.7065 83.3985Z" fill="#AA55FF"/>
<path d="M102.537 70.5877C103.321 74.3001 104.785 77.7511 106.615 80.9929C108.236 84.9668 104.053 88.7315 100.341 88.5746C99.9222 88.5746 99.87 87.9994 100.236 87.8949C102.589 87.1628 104.733 85.5942 105.099 83.189C105.256 82.457 105.046 81.8295 104.68 81.2021C102.955 77.9602 101.909 74.2478 102.171 70.5877C102.171 70.3262 102.537 70.3262 102.537 70.5877Z" fill="#AA55FF"/>
<path d="M64.3143 76.1827C63.1117 73.0978 60.4973 70.1697 56.9941 70.222C56.6803 70.1697 56.1575 70.2742 55.8437 70.2742C54.9548 70.3265 54.2228 70.6403 53.5431 71.2677C50.1967 74.6141 50.7718 80.5226 53.4908 84.235C54.432 85.5422 55.6346 86.6926 56.9941 87.6337C58.3535 88.5749 59.8699 89.3069 61.4908 89.9344C61.8568 90.039 61.6999 90.6141 61.3339 90.5618C57.8307 89.8298 54.4843 88.1043 52.1836 85.2285C48.628 80.9409 47.896 73.7775 52.1313 69.5945C53.0725 68.7579 54.3797 68.1305 55.6869 68.1305C56.1052 68.1305 56.7326 68.0259 57.1509 68.1305C59.347 68.235 61.4385 69.3331 62.798 71.0586C64.0006 72.5226 64.6803 74.3004 64.8895 76.0782C64.8895 76.3919 64.4189 76.4965 64.3143 76.1827Z" fill="#AA55FF"/>
<path d="M98.6153 91.2413C100.55 90.091 102.275 92.1825 101.23 94.0126C100.968 94.5354 100.654 94.9015 100.288 95.3198L100.236 94.0649C102.171 95.7381 101.7 98.2479 99.4519 99.2936C99.0858 99.4505 97.3604 99.9734 97.3604 99.3459C97.3604 99.189 97.4649 99.0845 97.6218 99.0845C98.929 99.0322 100.707 97.725 100.184 96.2609C100.027 95.8949 99.661 95.4766 99.3473 95.3198C98.9813 95.1106 98.8767 94.6923 99.0858 94.3263C99.5041 93.8557 100.498 93.3328 100.498 92.4439C100.393 91.6596 99.6087 91.3982 98.8767 91.6596C98.563 91.8165 98.3538 91.3982 98.6153 91.2413Z" fill="#AA55FF"/>
<path d="M85.4905 72.2092C85.4905 72.2615 85.4905 72.3138 85.4905 72.3138L85.4382 73.7778C85.3859 75.0327 84.3402 75.9739 83.0853 75.9216C81.8304 75.8693 80.8892 74.7713 80.9938 73.5687L81.0461 72.1046C81.0461 71.8432 81.1506 71.5295 81.2552 71.3203L85.4382 71.5295C85.4382 71.7386 85.4905 71.9478 85.4905 72.2092Z" fill="#AA55FF"/>
<path d="M107.347 73.3596L107.295 74.7191C107.242 75.8694 106.249 76.7583 105.098 76.706C103.948 76.6538 103.059 75.6603 103.112 74.51L103.164 73.1505C103.164 72.889 103.216 72.6276 103.321 72.4185L107.242 72.5753C107.295 72.8368 107.347 73.0982 107.347 73.3596Z" fill="#AA55FF"/>
<path d="M90.7192 65.0456C91.8695 65.2025 92.7584 63.9998 92.3401 62.8495C92.131 62.2221 91.7649 61.6469 91.1898 61.2809C89.412 60.1829 82.7715 60.0783 79.2682 62.5881C76.131 64.8887 85.4904 64.3136 90.7192 65.0456Z" fill="#AA55FF"/>
<path d="M105.203 65.6212C104.262 65.6212 103.687 64.4186 104.157 63.4251C104.419 62.9022 104.785 62.4316 105.308 62.1702C106.929 61.3859 111.268 61.8565 113.203 64.5231C114.929 66.8761 109.543 65.5689 105.203 65.6212Z" fill="#AA55FF"/>
<path d="M88.8368 72.2092L80.2093 72.0523C79.1636 72 79.2159 70.4314 80.2616 70.4837L88.8891 71.1112C89.6211 71.1634 89.5688 72.2092 88.8368 72.2092Z" fill="#AA55FF"/>
<path d="M109.543 73.0983L103.164 73.2029C102.118 73.2029 102.066 71.6866 103.112 71.6343C103.164 71.6343 103.164 71.6343 103.216 71.6343L109.595 72.314C110.066 72.3663 110.014 73.046 109.543 73.0983Z" fill="#AA55FF"/>
<path d="M104.21 50.7187C105.308 51.2939 106.249 50.771 106.824 49.6207C112.889 48.6795 114.301 60.8103 114.51 61.5423C115.19 64.3135 118.85 64.8364 120.21 62.3789C123.922 55.5815 126.327 46.0129 115.817 40.0521C117.125 38.1174 116.183 28.4965 105.255 26.1436C101.334 25.307 96.2096 28.9671 89.7782 27.5553C64.6279 21.9606 38.5364 27.2939 40.5756 60.4965C41.0462 67.7645 41.5168 75.6076 29.1769 80.8364C14.8501 86.9018 15.5821 102.745 25.6736 105.987C29.8566 107.346 16.0527 116.758 24.105 125.124C28.288 129.516 35.7651 120.627 43.3468 125.438C54.7978 132.706 60.4972 129.412 62.7455 126.536C67.3468 120.68 61.6475 108.915 61.6475 108.915C61.6475 108.915 63.8959 105.307 64.6279 103.372C68.1834 93.856 59.7128 89.5684 59.7128 89.5684C46.6409 84.5488 48.9939 69.9606 55.373 69.124C62.0658 68.2874 64.1573 74.2482 64.5233 75.7122C64.5233 75.7122 70.4318 83.8691 81.8305 65.2547C93.1246 46.6926 99.2423 48.0521 104.21 50.7187Z" fill="#AA55FF"/>
<path d="M58.7196 77.751C58.7196 77.751 54.5366 77.1235 54.8503 82.9797C55.0072 85.9601 55.0072 87.5811 54.9549 88.4177C54.9026 88.9928 55.2686 89.5157 55.7915 89.7248C56.4189 89.9863 57.0987 89.7248 57.4124 89.0974C57.883 88.2608 58.4059 87.1105 58.4059 86.1693C58.4059 84.6007 60.0791 83.1889 60.0791 83.1889C60.0791 83.1889 58.5627 81.8817 58.7196 77.751Z" fill="#F8F8F8"/>
<path d="M58.5629 77.9079C58.5629 77.9602 58.6152 78.0125 58.6675 78.0125C58.6675 78.0125 58.6675 78.0125 58.6152 78.0125H58.5106C56.0008 78.2216 55.2165 80.4177 55.3211 82.666C55.3733 84.1301 55.4779 85.5942 55.4256 87.0059C55.5302 87.7902 55.0596 88.836 55.8439 89.2543C56.3145 89.5157 56.942 89.3066 57.1511 88.7837C57.6217 87.8425 58.0923 86.9013 58.0923 85.8556C58.3015 84.653 59.0858 83.7118 59.9224 82.9798V83.3981C58.8243 82.2477 58.5629 80.6791 58.406 79.2151C58.4583 78.8491 58.4583 78.2739 58.5629 77.9079ZM58.9289 77.5419C59.0858 79.0059 59.0858 80.5223 59.7132 81.8294C59.8701 82.1955 60.1315 82.6138 60.4452 82.8752C60.6544 83.0321 60.6544 83.3458 60.4452 83.5026C59.7132 84.1824 59.0858 85.019 58.9812 85.9602C58.9812 87.1105 58.5106 88.2085 57.9877 89.202C57.5694 90.0909 56.3668 90.5615 55.4779 90.0386C54.9028 89.7249 54.4845 89.0974 54.4845 88.4177C54.4845 87.8948 54.5367 87.4765 54.5367 86.9536C54.5367 85.4896 54.4322 84.0778 54.3799 82.6138C54.3799 81.6726 54.4322 80.5745 54.8505 79.6334C55.3733 78.1693 56.9943 77.1759 58.5629 77.4373C58.7198 77.4373 58.8766 77.4896 58.9289 77.5419Z" fill="#AA55FF"/>
<path d="M58.04 139.66C59.7655 132.13 57.5171 123.659 55.5825 116.13C54.7982 113.15 54.0139 110.326 53.6479 107.869C52.9681 103.738 53.4387 99.8164 55.1119 96.1562C57.1511 91.6072 56.8374 87.7379 56.8374 87.5811L55.7917 87.6856C55.7917 87.7379 56.1054 91.5026 54.1707 95.7379C52.4453 99.5549 51.9224 103.686 52.6021 108.026C53.0204 110.535 53.7524 113.411 54.5368 116.392C56.4714 123.764 58.6675 132.13 56.9943 139.398C56.0531 143.424 57.8832 150.012 60.4975 156.601C60.9158 156.653 61.2819 156.705 61.7002 156.758C59.0335 150.169 57.1511 143.529 58.04 139.66Z" fill="#AA55FF"/>
<path d="M55.0074 86.0122C55.0597 87.1626 55.0074 87.9469 55.0074 88.4175C54.9551 88.9926 55.3211 89.5155 55.844 89.7247C56.4715 89.9861 57.1512 89.7247 57.4649 89.0972C57.9355 88.2606 58.4584 87.1103 58.4584 86.1691C58.4584 86.1168 58.4584 86.0122 58.4584 85.96C57.4126 86.3783 56.1577 86.692 55.0074 86.0122Z" fill="#F8F8F8"/>
<path d="M55.164 86.2216C55.2163 86.9537 55.2686 87.6334 55.2686 88.3654C55.2163 88.6792 55.3209 88.9929 55.5301 89.2543C56.2098 89.9341 57.151 89.5158 57.4124 88.6792C57.8307 87.8426 58.1967 86.9537 58.1967 86.0125L58.5627 86.2739C57.4124 86.4831 56.2098 86.7968 55.1118 86.3262C55.1118 86.3262 55.164 86.2739 55.164 86.2216ZM54.9026 85.7511C55.0072 85.7511 55.2163 85.8033 55.3209 85.9079C56.2621 86.5877 57.4647 86.2739 58.4059 85.7511C58.5627 85.6465 58.8242 85.8033 58.7719 86.0125C58.7196 87.2151 58.249 88.3654 57.6216 89.4112C57.0464 90.1955 55.8438 90.2478 55.164 89.5681C54.8503 89.2543 54.6935 88.7315 54.7457 88.3132C54.7457 87.4243 54.8503 86.5877 54.9026 85.7511Z" fill="#AA55FF"/>
<path d="M104.262 120.784C105.151 114.614 104.314 110.222 104.001 108.915C103.844 109.019 103.739 109.176 103.582 109.281C103.425 109.437 103.269 109.542 103.112 109.699C103.425 111.372 104.001 115.346 103.216 120.627C102.85 123.084 102.746 126.954 102.693 131.451C102.589 135.79 101.229 146.614 99.6084 156.862C99.9744 156.758 100.34 156.653 100.706 156.601C102.327 146.457 103.635 135.843 103.739 131.503C103.844 127.006 103.896 123.189 104.262 120.784Z" fill="#AA55FF"/>
<path d="M150.693 44.079C182.432 105.203 126.641 174.171 60.1309 157.334C30.2747 149.909 6.27469 124.027 1.30737 93.6476C-4.33969 63.4254 9.30737 30.9548 34.8237 13.8568C69.8041 -10.1955 118.275 -2.19553 143.32 32.2097C143.477 32.3666 143.425 32.628 143.216 32.7849C143.059 32.9417 142.798 32.8894 142.641 32.6803C139.19 28.2358 135.268 24.2097 130.981 20.6019C123.922 14.5888 115.66 9.8829 106.928 6.69336C62.4839 -9.41122 13.6995 17.36 3.97403 63.8437C-7.00636 115.922 37.2812 163.87 90.0917 156.706C130.824 151.582 161.098 113.988 157.752 73.0986C157.02 63.2163 154.405 53.4385 150.066 44.445C149.961 44.2881 150.066 44.079 150.222 43.9744C150.379 43.8698 150.588 43.9221 150.693 44.079Z" fill="#AA55FF"/>
</g>
</svg>
