<svg width="24" height="24" viewBox="0 0 24 24" fill="none" xmlns="http://www.w3.org/2000/svg">
<rect width="11.3827" height="4.20524" rx="0.956938" transform="matrix(0.893235 -0.44959 -0.44959 -0.893235 3.89062 18.8484)" fill="#94A3B8"/>
<rect x="10.5889" y="9.97461" width="11.3827" height="4.20524" rx="0.956938" transform="rotate(26.7174 10.5889 9.97461)" fill="#94A3B8"/>
<rect x="9.33691" y="14.3828" width="11.3827" height="4.20524" rx="0.956938" transform="rotate(-90 9.33691 14.3828)" fill="#94A3B8"/>
<rect x="3.89062" y="6.50879" width="11.3827" height="4.20524" rx="0.956938" transform="rotate(26.7174 3.89062 6.50879)" fill="#94A3B8"/>
<rect width="7.61044" height="4.20524" rx="0.637959" transform="matrix(0.893235 -0.44959 -0.44959 -0.893235 10.5889 15.3826)" fill="#94A3B8"/>
<rect width="4.20415" height="4.20524" rx="0.637959" transform="matrix(0.893235 -0.44959 -0.44959 -0.893235 18.2451 11.5173)" fill="#CBD5E1"/>
<rect width="11.3827" height="4.20524" rx="0.956938" transform="matrix(-4.37114e-08 1 1 4.37114e-08 9.33691 10.3367)" fill="#94A3B8"/>
</svg>
