<svg width="20" height="20" viewBox="0 0 20 20" fill="none" xmlns="http://www.w3.org/2000/svg">
<path d="M8.23997 8.39014C7.66997 8.39014 7.21997 8.89014 7.21997 9.50014C7.21997 10.1101 7.67997 10.6101 8.23997 10.6101C8.80997 10.6101 9.25997 10.1101 9.25997 9.50014C9.26997 8.89014 8.80997 8.39014 8.23997 8.39014ZM11.89 8.39014C11.32 8.39014 10.87 8.89014 10.87 9.50014C10.87 10.1101 11.33 10.6101 11.89 10.6101C12.46 10.6101 12.91 10.1101 12.91 9.50014C12.91 8.89014 12.46 8.39014 11.89 8.39014Z" fill="#94A3B8"/>
<path d="M16.75 0H3.35005C2.22005 0 1.30005 0.92 1.30005 2.06V15.58C1.30005 16.72 2.22005 17.64 3.35005 17.64H14.69L14.16 15.79L15.44 16.98L16.65 18.1L18.8 20V2.06C18.8 0.92 17.88 0 16.75 0ZM12.89 13.06C12.89 13.06 12.53 12.63 12.23 12.25C13.54 11.88 14.04 11.06 14.04 11.06C13.63 11.33 13.24 11.52 12.89 11.65C12.39 11.86 11.91 12 11.44 12.08C10.48 12.26 9.60005 12.21 8.85005 12.07C8.28005 11.96 7.79005 11.8 7.38005 11.64C7.15005 11.55 6.90005 11.44 6.65005 11.3C6.62005 11.28 6.59005 11.27 6.56005 11.25C6.54005 11.24 6.53005 11.23 6.52005 11.22C6.34005 11.12 6.24005 11.05 6.24005 11.05C6.24005 11.05 6.72005 11.85 7.99005 12.23C7.69005 12.61 7.32005 13.06 7.32005 13.06C5.11005 12.99 4.27005 11.54 4.27005 11.54C4.27005 8.32 5.71005 5.71 5.71005 5.71C7.15005 4.63 8.52005 4.66 8.52005 4.66L8.62005 4.78C6.82005 5.3 5.99005 6.09 5.99005 6.09C5.99005 6.09 6.21005 5.97 6.58005 5.8C7.65005 5.33 8.50005 5.2 8.85005 5.17C8.91005 5.16 8.96005 5.15 9.02005 5.15C9.63005 5.07 10.32 5.05 11.04 5.13C11.99 5.24 13.01 5.52 14.05 6.09C14.05 6.09 13.26 5.34 11.5601 4.82L11.7 4.66C11.7 4.66 13.07 4.63 14.51 5.71C14.51 5.71 15.95 8.32 15.95 11.54C15.95 11.54 15.1 12.99 12.89 13.06Z" fill="#94A3B8"/>
</svg>
