<svg width="20" height="20" viewBox="0 0 20 20" fill="none" xmlns="http://www.w3.org/2000/svg">
<g clip-path="url(#clip0_1704_339)">
<path fill-rule="evenodd" clip-rule="evenodd" d="M10.0001 0.416504C7.62614 0.417736 5.33001 1.25855 3.52229 2.78861C1.71457 4.31866 0.513151 6.43818 0.132852 8.76817C-0.247447 11.0982 0.218171 13.4867 1.44646 15.5067C2.67474 17.5266 4.5856 19.0463 6.83734 19.794C7.33411 19.8862 7.52123 19.5783 7.52123 19.3165C7.52123 19.0547 7.51129 18.2957 7.50798 17.4659C4.72606 18.0668 4.13822 16.2919 4.13822 16.2919C3.6845 15.1394 3.02876 14.8364 3.02876 14.8364C2.12133 14.2206 3.09666 14.2322 3.09666 14.2322C4.10179 14.303 4.63003 15.2579 4.63003 15.2579C5.5209 16.7776 6.96981 16.338 7.53944 16.0812C7.62886 15.4374 7.88884 14.9994 8.17531 14.7508C5.95309 14.5005 3.61826 13.6477 3.61826 9.83769C3.60449 8.84959 3.97325 7.89405 4.64824 7.16874C4.54557 6.91847 4.2028 5.90753 4.74593 4.53436C4.74593 4.53436 5.58548 4.26763 7.4964 5.55354C9.13545 5.10786 10.8648 5.10786 12.5038 5.55354C14.4131 4.26763 15.251 4.53436 15.251 4.53436C15.7958 5.90424 15.453 6.91518 15.3503 7.16874C16.0275 7.89416 16.397 8.85138 16.382 9.84098C16.382 13.6592 14.0422 14.5005 11.8166 14.7459C12.1743 15.0554 12.4939 15.6597 12.4939 16.5883C12.4939 17.9186 12.4823 18.9888 12.4823 19.3165C12.4823 19.5816 12.6628 19.8911 13.1695 19.794C15.4215 19.0462 17.3326 17.5263 18.5608 15.5059C19.7891 13.4856 20.2545 11.0968 19.8737 8.76655C19.493 6.43634 18.291 4.3168 16.4827 2.78701C14.6744 1.25722 12.3777 0.416955 10.0034 0.416504H10.0001Z" fill="#94A3B8"/>
</g>
<defs>
<clipPath id="clip0_1704_339">
<rect width="20" height="20" fill="white"/>
</clipPath>
</defs>
</svg>
