<svg width="20" height="20" viewBox="0 0 20 20" fill="none" xmlns="http://www.w3.org/2000/svg">
<path fill-rule="evenodd" clip-rule="evenodd" d="M10 0C4.47715 0 0 4.47715 0 10C0 15.5228 4.47715 20 10 20C15.5228 20 20 15.5228 20 10C20 4.47715 15.5228 0 10 0ZM12.7859 4.90906C12.9602 3.29587 11.9755 2.15721 9.83181 1.4931C7.96919 0.99401 6.62911 1.7677 5.81159 3.81418L5.53821 4.83444C5.17368 6.1949 5.82957 7.22117 7.5059 7.91326L7.23955 8.9073L4.91229 8.30054C4.30667 8.21677 3.95161 8.39081 3.84711 8.82264C3.67217 9.22439 3.77857 9.53889 4.16629 9.76615L5.17086 10.0353L6.2539 10.3255C7.35264 10.6199 8.9104 11.0429 10.9272 11.5946C11.4414 11.6426 11.7727 11.5575 11.9209 11.3393C12.0566 11.084 12.0834 10.8165 12.0014 10.5365C11.9222 10.2461 11.6562 10.0459 11.2034 9.93578C10.7221 9.8068 9.96482 9.59828 8.93167 9.31024L9.18898 8.34993C10.9396 8.4719 12.0095 7.80629 12.3989 6.35312L12.7859 4.90906ZM7.20705 5.44983L7.21103 4.74432C7.56713 3.41537 8.25792 2.88829 9.28341 3.16306L9.59733 3.24718C10.8097 3.66175 11.2757 4.39225 10.9953 5.43867C10.7738 6.26534 10.252 6.66388 9.42999 6.63428L8.4285 6.4164C7.82438 6.24331 7.41723 5.92112 7.20705 5.44983ZM15.0317 7.07539C15.2072 6.16911 15.0857 5.65989 14.6672 5.54774C14.1021 5.39633 13.7354 5.63455 13.5672 6.2624L12.0447 11.9445C11.9129 12.4363 12.0583 12.8565 12.4807 13.2053C12.5923 13.2912 12.7126 13.3235 12.8418 13.302C13.2054 13.2424 13.4517 12.972 13.5807 12.4906L14.22 10.1048L15.2088 10.3697C14.8696 11.6359 14.5922 12.5037 14.3767 12.9731C14.2225 13.5486 14.4279 13.9121 14.993 14.0635C15.1869 14.093 15.3332 14.0705 15.4316 13.996C15.6983 13.9216 16.137 12.6821 16.7477 10.2774L17.6183 7.02824C17.9353 6.30566 17.7899 5.88539 17.1822 5.76743C16.7741 5.65807 16.4486 5.95217 16.2056 6.64972L15.6252 8.81581C15.5747 9.00416 15.4658 9.07591 15.2984 9.03105L14.5606 8.83337L15.0317 7.07539ZM8.18281 11.4144C7.71958 11.3015 6.98849 11.1 5.98954 10.8099C5.40559 10.687 5.06473 10.9546 4.96694 11.6125C4.91252 12.1924 5.52297 12.6139 6.7983 12.8771L9.08267 13.4556L6.67061 14.6093C5.09772 15.1636 4.29305 15.5088 4.2566 15.6448C4.05828 16.3431 4.28734 16.7858 4.94378 16.9729C5.31283 17.0606 6.32894 16.7216 7.9921 15.956C8.2479 16.2152 9.01809 16.9824 10.3027 18.2575C10.4972 18.4105 10.7124 18.5074 10.9482 18.5482C11.1932 18.5129 11.4128 18.3418 11.6072 18.035C11.7148 17.8844 11.7252 17.6573 11.6384 17.3536C11.0586 16.6711 10.3345 15.8995 9.46598 15.0387L9.49963 14.9132C10.8694 14.4054 11.5967 13.9722 11.6816 13.6136C11.7719 13.4023 11.8129 13.2282 11.8047 13.0914C11.6894 12.6007 11.3949 12.2975 10.9213 12.1818L8.18281 11.4144Z" fill="#94A3B8"/>
</svg>
