<svg width="137" height="36" viewBox="0 0 137 36" fill="none" xmlns="http://www.w3.org/2000/svg">
<g clip-path="url(#clip0_1704_520)">
<g clip-path="url(#clip1_1704_520)">
<path fill-rule="evenodd" clip-rule="evenodd" d="M16 0C7.16344 0 0 7.16344 0 16C0 24.8366 7.16344 32 16 32C24.8366 32 32 24.8366 32 16C32 7.16344 24.8366 0 16 0ZM20.4574 7.85449C20.7362 5.27339 19.1608 3.45154 15.7309 2.38896C12.7507 1.59042 10.6066 2.82832 9.29854 6.10268L8.86114 7.7351C8.27788 9.91183 9.32732 11.5539 12.0094 12.6612L11.5833 14.2517L7.85966 13.2809C6.89067 13.1468 6.32257 13.4253 6.15538 14.1162C5.87548 14.759 6.04571 15.2622 6.66607 15.6258L8.27337 16.0565L10.0062 16.5208C11.7642 16.9919 14.2566 17.6687 17.4835 18.5513C18.3063 18.6282 18.8363 18.4921 19.0734 18.1429C19.2905 17.7345 19.3334 17.3063 19.2022 16.8584C19.0755 16.3938 18.6499 16.0734 17.9255 15.8972C17.1553 15.6909 15.9437 15.3573 14.2907 14.8964L14.7024 13.3599C17.5033 13.555 19.2153 12.4901 19.8383 10.165L20.4574 7.85449ZM11.5313 8.71973L11.5377 7.59092C12.1074 5.46459 13.2127 4.62126 14.8535 5.0609L15.3557 5.19549C17.2955 5.8588 18.0411 7.02759 17.5924 8.70187C17.238 10.0245 16.4032 10.6622 15.088 10.6148L13.4856 10.2662C12.519 9.9893 11.8676 9.4738 11.5313 8.71973ZM24.0507 11.3206C24.3316 9.87057 24.1372 9.05583 23.4675 8.87638C22.5633 8.63412 21.9767 9.01528 21.7075 10.0198L19.2715 19.1111C19.0607 19.898 19.2932 20.5705 19.9692 21.1284C20.1477 21.266 20.3402 21.3176 20.5468 21.2832C21.1286 21.1879 21.5227 20.7551 21.7291 19.985L22.752 16.1676L24.3341 16.5916C23.7913 18.6175 23.3475 20.0059 23.0027 20.7569C22.756 21.6778 23.0846 22.2593 23.9888 22.5016C24.2991 22.5488 24.5331 22.5128 24.6906 22.3935C25.1173 22.2746 25.8192 20.2913 26.7963 16.4438L28.1892 11.2452C28.6964 10.0891 28.4639 9.41662 27.4916 9.22788C26.8386 9.05292 26.3178 9.52348 25.929 10.6395L25.0003 14.1053C24.9196 14.4067 24.7453 14.5215 24.4774 14.4497L23.297 14.1334L24.0507 11.3206ZM13.0925 18.263C12.3513 18.0823 11.1816 17.7599 9.58326 17.2958C8.64895 17.0993 8.10357 17.5274 7.94711 18.5801C7.86003 19.5078 8.83675 20.1822 10.8773 20.6034L14.5323 21.5289L10.673 23.375C8.15636 24.2618 6.86889 24.8141 6.81057 25.0317C6.49325 26.149 6.85974 26.8573 7.91005 27.1567C8.50053 27.297 10.1263 26.7546 12.7874 25.5296C13.1966 25.9443 14.4289 27.1718 16.4843 29.2119C16.7955 29.4568 17.1398 29.6119 17.5171 29.6771C17.9091 29.6206 18.2605 29.3469 18.5715 28.856C18.7438 28.615 18.7604 28.2516 18.6214 27.7658C17.6937 26.6738 16.5351 25.4392 15.1456 24.062L15.1994 23.861C17.391 23.0486 18.5547 22.3555 18.6905 21.7818C18.835 21.4436 18.9006 21.1651 18.8875 20.9463C18.7031 20.1611 18.2319 19.676 17.474 19.4908L13.0925 18.263Z" fill="#33E364"/>
</g>
<path d="M40.8159 28.332C39.2076 28.332 38.0853 27.0409 38.3092 25.4483C38.533 23.8557 40.0182 22.5646 41.6264 22.5646H48.9495C49.3401 22.5646 49.6729 22.485 49.948 22.3258C50.2461 22.1665 50.4816 21.9617 50.6547 21.7115C50.8538 21.4385 50.9742 21.1541 51.0158 20.8583C51.0605 20.5398 51.0201 20.2554 50.8945 20.0052C50.795 19.7322 50.6186 19.516 50.3653 19.3568C50.1349 19.1975 49.8245 19.1179 49.4339 19.1179H46.3324C44.8391 19.1179 43.5235 18.8335 42.3858 18.2647C41.2481 17.696 40.3868 16.8769 39.8019 15.8077C39.2432 14.7156 39.0709 13.4074 39.2852 11.8831C39.4962 10.3816 40.0247 9.07342 40.8706 7.95864C41.7165 6.84385 42.7684 5.97932 44.0265 5.36505C45.2845 4.75078 46.6257 4.44364 48.0501 4.44364H56.1313C57.7396 4.44364 58.8619 5.7347 58.6381 7.3273C58.4142 8.9199 56.929 10.211 55.3208 10.211H48.2389C47.9173 10.211 47.6205 10.2792 47.3486 10.4157C47.0997 10.5522 46.8903 10.7342 46.7205 10.9617C46.5737 11.1892 46.4811 11.4395 46.4427 11.7125C46.4043 11.9855 46.4266 12.2358 46.5095 12.4633C46.6153 12.6908 46.772 12.8842 46.9793 13.0434C47.2129 13.1799 47.4904 13.2482 47.8121 13.2482H51.1549C52.786 13.2482 54.1673 13.5553 55.2986 14.1696C56.4331 14.7611 57.2583 15.5915 57.7743 16.6608C58.2903 17.7301 58.446 18.9928 58.2413 20.4488C58.0079 22.1096 57.452 23.5315 56.5735 24.7146C55.718 25.8976 54.6613 26.7963 53.4032 27.4105C52.1452 28.0248 50.804 28.332 49.3796 28.332H40.8159Z" fill="#F8FAFC"/>
<path d="M67.8031 35.2596C65.7571 35.2596 64.3293 33.6171 64.6141 31.591L64.6716 31.1815C64.9564 29.1554 66.8458 27.5129 68.8918 27.5129C70.9378 27.5129 72.3656 29.1554 72.0809 31.1815L72.0233 31.591C71.7386 33.6171 69.8491 35.2596 67.8031 35.2596ZM68.6971 28.7756C66.7903 28.7756 65.0759 28.4685 63.554 27.8542C62.0551 27.2399 60.7982 26.3754 59.7831 25.2606C58.7943 24.1231 58.0837 22.8035 57.6515 21.302C57.2192 19.8004 57.1278 18.1624 57.3772 16.3878C57.6266 14.6132 58.1785 12.9752 59.0328 11.4736C59.8903 9.94933 60.9717 8.62978 62.2771 7.515C63.6055 6.40021 65.1055 5.53568 66.777 4.92141C68.4716 4.30714 70.2723 4 72.1791 4C74.086 4 75.7889 4.30714 77.2878 4.92141C78.8097 5.53568 80.0666 6.40021 81.0587 7.515C82.0737 8.62978 82.7957 9.94933 83.2248 11.4736C83.657 12.9752 83.7485 14.6132 83.4991 16.3878C83.2497 18.1624 82.6978 19.8004 81.8435 21.302C80.9892 22.8035 79.8963 24.1231 78.5647 25.2606C77.2593 26.3754 75.7593 27.2399 74.0648 27.8542C72.3932 28.4685 70.604 28.7756 68.6971 28.7756ZM69.5317 22.8376C70.3817 22.8376 71.1737 22.6784 71.9077 22.3599C72.6449 22.0186 73.2963 21.5522 73.8619 20.9607C74.4275 20.3692 74.891 19.6867 75.2525 18.9131C75.6171 18.1169 75.8617 17.2751 75.9864 16.3878C76.1111 15.5005 76.1015 14.6701 75.9575 13.8966C75.8167 13.1003 75.5466 12.4064 75.1473 11.8149C74.748 11.2234 74.2261 10.7684 73.5816 10.4498C72.9403 10.1086 72.1947 9.93795 71.3446 9.93795C70.4946 9.93795 69.7009 10.1086 68.9637 10.4498C68.2297 10.7684 67.58 11.2234 67.0144 11.8149C66.4488 12.4064 65.9837 13.1003 65.619 13.8966C65.2576 14.6701 65.0145 15.5005 64.8898 16.3878C64.7651 17.2751 64.7732 18.1169 64.914 18.9131C65.058 19.6867 65.3297 20.3692 65.729 20.9607C66.1283 21.5522 66.6486 22.0186 67.2899 22.3599C67.9344 22.6784 68.6816 22.8376 69.5317 22.8376Z" fill="#F8FAFC"/>
<path d="M90.2174 28.7415C88.4254 28.7415 86.8371 28.3547 85.4525 27.5812C84.0908 26.8077 83.0595 25.727 82.3586 24.3392C81.6838 22.9286 81.4743 21.3133 81.7301 19.4933C81.9859 17.6732 82.6478 16.0693 83.7159 14.6815C84.8069 13.2937 86.1534 12.213 87.7555 11.4395C89.3607 10.6432 91.0594 10.2451 92.8514 10.2451C94.6434 10.2451 96.2186 10.6432 97.577 11.4395C98.9387 12.213 99.9585 13.2937 100.636 14.6815C101.314 16.0693 101.526 17.6732 101.27 19.4933C101.014 21.3133 100.35 22.9286 99.2792 24.3392C98.2111 25.727 96.876 26.8077 95.274 27.5812C93.6949 28.3547 92.0094 28.7415 90.2174 28.7415ZM91.0423 22.8718C91.6626 22.8718 92.2348 22.7239 92.7588 22.4281C93.2829 22.1324 93.7064 21.7342 94.0295 21.2337C94.3787 20.7104 94.5997 20.1189 94.6924 19.4592C94.7851 18.7994 94.7288 18.2192 94.5235 17.7187C94.3411 17.2182 94.0294 16.8201 93.5886 16.5243C93.1477 16.2285 92.6171 16.0807 91.9968 16.0807C91.3764 16.0807 90.8043 16.2285 90.2803 16.5243C89.7562 16.8201 89.3212 17.2182 88.9752 17.7187C88.6291 18.2192 88.4097 18.7994 88.317 19.4592C88.2243 20.1189 88.279 20.7104 88.4812 21.2337C88.6865 21.7342 89.0096 22.1324 89.4505 22.4281C89.8914 22.7239 90.422 22.8718 91.0423 22.8718Z" fill="#F8FAFC"/>
<path d="M108.608 28.7415C106.816 28.7415 105.228 28.3547 103.843 27.5812C102.482 26.8077 101.451 25.727 100.75 24.3392C100.075 22.9286 99.8653 21.3133 100.121 19.4933C100.377 17.6732 101.039 16.0693 102.107 14.6815C103.198 13.2937 104.544 12.213 106.147 11.4395C107.752 10.6432 109.45 10.2451 111.242 10.2451C113.034 10.2451 114.61 10.6432 115.968 11.4395C117.33 12.213 118.35 13.2937 119.028 14.6815C119.705 16.0693 119.917 17.6732 119.661 19.4933C119.405 21.3133 118.741 22.9286 117.67 24.3392C116.602 25.727 115.267 26.8077 113.665 27.5812C112.086 28.3547 110.4 28.7415 108.608 28.7415ZM109.433 22.8718C110.054 22.8718 110.626 22.7239 111.15 22.4281C111.674 22.1324 112.097 21.7342 112.42 21.2337C112.77 20.7104 112.991 20.1189 113.083 19.4592C113.176 18.7994 113.12 18.2192 112.914 17.7187C112.732 17.2182 112.42 16.8201 111.98 16.5243C111.539 16.2285 111.008 16.0807 110.388 16.0807C109.767 16.0807 109.195 16.2285 108.671 16.5243C108.147 16.8201 107.712 17.2182 107.366 17.7187C107.02 18.2192 106.801 18.7994 106.708 19.4592C106.615 20.1189 106.67 20.7104 106.872 21.2337C107.078 21.7342 107.401 22.1324 107.842 22.4281C108.282 22.7239 108.813 22.8718 109.433 22.8718Z" fill="#F8FAFC"/>
<path d="M125.713 28.332C124.082 28.332 122.705 27.9907 121.584 27.3082C120.462 26.6256 119.646 25.727 119.137 24.6122C118.63 23.4747 118.473 22.2234 118.665 20.8583L120.454 8.12927C120.74 6.09375 122.638 4.44364 124.694 4.44364C126.749 4.44364 128.184 6.09375 127.898 8.12927L126.099 20.9266C126.038 21.3588 126.133 21.7456 126.384 22.0869C126.661 22.4054 127.029 22.5646 127.488 22.5646H130.952C132.56 22.5646 133.682 23.8557 133.459 25.4483C133.235 27.0409 131.75 28.332 130.141 28.332H125.713Z" fill="#F8FAFC"/>
</g>
<defs>
<clipPath id="clip0_1704_520">
<rect width="137" height="36" fill="white"/>
</clipPath>
<clipPath id="clip1_1704_520">
<rect width="32" height="32" fill="white"/>
</clipPath>
</defs>
</svg>
