<svg width="137" height="36" viewBox="0 0 137 36" fill="none" xmlns="http://www.w3.org/2000/svg">
<g clip-path="url(#clip0_1704_261)">
<g clip-path="url(#clip1_1704_261)">
<path fill-rule="evenodd" clip-rule="evenodd" d="M16 0C7.16344 0 0 7.16344 0 16C0 24.8366 7.16344 32 16 32C24.8366 32 32 24.8366 32 16C32 7.16344 24.8366 0 16 0ZM20.4574 7.85449C20.7362 5.27339 19.1608 3.45154 15.7309 2.38896C12.7507 1.59042 10.6066 2.82832 9.29854 6.10268L8.86114 7.7351C8.27788 9.91183 9.32732 11.5539 12.0094 12.6612L11.5833 14.2517L7.85966 13.2809C6.89067 13.1468 6.32257 13.4253 6.15538 14.1162C5.87548 14.759 6.04571 15.2622 6.66607 15.6258L8.27337 16.0565L10.0062 16.5208C11.7642 16.9919 14.2566 17.6687 17.4835 18.5513C18.3063 18.6282 18.8363 18.4921 19.0734 18.1429C19.2905 17.7345 19.3334 17.3063 19.2022 16.8584C19.0755 16.3938 18.6499 16.0734 17.9255 15.8972C17.1553 15.6909 15.9437 15.3573 14.2907 14.8964L14.7024 13.3599C17.5033 13.555 19.2153 12.4901 19.8383 10.165L20.4574 7.85449ZM11.5313 8.71973L11.5377 7.59092C12.1074 5.46459 13.2127 4.62126 14.8535 5.0609L15.3557 5.19549C17.2955 5.8588 18.0411 7.02759 17.5924 8.70187C17.238 10.0245 16.4032 10.6622 15.088 10.6148L13.4856 10.2662C12.519 9.9893 11.8676 9.4738 11.5313 8.71973ZM24.0507 11.3206C24.3316 9.87057 24.1372 9.05583 23.4675 8.87638C22.5633 8.63412 21.9767 9.01528 21.7075 10.0198L19.2715 19.1111C19.0607 19.898 19.2932 20.5705 19.9692 21.1284C20.1477 21.266 20.3402 21.3176 20.5468 21.2832C21.1286 21.1879 21.5227 20.7551 21.7291 19.985L22.752 16.1676L24.3341 16.5916C23.7913 18.6175 23.3475 20.0059 23.0027 20.7569C22.756 21.6778 23.0846 22.2593 23.9888 22.5016C24.2991 22.5488 24.5331 22.5128 24.6906 22.3935C25.1173 22.2746 25.8192 20.2913 26.7963 16.4438L28.1892 11.2452C28.6964 10.0891 28.4639 9.41662 27.4916 9.22788C26.8386 9.05292 26.3178 9.52347 25.929 10.6395L25.0003 14.1053C24.9196 14.4067 24.7453 14.5215 24.4774 14.4497L23.297 14.1334L24.0507 11.3206ZM13.0925 18.263C12.3513 18.0823 11.1816 17.7599 9.58326 17.2958C8.64895 17.0993 8.10357 17.5274 7.94711 18.5801C7.86003 19.5078 8.83675 20.1822 10.8773 20.6034L14.5323 21.5289L10.673 23.375C8.15636 24.2618 6.86889 24.8141 6.81057 25.0317C6.49325 26.149 6.85974 26.8573 7.91005 27.1567C8.50053 27.297 10.1263 26.7546 12.7874 25.5296C13.1966 25.9443 14.4289 27.1718 16.4843 29.2119C16.7955 29.4568 17.1398 29.6119 17.5171 29.6771C17.9091 29.6206 18.2605 29.3469 18.5715 28.856C18.7438 28.615 18.7604 28.2516 18.6214 27.7658C17.6937 26.6738 16.5351 25.4392 15.1456 24.062L15.1994 23.861C17.391 23.0486 18.5547 22.3555 18.6905 21.7818C18.835 21.4436 18.9006 21.1651 18.8875 20.9463C18.7031 20.1611 18.2319 19.676 17.474 19.4908L13.0925 18.263Z" fill="#0CAD4D"/>
</g>
<path d="M40.8164 28.332C39.2081 28.332 38.0858 27.0409 38.3097 25.4483C38.5335 23.8557 40.0187 22.5646 41.6269 22.5646H48.95C49.3406 22.5646 49.6734 22.485 49.9485 22.3258C50.2466 22.1665 50.4821 21.9617 50.6551 21.7115C50.8543 21.4385 50.9747 21.1541 51.0163 20.8583C51.061 20.5398 51.0206 20.2554 50.8949 20.0052C50.7955 19.7322 50.6191 19.516 50.3658 19.3568C50.1354 19.1975 49.825 19.1179 49.4344 19.1179H46.3329C44.8395 19.1179 43.524 18.8335 42.3863 18.2647C41.2486 17.696 40.3873 16.8769 39.8024 15.8077C39.2437 14.7156 39.0714 13.4074 39.2857 11.8831C39.4967 10.3816 40.0251 9.07342 40.8711 7.95864C41.717 6.84385 42.7689 5.97932 44.0269 5.36505C45.285 4.75078 46.6262 4.44364 48.0506 4.44364H56.1318C57.7401 4.44364 58.8624 5.7347 58.6386 7.3273C58.4147 8.9199 56.9295 10.211 55.3213 10.211H48.2394C47.9178 10.211 47.621 10.2792 47.3491 10.4157C47.1002 10.5522 46.8908 10.7342 46.721 10.9617C46.5741 11.1892 46.4815 11.4395 46.4432 11.7125C46.4048 11.9855 46.4271 12.2358 46.51 12.4633C46.6158 12.6908 46.7725 12.8842 46.9798 13.0434C47.2133 13.1799 47.4909 13.2482 47.8126 13.2482H51.1553C52.7865 13.2482 54.1678 13.5553 55.2991 14.1696C56.4336 14.7611 57.2588 15.5915 57.7748 16.6608C58.2908 17.7301 58.4465 18.9928 58.2418 20.4488C58.0084 22.1096 57.4525 23.5315 56.574 24.7146C55.7185 25.8976 54.6617 26.7963 53.4037 27.4105C52.1457 28.0248 50.8045 28.332 49.3801 28.332H40.8164Z" fill="#334155"/>
<path d="M67.8036 35.2596C65.7576 35.2596 64.3298 33.6171 64.6146 31.591L64.6721 31.1815C64.9569 29.1554 66.8463 27.5129 68.8923 27.5129C70.9383 27.5129 72.3661 29.1554 72.0814 31.1815L72.0238 31.591C71.7391 33.6171 69.8496 35.2596 67.8036 35.2596ZM68.6976 28.7756C66.7908 28.7756 65.0764 28.4685 63.5545 27.8542C62.0556 27.2399 60.7987 26.3754 59.7836 25.2606C58.7948 24.1231 58.0842 22.8035 57.652 21.302C57.2197 19.8004 57.1283 18.1624 57.3777 16.3878C57.6271 14.6132 58.179 12.9752 59.0333 11.4736C59.8908 9.94933 60.9722 8.62978 62.2776 7.515C63.606 6.40021 65.1059 5.53568 66.7775 4.92141C68.472 4.30714 70.2727 4 72.1796 4C74.0865 4 75.7894 4.30714 77.2883 4.92141C78.8102 5.53568 80.0671 6.40021 81.0592 7.515C82.0742 8.62978 82.7962 9.94933 83.2253 11.4736C83.6575 12.9752 83.7489 14.6132 83.4996 16.3878C83.2502 18.1624 82.6983 19.8004 81.844 21.302C80.9897 22.8035 79.8967 24.1231 78.5652 25.2606C77.2598 26.3754 75.7598 27.2399 74.0653 27.8542C72.3937 28.4685 70.6045 28.7756 68.6976 28.7756ZM69.5322 22.8376C70.3822 22.8376 71.1742 22.6784 71.9082 22.3599C72.6454 22.0186 73.2968 21.5522 73.8624 20.9607C74.428 20.3692 74.8915 19.6867 75.2529 18.9131C75.6176 18.1169 75.8622 17.2751 75.9869 16.3878C76.1116 15.5005 76.102 14.6701 75.958 13.8966C75.8172 13.1003 75.5471 12.4064 75.1478 11.8149C74.7484 11.2234 74.2265 10.7684 73.5821 10.4498C72.9408 10.1086 72.1951 9.93795 71.3451 9.93795C70.495 9.93795 69.7014 10.1086 68.9642 10.4498C68.2302 10.7684 67.5804 11.2234 67.0148 11.8149C66.4493 12.4064 65.9841 13.1003 65.6195 13.8966C65.2581 14.6701 65.015 15.5005 64.8903 16.3878C64.7656 17.2751 64.7737 18.1169 64.9145 18.9131C65.0585 19.6867 65.3302 20.3692 65.7295 20.9607C66.1288 21.5522 66.6491 22.0186 67.2904 22.3599C67.9349 22.6784 68.6821 22.8376 69.5322 22.8376Z" fill="#334155"/>
<path d="M90.2179 28.7415C88.4259 28.7415 86.8376 28.3547 85.4529 27.5812C84.0913 26.8077 83.06 25.727 82.359 24.3392C81.6843 22.9286 81.4748 21.3133 81.7306 19.4933C81.9863 17.6732 82.6483 16.0693 83.7163 14.6815C84.8074 13.2937 86.1539 12.213 87.756 11.4395C89.3612 10.6432 91.0598 10.2451 92.8518 10.2451C94.6438 10.2451 96.2191 10.6432 97.5775 11.4395C98.9392 12.213 99.959 13.2937 100.637 14.6815C101.315 16.0693 101.526 17.6732 101.27 19.4933C101.014 21.3133 100.351 22.9286 99.2797 24.3392C98.2116 25.727 96.8765 26.8077 95.2745 27.5812C93.6954 28.3547 92.0099 28.7415 90.2179 28.7415ZM91.0428 22.8718C91.6631 22.8718 92.2353 22.7239 92.7593 22.4281C93.2833 22.1324 93.7069 21.7342 94.03 21.2337C94.3792 20.7104 94.6002 20.1189 94.6929 19.4592C94.7856 18.7994 94.7293 18.2192 94.524 17.7187C94.3416 17.2182 94.0299 16.8201 93.589 16.5243C93.1482 16.2285 92.6175 16.0807 91.9972 16.0807C91.3769 16.0807 90.8048 16.2285 90.2807 16.5243C89.7567 16.8201 89.3217 17.2182 88.9756 17.7187C88.6296 18.2192 88.4102 18.7994 88.3175 19.4592C88.2248 20.1189 88.2795 20.7104 88.4816 21.2337C88.687 21.7342 89.0101 22.1324 89.451 22.4281C89.8919 22.7239 90.4225 22.8718 91.0428 22.8718Z" fill="#334155"/>
<path d="M108.609 28.7415C106.817 28.7415 105.229 28.3547 103.844 27.5812C102.482 26.8077 101.451 25.727 100.75 24.3392C100.075 22.9286 99.8658 21.3133 100.122 19.4933C100.377 17.6732 101.039 16.0693 102.107 14.6815C103.198 13.2937 104.545 12.213 106.147 11.4395C107.752 10.6432 109.451 10.2451 111.243 10.2451C113.035 10.2451 114.61 10.6432 115.969 11.4395C117.33 12.213 118.35 13.2937 119.028 14.6815C119.706 16.0693 119.917 17.6732 119.661 19.4933C119.405 21.3133 118.742 22.9286 117.671 24.3392C116.603 25.727 115.268 26.8077 113.666 27.5812C112.086 28.3547 110.401 28.7415 108.609 28.7415ZM109.434 22.8718C110.054 22.8718 110.626 22.7239 111.15 22.4281C111.674 22.1324 112.098 21.7342 112.421 21.2337C112.77 20.7104 112.991 20.1189 113.084 19.4592C113.177 18.7994 113.12 18.2192 112.915 17.7187C112.733 17.2182 112.421 16.8201 111.98 16.5243C111.539 16.2285 111.009 16.0807 110.388 16.0807C109.768 16.0807 109.196 16.2285 108.672 16.5243C108.148 16.8201 107.713 17.2182 107.367 17.7187C107.021 18.2192 106.801 18.7994 106.709 19.4592C106.616 20.1189 106.671 20.7104 106.873 21.2337C107.078 21.7342 107.401 22.1324 107.842 22.4281C108.283 22.7239 108.814 22.8718 109.434 22.8718Z" fill="#334155"/>
<path d="M125.713 28.332C124.082 28.332 122.706 27.9907 121.584 27.3082C120.462 26.6256 119.647 25.727 119.137 24.6122C118.631 23.4747 118.474 22.2234 118.665 20.8583L120.454 8.12927C120.74 6.09375 122.639 4.44364 124.694 4.44364C126.75 4.44364 128.184 6.09375 127.898 8.12927L126.099 20.9266C126.039 21.3588 126.134 21.7456 126.384 22.0869C126.661 22.4054 127.029 22.5646 127.489 22.5646H130.952C132.561 22.5646 133.683 23.8557 133.459 25.4483C133.235 27.0409 131.75 28.332 130.142 28.332H125.713Z" fill="#334155"/>
</g>
<defs>
<clipPath id="clip0_1704_261">
<rect width="137" height="36" fill="white"/>
</clipPath>
<clipPath id="clip1_1704_261">
<rect width="32" height="32" fill="white"/>
</clipPath>
</defs>
</svg>
