<svg width="117" height="24" viewBox="0 0 117 24" fill="none" xmlns="http://www.w3.org/2000/svg">
<g clip-path="url(#clip0_1704_326)">
<g clip-path="url(#clip1_1704_326)">
<path fill-rule="evenodd" clip-rule="evenodd" d="M12 0C5.37258 0 0 5.37258 0 12C0 18.6274 5.37258 24 12 24C18.6274 24 24 18.6274 24 12C24 5.37258 18.6274 0 12 0ZM15.343 5.89087C15.5522 3.95504 14.3706 2.58866 11.7982 1.79172C9.56302 1.19281 7.95493 2.12124 6.97391 4.57701L6.64585 5.80132C6.20841 7.43388 6.99549 8.66541 9.00708 9.49592L8.68746 10.6888L5.89475 9.96065C5.168 9.86013 4.74193 10.069 4.61654 10.5872C4.40661 11.0693 4.53428 11.4467 4.99955 11.7194L6.20503 12.0424L7.50468 12.3906C8.82317 12.7439 10.6925 13.2515 13.1126 13.9135C13.7297 13.9711 14.1272 13.869 14.305 13.6071C14.4679 13.3008 14.5001 12.9797 14.4017 12.6438C14.3066 12.2954 13.9874 12.0551 13.4441 11.9229C12.8665 11.7682 11.9578 11.5179 10.718 11.1723L11.0268 10.0199C13.1275 10.1663 14.4115 9.36755 14.8787 7.62374L15.343 5.89087ZM8.64846 6.5398L8.65324 5.69319C9.08055 4.09845 9.9095 3.46594 11.1401 3.79568L11.5168 3.89662C12.9716 4.3941 13.5308 5.2707 13.1943 6.5264C12.9285 7.51841 12.3024 7.99665 11.316 7.96114L10.1142 7.69969C9.38926 7.49198 8.90068 7.10535 8.64846 6.5398ZM18.038 8.49047C18.2487 7.40293 18.1029 6.79187 17.6006 6.65728C16.9225 6.47559 16.4825 6.76146 16.2806 7.51488L14.4536 14.3334C14.2955 14.9235 14.4699 15.4279 14.9769 15.8463C15.1107 15.9495 15.2552 15.9882 15.4101 15.9624C15.8465 15.8909 16.1421 15.5664 16.2968 14.9887L17.064 12.1257L18.2506 12.4437C17.8435 13.9631 17.5106 15.0044 17.252 15.5677C17.067 16.2583 17.3135 16.6945 17.9916 16.8762C18.2243 16.9116 18.3998 16.8846 18.518 16.7952C18.838 16.7059 19.3644 15.2185 20.0972 12.3328L21.1419 8.43389C21.5223 7.56679 21.3479 7.06247 20.6187 6.92091C20.129 6.78969 19.7383 7.14261 19.4467 7.97966L18.7503 10.579C18.6897 10.805 18.559 10.8911 18.358 10.8373L17.4728 10.6L18.038 8.49047ZM9.81938 13.6972C9.2635 13.5618 8.38619 13.3199 7.18744 12.9718C6.48671 12.8244 6.07768 13.1455 5.96033 13.935C5.89502 14.6309 6.62756 15.1367 8.15796 15.4525L10.8992 16.1467L8.00474 17.5312C6.11727 18.1964 5.15166 18.6106 5.10792 18.7738C4.86994 19.6118 5.14481 20.143 5.93253 20.3675C6.3754 20.4727 7.59472 20.066 9.59052 19.1472C9.89748 19.4583 10.8217 20.3788 12.3632 21.9089C12.5966 22.0926 12.8548 22.2089 13.1378 22.2578C13.4318 22.2155 13.6954 22.0102 13.9286 21.642C14.0578 21.4613 14.0703 21.1887 13.966 20.8243C13.2703 20.0054 12.4013 19.0794 11.3592 18.0465L11.3996 17.8958C13.0433 17.2864 13.9161 16.7666 14.0179 16.3363C14.1262 16.0827 14.1755 15.8738 14.1656 15.7097C14.0273 15.1208 13.6739 14.757 13.1055 14.6181L9.81938 13.6972Z" fill="#94A3B8"/>
</g>
<g clip-path="url(#clip2_1704_326)">
<path d="M35.3349 22.5C33.7284 22.5 32.3389 22.1662 31.1664 21.4986C30.0155 20.8114 29.1679 19.8492 28.6235 18.6122C28.0819 17.3555 27.9312 15.8731 28.1713 14.1648L29.5388 4.43382C29.7666 2.81352 31.2776 1.5 32.9138 1.5C34.5501 1.5 35.6919 2.81352 35.4642 4.43382L34.0966 14.1648C34.0138 14.7539 34.0365 15.2644 34.1648 15.6963C34.312 16.1283 34.5472 16.4719 34.8705 16.7272C35.1965 16.9628 35.6052 17.0806 36.0966 17.0806C36.588 17.0806 37.0298 16.9628 37.422 16.7272C37.817 16.4719 38.1394 16.1283 38.3891 15.6963C38.6577 15.2644 38.8334 14.7539 38.9162 14.1648L40.2798 4.4619C40.5097 2.82609 42.0352 1.5 43.6871 1.5C45.339 1.5 46.4918 2.82609 46.2619 4.4619L44.8982 14.1648C44.8154 14.7539 44.8382 15.2644 44.9665 15.6963C45.0948 16.1283 45.3205 16.4719 45.6438 16.7272C45.9887 16.9628 46.4068 17.0806 46.8982 17.0806C47.3896 17.0806 47.8315 16.9628 48.2237 16.7272C48.6187 16.4719 48.941 16.1283 49.1907 15.6963C49.4593 15.2644 49.6351 14.7539 49.7178 14.1648L51.0874 4.41979C51.314 2.80723 52.8178 1.5 54.4462 1.5C56.0746 1.5 57.211 2.80723 56.9844 4.41978L55.6148 14.1648C55.3747 15.8731 54.8073 17.3555 53.9124 18.6122C53.0393 19.8492 51.9307 20.8114 50.5866 21.4986C49.2454 22.1662 47.762 22.5 46.1366 22.5C45.3995 22.5 44.7112 22.4215 44.0717 22.2644C43.4512 22.1073 42.8781 21.8815 42.3525 21.587C41.4993 21.091 40.326 21.0666 39.3393 21.5765C39.3325 21.58 39.3257 21.5835 39.319 21.587C38.7295 21.8815 38.1024 22.1073 37.4377 22.2644C36.773 22.4215 36.0721 22.5 35.3349 22.5Z" fill="#94A3B8"/>
<path d="M58.6771 22.3765C57.28 22.3765 56.305 21.2549 56.4994 19.8713L56.6244 18.9819C56.7498 18.0895 57.582 17.3661 58.4831 17.3661C59.3843 17.3661 60.2164 16.6427 60.3419 15.7504L61.396 8.24965C61.5214 7.35729 60.8926 6.63389 59.9914 6.63389C59.0903 6.63389 58.4615 5.91049 58.5869 5.01812L58.7119 4.12871C58.9063 2.74514 60.1966 1.62354 61.5938 1.62354L69.5574 1.62354C70.9545 1.62354 71.9295 2.74514 71.7351 4.12871L71.6122 5.0033C71.4856 5.90385 70.6458 6.63389 69.7364 6.63389C68.827 6.63389 67.9872 7.36393 67.8606 8.26448L66.8106 15.7355C66.6841 16.6361 67.3187 17.3661 68.2281 17.3661C69.1375 17.3661 69.7721 18.0962 69.6455 18.9967L69.5226 19.8713C69.3282 21.2549 68.0379 22.3765 66.6407 22.3765L58.6771 22.3765Z" fill="#94A3B8"/>
<path d="M74.3783 22.5C72.9645 22.5 71.9779 21.365 72.1747 19.965C72.3714 18.565 73.6771 17.43 75.0909 17.43L83.2973 17.43C83.7081 17.43 84.0563 17.36 84.3418 17.22C84.6515 17.08 84.8943 16.9 85.0702 16.68C85.2731 16.44 85.3928 16.19 85.4293 15.93C85.4687 15.65 85.4192 15.4 85.281 15.18C85.1697 14.94 84.9789 14.75 84.7086 14.61C84.4624 14.47 84.1339 14.4 83.7231 14.4L80.4606 14.4C78.8897 14.4 77.499 14.15 76.2885 13.65C75.0779 13.15 74.152 12.43 73.5108 11.49C72.8965 10.53 72.6836 9.38 72.8719 8.04C73.0574 6.72 73.5815 5.57 74.4443 4.59C75.307 3.61 76.3926 2.85 77.701 2.31C79.0094 1.77 80.4127 1.5 81.9111 1.5L90.915 1.5C92.3288 1.5 93.3154 2.63496 93.1186 4.035C92.9219 5.43504 91.6162 6.57 90.2024 6.57L82.2498 6.57C81.9114 6.57 81.6009 6.63 81.3182 6.75C81.0597 6.87 80.8439 7.03 80.6708 7.23C80.5218 7.43 80.4305 7.65 80.3968 7.89C80.363 8.13 80.3925 8.35 80.4852 8.55C80.6021 8.75 80.7716 8.92 80.9936 9.06C81.2425 9.18 81.5362 9.24 81.8745 9.24L85.3908 9.24C87.1067 9.24 88.567 9.51 89.772 10.05C90.9798 10.57 91.868 11.3 92.4367 12.24C93.0055 13.18 93.1999 14.29 93.02 15.57C92.8148 17.03 92.2645 18.28 91.3692 19.32C90.498 20.36 89.4083 21.15 88.0999 21.69C86.7915 22.23 85.3881 22.5 83.8897 22.5L74.3783 22.5Z" fill="#94A3B8"/>
<path d="M101.652 22.5C100.195 22.5 98.8968 22.24 97.7561 21.72C96.6397 21.2 95.7927 20.49 95.2152 19.59C94.6406 18.67 94.4375 17.61 94.6062 16.41C94.7383 15.47 95.1169 14.59 95.7419 13.77C95.8153 13.6754 95.8909 13.5827 95.9688 13.4916C96.8476 12.464 97.1018 10.8357 96.5575 9.78C96.1788 9.02 96.0457 8.24 96.1582 7.44C96.324 6.26 96.8086 5.23 97.612 4.35C98.4425 3.45 99.4754 2.75 100.711 2.25C101.971 1.75 103.305 1.5 104.712 1.5L113.477 1.5C114.891 1.5 115.877 2.63496 115.681 4.035C115.484 5.43504 114.178 6.57 112.764 6.57L105.748 6.57C105.359 6.57 104.999 6.63 104.666 6.75C104.337 6.85 104.059 7.01 103.834 7.23C103.636 7.43 103.515 7.69 103.47 8.01C103.428 8.31 103.476 8.57 103.615 8.79C103.781 8.99 104.014 9.15 104.312 9.27C104.614 9.37 104.959 9.42 105.347 9.42L111.105 9.42C112.51 9.42 113.491 10.5482 113.295 11.94C113.1 13.3318 111.802 14.46 110.396 14.46L104.675 14.46C104.263 14.46 103.89 14.52 103.558 14.64C103.225 14.76 102.946 14.93 102.721 15.15C102.52 15.37 102.398 15.64 102.353 15.96C102.31 16.26 102.359 16.52 102.498 16.74C102.661 16.96 102.892 17.13 103.191 17.25C103.492 17.35 103.849 17.4 104.262 17.4L111.227 17.4C112.649 17.4 113.642 18.5417 113.444 19.95C113.246 21.3583 111.933 22.5 110.51 22.5L101.652 22.5Z" fill="#94A3B8"/>
</g>
</g>
<defs>
<clipPath id="clip0_1704_326">
<rect width="116.037" height="24" fill="white"/>
</clipPath>
<clipPath id="clip1_1704_326">
<rect width="24" height="24" fill="white"/>
</clipPath>
<clipPath id="clip2_1704_326">
<rect width="89.0368" height="21" fill="white" transform="translate(27 1.5)"/>
</clipPath>
</defs>
</svg>
