<svg width="128" height="34" viewBox="0 0 128 34" fill="none" xmlns="http://www.w3.org/2000/svg">
<g clip-path="url(#clip0_1722_2359)">
<g clip-path="url(#clip1_1722_2359)">
<path d="M44.2147 27.2905C42.8075 27.2905 41.8255 26.1608 42.0213 24.7673V24.7673C42.2172 23.3737 43.5167 22.2441 44.9239 22.2441H51.3316C51.6734 22.2441 51.9646 22.1744 52.2053 22.035C52.4661 21.8957 52.6722 21.7165 52.8236 21.4975C52.9979 21.2587 53.1032 21.0098 53.1396 20.751C53.1788 20.4723 53.1434 20.2235 53.0334 20.0045C52.9464 19.7656 52.7921 19.5765 52.5704 19.4372C52.3689 19.2978 52.0972 19.2282 51.7555 19.2282H49.0416C47.735 19.2282 46.5839 18.9793 45.5884 18.4816C44.5929 17.984 43.8393 17.2673 43.3275 16.3317C42.8386 15.3762 42.6879 14.2315 42.8753 12.8978C43.06 11.5839 43.5224 10.4392 44.2625 9.46381C45.0027 8.48837 45.9232 7.7319 47.0239 7.19442C48.1247 6.65693 49.2983 6.38819 50.5446 6.38819H57.6157C59.0229 6.38819 60.0049 7.51786 59.8091 8.91139V8.91139C59.6133 10.3049 58.3137 11.4346 56.9065 11.4346H50.7099C50.4284 11.4346 50.1688 11.4943 49.9308 11.6138C49.713 11.7332 49.5298 11.8925 49.3812 12.0915C49.2527 12.2906 49.1717 12.5096 49.1381 12.7484C49.1046 12.9873 49.124 13.2063 49.1966 13.4054C49.2892 13.6044 49.4263 13.7737 49.6077 13.913C49.812 14.0324 50.0549 14.0922 50.3364 14.0922H53.2613C54.6886 14.0922 55.8972 14.3609 56.8871 14.8984C57.8798 15.416 58.6018 16.1426 59.0533 17.0782C59.5048 18.0138 59.641 19.1187 59.462 20.3927C59.2577 21.8459 58.7713 23.0901 58.0026 24.1253C57.2541 25.1604 56.3294 25.9467 55.2286 26.4842C54.1279 27.0217 52.9543 27.2905 51.7079 27.2905H44.2147Z" fill="#F8FAFC"/>
<path d="M67.8285 33.3521C66.0383 33.3521 64.789 31.915 65.0381 30.1421L65.0885 29.7838C65.3376 28.011 66.9909 26.5738 68.7811 26.5738V26.5738C70.5714 26.5738 71.8207 28.011 71.5716 29.7838L71.5212 30.1421C71.272 31.915 69.6188 33.3521 67.8285 33.3521V33.3521ZM68.6108 27.6786C66.9423 27.6786 65.4422 27.4099 64.1106 26.8724C62.799 26.3349 61.6992 25.5785 60.811 24.603C59.9458 23.6077 59.3241 22.4531 58.9459 21.1392C58.5676 19.8254 58.4876 18.3921 58.7059 16.8393C58.9241 15.2866 59.407 13.8533 60.1545 12.5394C60.9048 11.2057 61.8511 10.0511 62.9933 9.07562C64.1556 8.10018 65.4681 7.34372 66.9307 6.80623C68.4134 6.26874 69.989 6 71.6575 6C73.326 6 74.8161 6.26874 76.1276 6.80623C77.4593 7.34372 78.5591 8.10018 79.4271 9.07562C80.3153 10.0511 80.9471 11.2057 81.3225 12.5394C81.7007 13.8533 81.7807 15.2866 81.5625 16.8393C81.3443 18.3921 80.8614 19.8254 80.1139 21.1392C79.3663 22.4531 78.41 23.6077 77.2449 24.603C76.1027 25.5785 74.7902 26.3349 73.3075 26.8724C71.8449 27.4099 70.2793 27.6786 68.6108 27.6786ZM69.341 22.4829C70.0848 22.4829 70.7778 22.3436 71.4201 22.0649C72.0651 21.7663 72.6351 21.3582 73.13 20.8406C73.6249 20.323 74.0304 19.7258 74.3467 19.049C74.6657 18.3523 74.8798 17.6157 74.9889 16.8393C75.098 16.063 75.0896 15.3364 74.9636 14.6595C74.8404 13.9628 74.6041 13.3556 74.2547 12.838C73.9053 12.3204 73.4486 11.9223 72.8847 11.6436C72.3236 11.345 71.6711 11.1957 70.9273 11.1957C70.1835 11.1957 69.4891 11.345 68.8441 11.6436C68.2018 11.9223 67.6333 12.3204 67.1384 12.838C66.6435 13.3556 66.2365 13.9628 65.9174 14.6595C65.6012 15.3364 65.3885 16.063 65.2794 16.8393C65.1703 17.6157 65.1773 18.3523 65.3005 19.049C65.4265 19.7258 65.6643 20.323 66.0137 20.8406C66.3631 21.3582 66.8183 21.7663 67.3795 22.0649C67.9434 22.3436 68.5972 22.4829 69.341 22.4829Z" fill="#F8FAFC"/>
<path d="M87.441 27.6488C85.873 27.6488 84.4832 27.3104 83.2717 26.6335C82.0803 25.9567 81.1779 25.0111 80.5645 23.7968C79.9741 22.5626 79.7908 21.1492 80.0146 19.5566C80.2384 17.9641 80.8176 16.5606 81.7522 15.3463C82.7068 14.132 83.8851 13.1864 85.2868 12.5096C86.6914 11.8128 88.1777 11.4645 89.7457 11.4645C91.3137 11.4645 92.692 11.8128 93.8807 12.5096C95.0721 13.1864 95.9645 14.132 96.5577 15.3463C97.1509 16.5606 97.3357 17.9641 97.1118 19.5566C96.888 21.1492 96.3074 22.5626 95.3701 23.7968C94.4355 25.0111 93.2673 25.9567 91.8655 26.6335C90.4839 27.3104 89.009 27.6488 87.441 27.6488ZM88.1628 22.5128C88.7056 22.5128 89.2062 22.3834 89.6648 22.1246C90.1233 21.8658 90.4939 21.5175 90.7766 21.0795C91.0822 20.6216 91.2755 20.1041 91.3566 19.5268C91.4378 18.9495 91.3885 18.4418 91.2088 18.0039C91.0492 17.5659 90.7766 17.2176 90.3908 16.9588C90.005 16.7 89.5407 16.5706 88.998 16.5706C88.4552 16.5706 87.9545 16.7 87.496 16.9588C87.0375 17.2176 86.6568 17.5659 86.3541 18.0039C86.0513 18.4418 85.8593 18.9495 85.7782 19.5268C85.697 20.1041 85.7449 20.6216 85.9218 21.0795C86.1015 21.5175 86.3842 21.8658 86.77 22.1246C87.1558 22.3834 87.6201 22.5128 88.1628 22.5128Z" fill="#F8FAFC"/>
<path d="M103.533 27.6488C101.965 27.6488 100.575 27.3104 99.3638 26.6335C98.1724 25.9567 97.27 25.0111 96.6567 23.7968C96.0662 22.5626 95.8829 21.1492 96.1067 19.5566C96.3306 17.9641 96.9098 16.5606 97.8443 15.3463C98.799 14.132 99.9772 13.1864 101.379 12.5096C102.784 11.8128 104.27 11.4645 105.838 11.4645C107.406 11.4645 108.784 11.8128 109.973 12.5096C111.164 13.1864 112.057 14.132 112.65 15.3463C113.243 16.5606 113.428 17.9641 113.204 19.5566C112.98 21.1492 112.4 22.5626 111.462 23.7968C110.528 25.0111 109.359 25.9567 107.958 26.6335C106.576 27.3104 105.101 27.6488 103.533 27.6488ZM104.255 22.5128C104.798 22.5128 105.298 22.3834 105.757 22.1246C106.215 21.8658 106.586 21.5175 106.869 21.0795C107.174 20.6216 107.368 20.1041 107.449 19.5268C107.53 18.9495 107.481 18.4418 107.301 18.0039C107.141 17.5659 106.869 17.2176 106.483 16.9588C106.097 16.7 105.633 16.5706 105.09 16.5706C104.547 16.5706 104.047 16.7 103.588 16.9588C103.13 17.2176 102.749 17.5659 102.446 18.0039C102.143 18.4418 101.951 18.9495 101.87 19.5268C101.789 20.1041 101.837 20.6216 102.014 21.0795C102.194 21.5175 102.476 21.8658 102.862 22.1246C103.248 22.3834 103.712 22.5128 104.255 22.5128Z" fill="#F8FAFC"/>
<path d="M118.5 27.2905C117.072 27.2905 115.868 26.9919 114.886 26.3947C113.905 25.7974 113.191 25.0111 112.745 24.0357C112.302 23.0403 112.165 21.9455 112.333 20.751L113.898 9.61311C114.148 7.83203 115.809 6.38819 117.608 6.38819V6.38819C119.406 6.38819 120.661 7.83203 120.411 9.61311L118.837 20.8108C118.784 21.189 118.867 21.5274 119.087 21.826C119.329 22.1047 119.651 22.2441 120.053 22.2441H123.084C124.491 22.2441 125.473 23.3737 125.277 24.7673V24.7673C125.081 26.1608 123.782 27.2905 122.374 27.2905H118.5Z" fill="#F8FAFC"/>
</g>
<rect width="15.177" height="5.60699" rx="1.27592" transform="matrix(0.893235 -0.44959 -0.44959 -0.893235 5.1875 25.1313)" fill="#94A3B8"/>
<rect x="14.1182" y="13.2996" width="15.177" height="5.60699" rx="1.27592" transform="rotate(26.7174 14.1182 13.2996)" fill="#94A3B8"/>
<rect x="12.4492" y="19.177" width="15.177" height="5.60699" rx="1.27592" transform="rotate(-90 12.4492 19.177)" fill="#94A3B8"/>
<rect x="5.1875" y="8.67847" width="15.177" height="5.60699" rx="1.27592" transform="rotate(26.7174 5.1875 8.67847)" fill="#AA55FF"/>
<rect width="10.1473" height="5.60699" rx="0.850612" transform="matrix(0.893235 -0.44959 -0.44959 -0.893235 14.1182 20.5103)" fill="#AA55FF"/>
<rect width="5.60553" height="5.60699" rx="0.850612" transform="matrix(0.893235 -0.44959 -0.44959 -0.893235 24.3271 15.3563)" fill="#33E364"/>
<rect width="15.177" height="5.60699" rx="1.27592" transform="matrix(-4.37114e-08 1 1 4.37114e-08 12.4492 13.7822)" fill="#AA55FF"/>
</g>
<defs>
<clipPath id="clip0_1722_2359">
<rect width="128" height="34" fill="white"/>
</clipPath>
<clipPath id="clip1_1722_2359">
<rect width="87.914" height="28" fill="white" transform="translate(40 6)"/>
</clipPath>
</defs>
</svg>
