<svg width="160" height="160" viewBox="0 0 160 160" fill="none" xmlns="http://www.w3.org/2000/svg">
<mask id="mask0_1725_1506" style="mask-type:alpha" maskUnits="userSpaceOnUse" x="0" y="0" width="160" height="160">
<ellipse cx="79.7383" cy="79.7377" rx="79.7378" ry="79.7377" fill="#D9D9D9"/>
</mask>
<g mask="url(#mask0_1725_1506)">
<path d="M123.451 145.569C123.085 145.83 122.667 146.092 122.301 146.353C121.883 146.614 121.517 146.876 121.099 147.085C120.733 147.294 120.419 147.503 120.053 147.713C120 147.765 119.948 147.765 119.896 147.817C118.693 148.549 117.438 149.229 116.183 149.856C115.817 150.065 115.399 150.275 115.033 150.431C115.033 150.431 114.981 150.484 114.929 150.484C114.51 150.693 114.092 150.902 113.674 151.111C112.837 151.53 111.948 151.896 111.112 152.262C110.693 152.471 110.223 152.628 109.804 152.784C109.386 152.941 108.916 153.15 108.497 153.307C108.079 153.464 107.608 153.673 107.19 153.83C107.19 153.83 107.19 153.83 107.138 153.83C106.719 153.987 106.249 154.144 105.831 154.301C104.889 154.614 103.896 154.928 102.955 155.242C102.641 155.347 102.275 155.451 101.961 155.556C100.968 155.869 99.9743 156.131 98.9809 156.34C98.6149 156.445 98.2489 156.497 97.8306 156.601C96.8894 156.811 95.8959 157.02 94.9547 157.229C94.7456 157.281 94.5887 157.281 94.3796 157.333C94.0658 157.386 93.6998 157.438 93.3861 157.49C92.9155 157.543 92.4972 157.647 92.0266 157.699C91.8175 157.752 91.6083 157.752 91.3992 157.804C91.1377 157.856 90.824 157.909 90.5103 157.909C89.6737 158.013 88.7848 158.118 87.9482 158.222C87.6868 158.275 87.373 158.275 87.1116 158.327H87.0593C86.6933 158.379 86.3273 158.379 85.9613 158.431C85.5953 158.484 85.2292 158.484 84.8632 158.484C84.6541 158.484 84.3926 158.536 84.1835 158.536C83.7652 158.536 83.3992 158.588 83.0332 158.588C82.5103 158.588 82.0397 158.641 81.5168 158.641C80.9939 158.641 80.5234 158.641 80.0005 158.641C79.6345 158.641 79.2685 158.641 78.9024 158.641C56.8371 158.327 37.0201 148.967 22.8501 134.118C22.8501 134.118 22.8501 134.065 22.7979 134.065C21.2292 132.654 22.5887 125.124 28.9155 120.366C36.8632 114.353 55.8959 110.588 55.8959 110.588C55.8959 110.588 63.2685 109.386 90.6149 115.085C106.615 118.431 118.798 123.294 125.595 136.471C127.007 139.19 128.419 143.373 123.451 145.569Z" fill="#F8F8F8"/>
<path d="M90.7715 114.51C100.811 116.549 111.53 118.745 119.791 125.385C122.562 127.634 124.392 130.928 125.909 134.117C126.641 135.686 127.373 137.307 127.948 139.032C128.262 140.183 128.732 141.49 128.471 142.849C128.419 143.215 128.105 143.686 127.843 143.947C126.641 145.15 125.334 145.882 124.026 146.823C116.34 152.157 107.504 155.921 98.3532 157.908C77.961 162.353 55.8956 158.902 37.961 148.183C32.0002 144.575 26.51 140.183 21.8041 135.006C21.2812 134.379 21.2812 133.333 21.2812 132.653C21.3335 131.085 21.7518 129.568 22.2747 128.157C23.5296 124.915 25.1505 121.673 27.9218 119.425C29.9087 118.065 32.0525 116.915 34.2486 115.974C41.1505 113.046 48.4185 111.006 55.8956 110.17C56.5231 110.117 56.6277 111.006 56.0002 111.111C48.8368 112.575 41.7257 114.771 35.0852 117.751C32.6799 118.954 30.1179 120 28.1832 121.882C26.3531 123.869 25.046 126.327 24.0002 128.836C23.3205 130.353 22.8499 132.758 23.059 133.961C26.3531 137.882 30.2224 141.333 34.4054 144.314C57.3074 160.314 92.0787 161.359 116.445 148.026C118.641 146.823 120.785 145.464 122.824 144.052C123.817 143.372 124.863 142.797 125.647 142.013C125.7 141.961 125.647 142.013 125.647 142.065C125.647 142.117 125.595 142.17 125.595 142.17C125.647 141.542 125.438 140.706 125.177 139.869C124.236 136.836 122.719 133.647 121.098 130.876C118.536 126.745 114.196 124.13 109.804 122.039C106.771 120.627 103.582 119.529 100.34 118.483C97.0983 117.438 93.8042 116.549 90.51 115.764C89.6734 115.555 89.9349 114.353 90.7715 114.51Z" fill="#AA55FF"/>
<path d="M140.811 177.987H4.75871C4.75871 177.987 4.34041 145.046 16.0005 129.726C24.5234 118.484 40.0528 115.504 49.5692 112.732C52.0267 112.053 54.1705 111.268 55.9483 110.798C56.5234 112.366 62.3274 127.739 76.2359 133.386C88.2097 138.249 95.3208 135.007 96.4189 129.621C97.0986 126.17 94.9548 120.523 93.8568 118.693C93.2293 118.17 92.811 117.386 92.6019 116.602L92.1836 114.876C93.1248 114.667 94.0136 114.406 94.9548 114.144C95.4254 114.249 95.896 114.353 96.3666 114.458C103.112 116.079 117.125 116.393 128.837 126.275C142.432 137.569 140.811 177.987 140.811 177.987Z" fill="#AA55FF"/>
<path d="M108.498 127.164C108.236 123.452 104.053 122.981 104.053 122.981C104.053 122.981 107.661 122.72 107.818 119.792C107.923 118.118 106.354 116.498 103.792 115.504C104.472 115.138 104.994 114.668 104.628 113.988C103.792 112.471 100.707 112.21 100.027 111.949C97.3605 110.955 91.6088 105.256 73.5696 103.321C68.916 102.851 59.2428 102.589 55.4258 104.942V104.89C54.9552 104.89 54.1186 105.569 53.1775 106.563C52.1317 106.615 49.2559 106.929 46.7461 108.498C44.7592 109.7 44.4454 111.583 45.3866 112.89C44.184 113.413 42.9291 114.249 42.0402 115.556C39.4781 119.478 45.282 120.837 48.001 119.792C48.001 119.792 43.6088 122.145 45.1775 125.857C46.7461 129.569 51.7657 127.426 51.7657 127.426C51.7657 127.426 47.3735 132.236 51.086 135.844C54.7984 139.452 59.1383 135.844 59.1383 135.844C59.1383 135.844 56.7853 141.334 60.7069 143.373C64.6285 145.413 67.6611 140.027 67.6611 140.027C67.6611 140.027 66.4062 145.622 70.2232 147.661C74.0402 149.7 76.7069 144.942 77.282 143.164C77.282 143.164 77.2821 149.125 82.6677 149.334C85.9618 149.491 87.0598 145.674 87.3736 142.694C88.6807 142.746 89.6742 142.694 90.1971 142.589C90.5631 142.485 91.086 142.223 91.7134 141.909C92.2886 142.955 93.9095 145.308 96.5239 145.151C99.9226 144.994 100.759 141.177 99.2428 137.935C99.2428 137.935 102.119 139.87 105.099 137.935C108.132 136.001 105.413 131.347 103.74 130.72C103.896 130.563 108.759 130.824 108.498 127.164Z" fill="#F8F8F8"/>
<path d="M108.393 127.164C108.288 124.863 106.144 123.399 104.053 123.086C103.896 123.086 103.896 122.824 104.053 122.824C105.883 122.72 107.922 121.36 107.609 119.373C107.295 117.491 105.308 116.497 103.635 115.922C103.269 115.818 103.216 115.295 103.53 115.086C103.739 114.929 104.001 114.72 104.053 114.563C104.158 114.406 104.105 114.354 104.053 114.354C103.112 113.36 101.543 113.36 100.236 113.203C99.6085 113.151 98.8765 112.785 98.3013 112.524C96.8373 111.844 95.2686 110.955 93.8046 110.38C87.8438 107.661 81.4124 106.563 75.0856 105.099C69.6477 103.792 60.9157 102.275 56.0006 105.412L55.9484 105.465C56.2621 105.726 54.5889 105.412 54.8503 104.994C54.798 104.837 54.8503 104.837 54.8503 104.785V104.733C54.8503 104.733 54.8503 104.68 54.8503 104.837L55.5301 105.465C55.5823 105.465 55.5301 105.465 55.4778 105.465C54.798 105.778 54.2752 106.301 53.7523 106.824C53.6477 106.929 53.4908 106.981 53.334 107.033C51.4516 107.243 49.517 107.765 47.8961 108.654C47.164 109.02 46.432 109.595 46.066 110.327C45.7523 111.007 45.8046 111.687 46.2229 112.262C46.4843 112.628 46.432 113.203 46.0137 113.465C45.9614 113.517 45.9091 113.569 45.8046 113.569C43.8176 113.622 41.4124 115.922 42.0399 117.857C42.5105 118.798 43.6608 119.216 44.6542 119.373C45.7523 119.582 46.9026 119.53 47.8961 119.164C48.1575 119.06 48.4712 119.216 48.5758 119.478C48.6804 119.739 48.5758 120.001 48.3144 120.105C46.432 121.151 44.7588 123.399 45.9091 125.543C46.3274 126.537 47.2163 127.06 48.3144 127.112C49.3601 127.216 50.5627 126.903 51.5562 126.537C51.9745 126.38 52.4451 126.589 52.6542 127.007C52.7588 127.321 52.7065 127.635 52.4974 127.896C50.9288 129.831 49.7261 132.916 51.7654 134.85C53.5954 136.89 56.5758 136.419 58.5105 134.85C59.4516 134.066 60.8111 135.112 60.3405 136.21C59.9222 137.256 59.6608 138.667 59.8176 139.765C59.9745 141.961 62.3797 143.216 64.2098 141.857C65.151 141.229 66.0399 140.184 66.615 139.19C67.3471 137.883 69.3863 138.667 69.1248 140.079C69.0725 140.341 69.0203 140.707 69.0203 141.073C68.968 142.014 69.0203 143.06 69.2817 143.948C69.8569 146.092 72.3667 147.452 74.0399 145.674C74.9288 144.89 75.7131 143.635 76.0791 142.537C76.602 141.02 78.8503 141.386 78.8503 142.955C78.9026 144.105 79.2163 145.412 79.9484 146.354C80.785 147.504 82.8242 148.236 84.1314 147.452C85.5954 146.301 85.9614 144.21 86.2752 142.327C86.5366 140.759 88.419 141.439 89.517 141.282C90.1444 141.229 89.9353 141.282 90.5628 141.02C90.8242 140.916 91.0333 140.811 91.2948 140.654C91.8699 140.341 92.5497 140.602 92.8111 141.125C93.334 142.118 94.066 143.007 94.9026 143.478C98.8242 145.36 100.131 141.073 98.7196 137.988C98.4582 137.36 99.1902 136.785 99.7131 137.151C101.073 138.04 102.955 138.301 104.471 137.569C107.609 136.419 105.988 131.975 103.792 130.72C103.635 130.667 103.582 130.51 103.635 130.354C103.687 130.249 103.792 130.197 103.896 130.197C105.935 130.458 108.602 129.622 108.393 127.164ZM108.654 127.112C108.968 129.778 106.144 130.929 103.896 130.824L104.001 130.301C104.68 130.563 105.099 131.086 105.517 131.556C106.72 133.073 107.556 135.321 106.458 137.151C105.046 139.138 102.118 139.661 99.9222 138.772C99.6085 138.667 99.2948 138.51 98.9811 138.301L99.9745 137.465C100.916 139.347 101.282 141.752 100.236 143.739C99.0856 145.988 96.0007 146.51 93.9092 145.412C92.5497 144.733 91.5562 143.53 90.8242 142.275L92.3928 142.746C91.8177 143.06 91.2425 143.373 90.5628 143.582C89.517 143.792 88.5235 143.792 87.4255 143.739L88.7327 142.641C88.4712 145.099 87.9484 148.027 85.6477 149.7C83.1379 151.373 79.4778 150.38 77.7 148.079C76.5497 146.563 76.0268 144.837 75.9745 143.007L78.7458 143.478C74.9811 153.622 64.419 149.648 66.4582 139.609L68.9157 140.55C68.4451 141.282 68.0268 141.857 67.4516 142.484C66.3013 143.739 64.8373 144.785 63.0072 144.942C60.1837 145.203 57.517 142.798 57.3601 140.027C57.2033 138.354 57.517 136.837 58.1444 135.269L59.9745 136.628C59.5562 136.942 59.2425 137.151 58.8242 137.36C55.0595 139.556 50.249 138.197 48.8895 133.857C48.2621 131.243 49.517 128.68 51.1902 126.746L52.1314 128.053C48.5758 129.465 44.2359 128.524 44.2359 124.027C44.3405 121.883 45.9614 120.262 47.7392 119.216L48.1575 120.158C45.4386 121.151 39.8438 120.001 41.2033 116.131C41.9876 114.301 43.4516 113.099 45.0203 111.896L44.602 113.256C41.883 108.184 49.3601 105.935 53.1248 105.831L52.7065 106.04C53.4386 105.256 54.2229 104.158 55.4255 104.053C55.7915 104.053 56.1052 104.367 56.1052 104.68C56.1052 104.837 56.1052 104.837 56.1052 104.837C56.1052 104.785 56.1052 104.785 56.1052 104.628C56.3667 104.262 54.7457 103.896 55.0595 104.158L55.164 104.105C57.2033 103.112 59.5039 102.798 61.7 102.641C66.1967 102.327 70.6935 102.537 75.1902 103.164C83.5562 104.262 91.8177 106.458 98.9811 111.007C100.497 111.948 102.171 111.635 103.739 112.576C104.471 112.994 105.308 113.778 104.994 114.72C104.837 115.243 104.314 115.609 103.896 115.818L103.844 114.929C104.785 115.347 105.674 115.87 106.406 116.55C109.386 119.216 107.713 122.667 103.948 122.981V122.72C106.301 123.086 108.55 124.707 108.654 127.112Z" fill="#AA55FF"/>
<path d="M88.1576 140.601C88.1576 140.601 83.6608 152.68 87.0072 154.823C90.3536 156.967 89.4648 140.026 89.4648 140.026C89.4648 140.026 92.8112 154.457 97.0987 153.255C101.386 152.052 91.0334 140.026 90.2491 139.817" fill="#F8F8F8"/>
<path d="M89.4122 141.072C87.8436 143.843 84.7064 151.582 87.007 154.301C88.8894 155.974 88.9417 148.654 88.8894 147.713C88.8371 145.151 88.6279 142.536 88.1051 140.026L88.1573 139.608C88.3665 138.092 90.6149 138.144 90.7194 139.66C90.7717 142.432 93.1769 153.883 97.0462 152.837C98.3011 152.314 97.5168 150.588 97.0985 149.7C95.4253 146.458 92.9155 143.582 90.092 141.281C89.8828 141.177 89.726 140.968 89.5168 140.915C89.5168 140.915 89.5168 140.915 89.5691 140.968C89.6214 141.02 89.726 141.072 89.8305 141.072C89.0985 140.863 88.7325 140.131 88.8894 139.399C89.0985 138.562 90.092 138.144 90.824 138.615C90.9809 138.667 91.0854 138.824 91.19 138.928C92.1312 139.974 92.8109 141.124 93.5952 142.222C94.7979 144.209 100.759 152.105 97.2554 153.464C93.1769 155.033 89.5168 143.216 88.1051 140.288L90.7717 139.922C90.5103 142.588 90.3534 145.151 90.092 147.765C89.7783 150.066 89.7783 152.471 88.6802 154.615C88.1573 155.504 87.2162 155.556 86.4841 154.876C85.6475 154.144 85.4384 152.941 85.3338 151.948C85.1247 147.922 86.1704 144.105 86.8502 140.131C87.007 139.399 87.6868 138.928 88.4188 139.033C89.4122 139.19 89.8828 140.288 89.4122 141.072Z" fill="#AA55FF"/>
<path d="M33.7262 117.49C33.7262 117.49 37.1772 149.177 7.37328 151.582C7.37328 151.582 2.56282 135.686 11.6609 123.66C20.0792 112.471 33.7262 117.49 33.7262 117.49Z" fill="#F8F8F8"/>
<path d="M33.9352 117.333C34.0398 117.49 33.9875 117.699 34.0398 117.856C34.1966 119.739 34.2489 121.673 34.1444 123.608C33.7261 134.013 29.2293 144.575 19.5561 149.49C15.7914 151.425 11.6607 152.471 7.47768 152.941C6.85023 152.994 6.27506 152.628 6.1182 152.052C5.49075 149.699 5.22931 147.451 5.07245 145.098C3.97441 131.346 11.3992 115.137 27.1901 116.026C29.3862 116.131 31.5823 116.497 33.6738 117.229C33.7261 117.229 33.8306 117.281 33.9352 117.333ZM32.7849 118.222C32.8895 118.379 33.1509 118.588 33.2555 118.588C33.0986 118.536 32.7326 118.431 32.5757 118.379C13.543 113.36 4.96787 131.817 7.94827 148.079C8.10513 149.124 8.36657 150.222 8.62801 151.216L7.21624 150.275C25.3077 149.02 33.2555 135.32 32.5757 118.327C32.5757 118.222 32.5234 117.804 32.5234 117.699C32.5757 117.856 32.628 118.118 32.7849 118.222Z" fill="#AA55FF"/>
<path d="M115.295 118.589C115.295 118.589 121.361 123.19 127.426 134.589C130.563 140.497 133.282 147.399 139.557 150.432C139.557 150.432 142.642 135.739 136.576 126.902C128.106 114.563 115.295 118.589 115.295 118.589Z" fill="#F8F8F8"/>
<path d="M115.818 118.641C115.87 118.536 115.818 118.275 115.713 118.223L115.766 118.275C118.38 120.419 120.628 122.981 122.72 125.647C124.811 128.366 126.641 131.242 128.315 134.223C131.452 139.765 134.171 146.458 140.184 149.229L138.302 150.17C139.661 142.693 139.975 134.066 135.844 127.373C131.557 120.628 123.713 117.281 115.87 119.007L115.713 119.059H115.609H115.557C115.609 119.059 115.818 118.798 115.818 118.641ZM115.086 118.536C115.138 118.327 115.4 118.327 115.609 118.275C121.517 116.706 128.106 117.961 132.864 121.83C140.759 127.948 142.119 138.196 141.23 147.556C141.125 148.602 141.021 149.647 140.811 150.745C140.655 151.582 139.661 152 138.929 151.634C137.308 150.798 135.792 149.647 134.589 148.34C130.981 144.523 128.994 139.504 126.746 135.007C123.766 129.151 120.21 123.451 115.347 118.955C115.243 118.85 115.086 118.693 115.086 118.536Z" fill="#AA55FF"/>
<path d="M53.5952 106.667C52.5495 108.602 51.6083 110.903 51.6083 113.151C51.6606 114.249 52.1312 115.295 52.6018 116.288C56.3142 123.504 62.6933 129.308 69.9612 132.759C74.1442 134.746 78.5887 136.262 83.1377 136.994C85.3338 137.308 87.6344 137.517 89.8305 137.308L89.4122 137.412C99.2946 132.497 103.896 123.713 98.9286 113.255C98.6671 112.733 99.4514 112.262 99.7652 112.785C101.072 115.086 101.961 117.595 102.275 120.262C103.478 128.942 97.7782 135.791 90.6148 139.818C90.5103 139.87 90.3534 139.922 90.1965 139.922C88.8371 140.027 87.6867 139.974 86.3795 139.87C80.3142 139.347 74.458 137.308 69.0724 134.484C61.5952 130.615 55.1116 124.393 51.5037 116.706C51.0331 115.556 50.5625 114.354 50.5103 113.046C50.6671 110.537 51.6606 108.288 52.8632 106.144C53.1769 105.726 53.9089 106.197 53.5952 106.667Z" fill="#AA55FF"/>
<path d="M88.6803 138.615C89.36 130.981 89.6215 123.138 88.1051 115.608C88.0005 115.138 88.3143 114.615 88.7849 114.51C89.3077 114.405 89.8306 114.772 89.8829 115.294C90.1443 117.229 90.3535 119.216 90.5103 121.151C90.9809 126.798 91.1901 133.02 91.3992 138.719C91.3469 140.602 88.5234 140.497 88.6803 138.615Z" fill="#AA55FF"/>
<path d="M89.7262 124.654C91.1412 124.654 92.2883 123.507 92.2883 122.092C92.2883 120.677 91.1412 119.53 89.7262 119.53C88.3112 119.53 87.1641 120.677 87.1641 122.092C87.1641 123.507 88.3112 124.654 89.7262 124.654Z" fill="#AA55FF"/>
<path d="M90.0919 132.549C91.5069 132.549 92.654 131.402 92.654 129.987C92.654 128.572 91.5069 127.425 90.0919 127.425C88.6769 127.425 87.5298 128.572 87.5298 129.987C87.5298 131.402 88.6769 132.549 90.0919 132.549Z" fill="#AA55FF"/>
<path d="M95.687 128.417C94.589 133.803 87.4779 137.045 75.504 132.182C63.0596 127.162 57.6739 115.188 56.3145 111.633C63.687 97.8288 58.5628 88.2602 58.5628 88.2602C75.5563 86.7962 90.406 106.665 90.406 106.665L92.7066 116.496C92.9158 117.332 93.3341 118.064 93.9615 118.587C95.0596 120.522 96.3668 124.966 95.687 128.417Z" fill="#F8F8F8"/>
<path d="M56.0533 111.789C57.0467 110.273 57.6742 108.495 58.0925 106.77C58.8768 103.162 59.1382 99.5016 59.1905 95.8415V94.482C59.0337 93.1225 58.5631 91.7107 58.0402 90.4558C57.3605 88.7826 59.818 87.7369 60.6023 89.4101C60.7069 89.6192 60.7069 89.9852 60.7069 90.1944C60.8637 97.3055 61.1775 106.456 56.6807 112.364C56.367 112.678 55.7396 112.207 56.0533 111.789Z" fill="#AA55FF"/>
<path d="M90.9812 106.561C91.7655 107.032 92.0269 107.659 92.1315 108.286C92.4452 109.541 92.3407 110.901 92.6544 112.208C92.9158 113.463 93.7001 114.666 93.9093 115.973C94.1707 117.332 94.955 120.208 95.2688 121.62C95.3733 121.934 95.1642 122.3 94.7982 122.352C94.589 122.404 94.4322 122.352 94.2753 122.247C93.5956 121.672 93.2818 121.097 92.8635 120.365C92.1838 119.11 91.7132 117.96 91.2949 116.548C90.9289 115.293 91.0858 113.934 90.772 112.626C90.5106 111.371 89.7786 110.169 89.5171 108.862C89.3603 108.234 89.308 107.554 89.7786 106.77C90.0923 106.456 90.6152 106.352 90.9812 106.561Z" fill="#AA55FF"/>
<path d="M94.7463 120.365C84.7594 119.842 76.6025 116.705 68.6548 102.535C75.3476 108.443 83.243 110.692 91.5568 111.737L92.6548 116.548C92.8639 117.384 94.1188 119.842 94.7463 120.365Z" fill="#AA55FF"/>
<path d="M94.3283 118.43C96.1061 121.776 97.1518 125.959 96.0538 129.672C95.2172 132.286 92.812 134.221 90.1976 134.953C84.1322 136.574 77.1257 134.012 71.7401 131.136C65.0995 127.423 60.1845 121.201 57.0472 114.404C56.8381 113.881 57.5701 113.463 57.8838 113.985C58.9819 116.181 60.2368 118.325 61.6486 120.26C63.0603 122.247 64.6812 124.077 66.5113 125.698C71.8446 130.508 79.0603 133.489 86.276 133.489C93.7008 133.28 96.5244 129.358 94.7989 122.142C94.5375 120.992 94.1191 119.789 93.544 118.796C93.2303 118.378 94.0146 117.907 94.3283 118.43Z" fill="#AA55FF"/>
<path d="M114.563 55.6331C115.504 60.0252 115.975 63.5808 113.413 75.2932C110.903 86.9533 115.766 98.7181 103.426 109.437C95.1122 116.653 80.5763 118.012 68.9684 110.117C65.0468 107.45 64.0011 95.0056 60.9161 90.2475C59.6089 88.2605 58.8246 91.4501 55.8442 88.156C51.7135 83.6592 46.7462 74.6135 49.2037 58.6135C53.1776 32.6788 73.7266 29.6461 88.9423 32.522C104.21 35.3978 112.053 44.0775 114.563 55.6331Z" fill="#F8F8F8"/>
<path d="M58.4065 92.7571C57.2039 90.7701 55.6875 89.0446 54.2758 87.2146C52.1843 84.391 50.6156 81.1492 49.5699 77.8028C45.0732 63.476 47.4784 44.8093 60.7594 35.8682C73.047 27.5544 96.5242 30.0642 107.295 40.1034C112.681 44.9662 115.661 52.025 116.289 59.1361C116.603 63.8943 115.452 68.4956 114.459 73.0969C113.308 77.5937 113.047 82.0904 113.047 86.744C112.995 91.3976 112.786 96.2603 111.008 100.652C108.289 107.345 102.59 112.783 95.7398 115.084C86.7464 118.221 76.132 116.443 68.7594 110.43C68.4457 110.169 68.7594 109.751 69.1254 109.907C78.7987 115.398 91.5045 116.339 100.916 110.012C106.511 106.247 110.38 100.286 111.269 93.5937C112.001 89.0446 111.792 84.4433 112.21 79.842C112.367 77.8028 112.942 74.9793 113.361 72.9401C113.988 69.5414 114.407 66.1427 114.354 62.744C114.302 59.3976 113.57 56.1035 112.576 52.9139C109.125 41.5675 99.2431 34.8747 87.8444 33.0446C70.7987 30.0642 55.8967 36.391 51.4522 54.1165C49.5176 62.7963 48.0013 72.3649 51.6614 80.7832C52.9686 83.9727 55.1124 86.6917 57.5699 89.0446L59.9751 91.6067C61.0209 92.6525 59.2431 94.012 58.4065 92.7571Z" fill="#AA55FF"/>
<path d="M64.5759 76.1298C64.5759 76.1298 62.955 68.2866 55.321 69.2278C48.7327 70.0644 46.4321 85.8553 61.3863 90.2474" fill="#F8F8F8"/>
<path d="M60.707 83.3975C59.5044 82.7177 58.6678 81.5674 58.6155 80.1556C58.6678 79.1099 58.8246 77.9073 58.5632 76.8615C58.4063 75.8681 57.3606 75.6066 56.5763 75.6589C55.7397 75.8158 55.2168 76.8615 55.0599 77.6981C55.0599 77.7504 55.0076 77.9073 55.0076 77.9596C54.9554 78.221 54.5371 78.221 54.4325 77.9596C53.7527 75.9204 55.2691 73.672 57.4652 73.9334C60.5501 74.1426 60.9684 77.3844 60.3933 79.8419C60.0795 80.8877 60.4978 81.8288 61.073 82.7177L61.1776 82.8746C61.439 83.1883 61.0207 83.6066 60.707 83.3975Z" fill="#AA55FF"/>
<path d="M102.537 70.5867C103.321 74.2991 104.785 77.7501 106.616 80.9919C108.236 84.9658 104.053 88.7305 100.341 88.5736C99.9227 88.5736 99.8705 87.9985 100.236 87.8939C102.589 87.1619 104.733 85.5932 105.099 83.188C105.256 82.456 105.047 81.8285 104.681 81.2011C102.955 77.9593 101.91 74.2468 102.171 70.5867C102.171 70.3253 102.537 70.3253 102.537 70.5867Z" fill="#AA55FF"/>
<path d="M64.3148 76.1827C63.1122 73.0978 60.4978 70.1697 56.9945 70.222C56.6808 70.1697 56.1579 70.2742 55.8442 70.2742C54.9553 70.3265 54.2233 70.6403 53.5436 71.2677C50.1972 74.6141 50.7723 80.5226 53.4913 84.235C54.4325 85.5422 55.6351 86.6926 56.9945 87.6337C58.354 88.5749 59.8704 89.3069 61.4913 89.9344C61.8573 90.039 61.7004 90.6141 61.3344 90.5618C57.8311 89.8298 54.4847 88.1043 52.1841 85.2285C48.6285 80.9409 47.8965 73.7775 52.1318 69.5945C53.073 68.7579 54.3802 68.1305 55.6874 68.1305C56.1057 68.1305 56.7331 68.0259 57.1514 68.1305C59.3475 68.235 61.439 69.3331 62.7985 71.0586C64.0011 72.5226 64.6808 74.3004 64.89 76.0782C64.89 76.3919 64.4194 76.4965 64.3148 76.1827Z" fill="#AA55FF"/>
<path d="M97.3601 93.5954C97.4123 95.3209 94.8503 99.7131 89.9352 97.6738C85.1771 95.7392 83.7653 86.6412 90.5627 90.981C94.0137 93.2817 96.2097 93.6477 97.3601 93.5954Z" fill="#F8F8F8"/>
<path d="M98.4582 93.6478C97.0464 94.1184 95.687 93.7001 94.3798 93.2295C92.4451 92.5497 90.8765 91.2948 89.0464 90.4059C86.5366 89.2033 85.5432 90.8243 86.2229 93.1772C86.9026 95.687 89.0987 97.8831 91.8177 97.9877C94.2229 98.2491 96.785 96.053 96.5759 93.5955C96.3667 92.5497 97.883 92.236 98.1445 93.2295C98.0922 95.0073 96.9942 96.2622 95.8438 97.3079C93.5432 99.1903 90.0399 98.772 87.7393 97.0465C85.9615 95.6347 84.4974 93.3863 84.8111 90.9811C84.9157 89.9354 85.9092 88.7328 87.0072 88.6805C89.5693 88.4713 91.0857 90.1968 93.0726 91.3471C94.6412 92.236 96.419 93.3341 98.2491 93.1772C98.5628 93.0726 98.7719 93.4909 98.4582 93.6478Z" fill="#AA55FF"/>
<path d="M86.3271 91.7128C87.1637 92.9154 88.4709 93.5429 89.8304 93.8566C90.1441 93.9612 90.4056 93.9612 90.667 93.9612C91.1376 93.9612 91.6082 94.3272 91.8696 94.5887C93.1245 95.5821 94.85 95.739 96.4186 95.7913C96.7847 95.7913 96.7847 96.4187 96.4186 96.3664C94.7454 96.2619 92.9677 96.105 91.399 95.3207C91.0853 95.2161 90.9284 95.1115 90.667 95.1115C89.6735 95.2161 88.8892 94.5887 88.1572 94.1704C87.3206 93.6998 86.484 93.2292 85.4905 93.02C85.0199 92.9154 84.7585 92.4972 84.8108 92.0266C84.9154 91.2945 85.9611 91.0854 86.3271 91.7128Z" fill="#AA55FF"/>
<path d="M83.0335 75.9218C81.7786 75.8695 80.8374 74.8238 80.942 73.5689L80.9943 72.1048C81.0466 70.8499 82.0923 69.9087 83.3472 70.0133C84.6021 70.0656 85.5433 71.1113 85.4387 72.3662L85.3865 73.8303C85.3342 75.0329 84.2884 75.9741 83.0335 75.9218Z" fill="#AA55FF"/>
<path d="M105.046 76.7058C103.896 76.6535 103.007 75.6601 103.059 74.5097L103.112 73.1502C103.164 71.9999 104.157 71.111 105.308 71.1633C106.458 71.2156 107.347 72.2091 107.295 73.3594L107.242 74.7189C107.19 75.8692 106.197 76.7581 105.046 76.7058Z" fill="#AA55FF"/>
<path d="M87.7393 73.0982C86.0138 71.9479 84.1314 71.1636 82.0399 71.5819C81.3602 71.6865 80.6804 71.8956 80.2621 72.3662C80.1053 72.5754 79.7393 72.5231 79.7393 72.2093C79.7915 71.1636 80.6804 70.4839 81.517 70.0656C83.1379 69.229 85.3863 69.3858 86.8504 70.4839C87.3733 70.7976 89.151 72.7322 88.2098 73.1505C88.0007 73.2551 87.8961 73.2028 87.7393 73.0982Z" fill="#AA55FF"/>
<path d="M102.693 73.3594C102.693 71.1633 105.412 70.379 107.086 71.1633C108.027 71.5816 108.706 72.4182 108.968 73.4117C109.072 73.7254 108.602 73.9868 108.393 73.7254C107.504 72.6797 105.987 72.1568 104.785 72.7842C104.419 72.9934 104.367 73.1502 104.262 73.3594C104.262 74.4051 102.746 74.3529 102.693 73.3594Z" fill="#AA55FF"/>
<path d="M90.2491 64.4709C91.3472 64.8369 92.4452 63.8434 92.2361 62.6408C92.1315 62.0134 91.8701 61.3859 91.3472 60.9153C89.7786 59.5036 83.2949 58.2487 79.3733 60.0787C75.9223 61.7519 85.2295 62.7977 90.2491 64.4709Z" fill="#AA55FF"/>
<path d="M105.883 65.307C104.994 65.6208 104.053 64.6796 104.21 63.5815C104.262 63.0064 104.472 62.4312 104.89 62.0129C106.145 60.758 110.432 59.7646 113.151 61.6992C115.504 63.3201 109.962 63.7907 105.883 65.307Z" fill="#AA55FF"/>
<path d="M118.747 64.366C121.1 56.3137 117.022 50.7189 114.094 48C112.734 44.3398 110.433 40.732 106.773 37.9608C106.041 37.3856 105.257 36.8627 104.368 36.3921C103.636 35.9738 102.852 35.6078 102.067 35.2418C95.1654 32.2614 84.1327 28.7581 73.2046 30.6405C69.0216 31.3202 64.8386 32.8366 60.917 35.3987C60.8647 35.3987 60.8647 35.451 60.8647 35.451C60.551 35.6601 60.2373 35.8693 59.9758 36.0784C59.2438 35.1895 58.4072 34.4052 57.466 33.6732C50.9301 28.7581 43.819 29.5947 38.9039 36.183C33.9889 42.7189 33.1523 52.4967 39.6883 57.4117C41.7275 58.9281 44.0281 59.8693 46.3811 60.2353C46.3288 60.4967 46.3288 60.8104 46.2765 61.0719C43.4007 86.8497 63.1131 98.4575 61.5968 90.3529C61.1785 90.1961 60.9693 90.0392 60.9693 89.9346C46.4856 85.3333 48.7863 69.8562 55.3222 69.0196C57.6752 68.7059 59.4007 69.281 60.7602 70.1176C61.283 70.6405 61.7536 71.1111 62.2242 71.5817C63.4791 73.1503 64.5771 75.1372 64.5771 75.9216C64.6294 75.2941 64.6817 74.5621 64.8386 73.83C71.1654 78.5359 76.8647 76.8627 87.2177 60.3398C94.0674 49.4117 98.1458 47.2679 100.394 47.5817C101.283 47.8954 102.12 48.5751 102.904 49.7255C103.113 50.0392 103.322 50.3529 103.479 50.6666C108.08 50.5621 110.224 53.2287 111.322 56C111.322 56 111.322 56 111.322 56.0523C112.211 58.4052 112.316 60.8104 112.42 61.4379C112.42 61.5425 112.42 61.5948 112.473 61.5948C112.368 63.6863 112.107 67.2418 112.054 71.8431C112.054 73.9346 112.263 78.1176 112.107 80.5229C112.054 81.2549 112.002 81.9869 111.95 82.6667C111.897 83.0327 111.897 83.3987 111.845 83.7124C111.793 84.0261 111.793 84.3921 111.741 84.7582C111.688 85.1765 111.636 85.5425 111.636 85.9608C112.682 87.2157 114.198 87.4248 115.453 88.2614C115.767 84.7059 114.826 81.7255 114.46 77.6993C114.773 79.0588 115.192 80.366 115.819 81.7255C117.91 86.2222 116.76 89.5163 116.76 89.5163L120.211 89.7255C120.577 88.732 120.891 86.9019 119.793 84.4967C118.12 80.7843 118.015 79.0588 118.015 79.0588C118.015 79.0588 118.904 82.0915 120.577 84.1307C121.884 85.8039 122.407 88.0523 121.884 89.8301L123.139 89.9346C126.904 84.2876 115.244 76.2353 118.747 64.366ZM76.0804 68.915C72.1066 71.7908 68.7602 71.2157 66.7209 70.3268C66.7732 70.3268 66.8255 70.2745 66.8255 70.2745C68.0804 70.1699 69.3353 69.9085 70.5379 69.4379C76.2896 67.3987 81.6229 62.1176 86.3288 57.2549C82.3549 62.1699 78.5379 67.1372 76.0804 68.915Z" fill="#AA55FF"/>
<path d="M105.569 82.666C105.569 82.666 106.197 86.2216 110.328 87.9993C111.373 88.4176 112.471 87.7379 112.471 86.5876C112.419 86.5876 105.831 83.0843 105.569 82.666Z" fill="#AA55FF"/>
<path d="M73.2554 82.6663C73.2554 82.6663 75.19 87.0585 80.9939 88.1042C86.7979 89.2022 92.0789 85.0192 94.5364 78.0127C94.5364 78.0127 92.5495 84.4964 84.6018 85.699C76.7586 87.0062 73.2554 82.6663 73.2554 82.6663Z" fill="#AA55FF"/>
<path d="M95.6871 72.8883C95.5302 80.3654 89.5171 86.3785 82.2491 86.3785C74.9812 86.3785 69.1772 80.3654 69.1772 72.8883C69.2295 65.3589 75.2426 59.189 82.6152 59.189C89.9877 59.189 95.8962 65.3589 95.6871 72.8883Z" stroke="#AA55FF" stroke-width="0.369231" stroke-miterlimit="10" stroke-linecap="round" stroke-linejoin="round"/>
<path d="M102.851 71.1629C103.687 64.4178 108.079 59.1367 113.256 59.1367C118.851 59.1367 123.138 65.3067 122.824 72.8361C122.511 80.3132 117.805 86.3263 112.315 86.3263C110.275 86.3263 108.445 85.542 106.929 84.1302" stroke="#AA55FF" stroke-width="0.369231" stroke-miterlimit="10" stroke-linecap="round" stroke-linejoin="round"/>
<path d="M69.334 71.4243H61.9092" stroke="#AA55FF" stroke-width="0.369231" stroke-miterlimit="10" stroke-linecap="round" stroke-linejoin="round"/>
<path d="M95.7393 71.4245C95.7393 71.4245 101.961 69.0192 102.746 71.4245" stroke="#AA55FF" stroke-width="0.369231" stroke-miterlimit="10" stroke-linecap="round" stroke-linejoin="round"/>
<path d="M150.693 44.079C182.432 105.203 126.641 174.171 60.1309 157.334C30.2747 149.909 6.27469 124.027 1.30737 93.6476C-4.33969 63.4254 9.30737 30.9548 34.8237 13.8568C69.8041 -10.1955 118.275 -2.19553 143.32 32.2097C143.477 32.3666 143.425 32.628 143.216 32.7849C143.059 32.9417 142.798 32.8894 142.641 32.6803C139.19 28.2358 135.268 24.2097 130.981 20.6019C123.922 14.5888 115.66 9.8829 106.928 6.69336C62.4839 -9.41122 13.6995 17.36 3.97403 63.8437C-7.00636 115.922 37.2812 163.87 90.0917 156.706C130.824 151.582 161.098 113.988 157.752 73.0986C157.02 63.2163 154.405 53.4385 150.066 44.445C149.961 44.2881 150.066 44.079 150.222 43.9744C150.379 43.8698 150.588 43.9221 150.693 44.079Z" fill="#AA55FF"/>
</g>
</svg>
