<svg width="161" height="160" viewBox="0 0 161 160" fill="none" xmlns="http://www.w3.org/2000/svg">
<mask id="mask0_1717_2132" style="mask-type:alpha" maskUnits="userSpaceOnUse" x="0" y="0" width="160" height="160">
<ellipse cx="79.9531" cy="79.7377" rx="79.7378" ry="79.7377" fill="#D9D9D9"/>
</mask>
<g mask="url(#mask0_1717_2132)">
<path d="M123.666 145.568C123.3 145.829 122.882 146.091 122.516 146.352C122.098 146.614 121.732 146.875 121.313 147.084C120.947 147.293 120.634 147.502 120.268 147.712C120.215 147.764 120.163 147.764 120.111 147.816C118.908 148.548 117.653 149.228 116.398 149.855C116.032 150.064 115.614 150.274 115.248 150.431C115.248 150.431 115.196 150.483 115.143 150.483C114.725 150.692 114.307 150.901 113.889 151.11C113.052 151.529 112.163 151.895 111.326 152.261C110.908 152.47 110.438 152.627 110.019 152.783C109.601 152.94 109.13 153.149 108.712 153.306C108.294 153.463 107.823 153.672 107.405 153.829C107.405 153.829 107.405 153.829 107.353 153.829C106.934 153.986 106.464 154.143 106.045 154.3C105.104 154.614 104.111 154.927 103.17 155.241C102.856 155.346 102.49 155.45 102.176 155.555C101.183 155.868 100.189 156.13 99.1957 156.339C98.8297 156.444 98.4637 156.496 98.0454 156.6C97.1042 156.81 96.1108 157.019 95.1696 157.228C94.9604 157.28 94.8036 157.28 94.5944 157.332C94.2807 157.385 93.9147 157.437 93.601 157.489C93.1304 157.542 92.7121 157.646 92.2415 157.698C92.0323 157.751 91.8232 157.751 91.614 157.803C91.3526 157.855 91.0389 157.908 90.7251 157.908C89.8885 158.012 88.9996 158.117 88.163 158.221C87.9016 158.274 87.5879 158.274 87.3264 158.326H87.2742C86.9081 158.378 86.5421 158.378 86.1761 158.431C85.8101 158.483 85.4441 158.483 85.0781 158.483C84.8689 158.483 84.6075 158.535 84.3983 158.535C83.98 158.535 83.614 158.587 83.248 158.587C82.7251 158.587 82.2545 158.64 81.7317 158.64C81.2088 158.64 80.7382 158.64 80.2153 158.64C79.8493 158.64 79.4833 158.64 79.1173 158.64C57.0519 158.326 37.2349 148.966 23.065 134.117C23.065 134.117 23.065 134.064 23.0127 134.064C21.4441 132.653 22.8035 125.123 29.1303 120.365C37.0781 114.352 56.1107 110.587 56.1107 110.587C56.1107 110.587 63.4833 109.385 90.8297 115.084C106.83 118.431 119.013 123.293 125.81 136.47C127.222 139.189 128.634 143.372 123.666 145.568Z" fill="#FFF8F8"/>
<path d="M90.9863 114.509C101.026 116.548 111.744 118.744 120.006 125.385C122.777 127.633 124.607 130.927 126.124 134.117C126.856 135.686 127.588 137.306 128.163 139.032C128.477 140.182 128.947 141.489 128.686 142.849C128.633 143.215 128.32 143.686 128.058 143.947C126.856 145.15 125.548 145.882 124.241 146.823C116.555 152.156 107.718 155.921 98.568 157.908C78.1759 162.352 56.1105 158.901 38.1758 148.182C32.215 144.574 26.7249 140.182 22.019 135.006C21.4961 134.378 21.4961 133.333 21.4961 132.653C21.5484 131.084 21.9667 129.568 22.4896 128.156C23.7445 124.914 25.3654 121.672 28.1366 119.424C30.1235 118.065 32.2673 116.914 34.4634 115.973C41.3654 113.045 48.6334 111.006 56.1105 110.169C56.7379 110.117 56.8425 111.006 56.2151 111.11C49.0517 112.574 41.9405 114.771 35.3 117.751C32.8948 118.954 30.3327 119.999 28.3981 121.882C26.568 123.869 25.2608 126.326 24.215 128.836C23.5353 130.352 23.0647 132.757 23.2739 133.96C26.568 137.882 30.4373 141.333 34.6203 144.313C57.5222 160.313 92.2935 161.359 116.66 148.025C118.856 146.823 120.999 145.463 123.039 144.052C124.032 143.372 125.078 142.797 125.862 142.012C125.914 141.96 125.862 142.012 125.862 142.065C125.862 142.117 125.81 142.169 125.81 142.169C125.862 141.542 125.653 140.705 125.392 139.869C124.45 136.836 122.934 133.646 121.313 130.875C118.751 126.744 114.411 124.13 110.019 122.038C106.986 120.627 103.797 119.529 100.555 118.483C97.3131 117.437 94.019 116.548 90.7249 115.764C89.8883 115.555 90.1497 114.352 90.9863 114.509Z" fill="#0F172A"/>
<path d="M141.026 177.987H4.97355C4.97355 177.987 4.55525 145.046 16.2154 129.726C24.7383 118.484 40.2677 115.504 49.784 112.732C52.2416 112.053 54.3853 111.268 56.1631 110.798C56.7383 112.366 62.5422 127.739 76.4507 133.386C88.4246 138.249 95.5357 135.007 96.6337 129.621C97.3135 126.17 95.1697 120.523 94.0716 118.693C93.4442 118.17 93.0259 117.386 92.8167 116.602L92.3984 114.876C93.3396 114.667 94.2285 114.406 95.1697 114.144C95.6403 114.249 96.1108 114.353 96.5814 114.458C103.327 116.079 117.34 116.393 129.052 126.275C142.647 137.569 141.026 177.987 141.026 177.987Z" fill="#0F172A"/>
<path d="M108.713 127.164C108.451 123.451 104.268 122.981 104.268 122.981C104.268 122.981 107.876 122.719 108.033 119.791C108.137 118.118 106.569 116.497 104.007 115.504C104.686 115.138 105.209 114.667 104.843 113.987C104.007 112.471 100.922 112.21 100.242 111.948C97.5753 110.955 91.8237 105.255 73.7845 103.321C69.1309 102.85 59.4577 102.589 55.6407 104.942V104.889C55.1701 104.889 54.3335 105.569 53.3923 106.562C52.3466 106.615 49.4707 106.928 46.9609 108.497C44.974 109.7 44.6603 111.582 45.6015 112.889C44.3988 113.412 43.1439 114.249 42.2551 115.556C39.693 119.477 45.4969 120.837 48.2158 119.791C48.2158 119.791 43.8237 122.144 45.3923 125.857C46.9609 129.569 51.9805 127.425 51.9805 127.425C51.9805 127.425 47.5884 132.236 51.3008 135.843C55.0132 139.451 59.3531 135.843 59.3531 135.843C59.3531 135.843 57.0002 141.334 60.9217 143.373C64.8433 145.412 67.876 140.026 67.876 140.026C67.876 140.026 66.6211 145.621 70.4381 147.66C74.2551 149.7 76.9217 144.942 77.4969 143.164C77.4969 143.164 77.4969 149.125 82.8825 149.334C86.1766 149.491 87.2747 145.674 87.5884 142.693C88.8956 142.745 89.889 142.693 90.4119 142.589C90.7779 142.484 91.3008 142.223 91.9283 141.909C92.5034 142.955 94.1243 145.308 96.7387 145.151C100.137 144.994 100.974 141.177 99.4577 137.935C99.4577 137.935 102.333 139.87 105.314 137.935C108.347 136 105.628 131.347 103.954 130.719C104.111 130.562 108.974 130.824 108.713 127.164Z" fill="#FFF8F8"/>
<path d="M108.608 127.164C108.503 124.863 106.359 123.399 104.268 123.086C104.111 123.086 104.111 122.824 104.268 122.824C106.098 122.72 108.137 121.36 107.823 119.373C107.51 117.491 105.523 116.497 103.849 115.922C103.483 115.818 103.431 115.295 103.745 115.086C103.954 114.929 104.216 114.72 104.268 114.563C104.372 114.406 104.32 114.354 104.268 114.354C103.327 113.36 101.758 113.36 100.451 113.203C99.8233 113.151 99.0913 112.785 98.5162 112.524C97.0521 111.844 95.4835 110.955 94.0194 110.38C88.0586 107.661 81.6273 106.563 75.3005 105.099C69.8626 103.792 61.1305 102.275 56.2155 105.412L56.1632 105.465C56.4769 105.726 54.8037 105.412 55.0652 104.994C55.0129 104.837 55.0652 104.837 55.0652 104.785V104.733C55.0652 104.733 55.0652 104.68 55.0652 104.837L55.7449 105.465C55.7972 105.465 55.7449 105.465 55.6926 105.465C55.0129 105.778 54.49 106.301 53.9671 106.824C53.8626 106.929 53.7057 106.981 53.5488 107.033C51.6665 107.243 49.7318 107.765 48.1109 108.654C47.3789 109.02 46.6469 109.595 46.2809 110.327C45.9671 111.007 46.0194 111.687 46.4377 112.262C46.6992 112.628 46.6469 113.203 46.2286 113.465C46.1763 113.517 46.124 113.569 46.0194 113.569C44.0325 113.622 41.6273 115.922 42.2547 117.857C42.7253 118.798 43.8756 119.216 44.8691 119.373C45.9671 119.582 47.1175 119.53 48.1109 119.164C48.3724 119.06 48.6861 119.216 48.7907 119.478C48.8952 119.739 48.7907 120.001 48.5292 120.105C46.6469 121.151 44.9737 123.399 46.124 125.543C46.5423 126.537 47.4312 127.06 48.5292 127.112C49.575 127.216 50.7776 126.903 51.771 126.537C52.1893 126.38 52.6599 126.589 52.8691 127.007C52.9737 127.321 52.9214 127.635 52.7122 127.896C51.1436 129.831 49.941 132.916 51.9802 134.85C53.8103 136.89 56.7907 136.419 58.7253 134.85C59.6665 134.066 61.026 135.112 60.5554 136.21C60.1371 137.256 59.8756 138.667 60.0325 139.765C60.1894 141.961 62.5946 143.216 64.4246 141.857C65.3658 141.229 66.2547 140.184 66.8299 139.19C67.5619 137.883 69.6011 138.667 69.3397 140.079C69.2874 140.341 69.2351 140.707 69.2351 141.073C69.1828 142.014 69.2351 143.06 69.4965 143.948C70.0717 146.092 72.5815 147.452 74.2547 145.674C75.1436 144.89 75.9279 143.635 76.2939 142.537C76.8168 141.02 79.0652 141.386 79.0652 142.955C79.1175 144.105 79.4312 145.412 80.1632 146.354C80.9998 147.504 83.039 148.236 84.3462 147.452C85.8103 146.301 86.1763 144.21 86.49 142.327C86.7514 140.759 88.6338 141.439 89.7318 141.282C90.3593 141.229 90.1501 141.282 90.7776 141.02C91.039 140.916 91.2482 140.811 91.5096 140.654C92.0848 140.341 92.7645 140.602 93.026 141.125C93.5488 142.118 94.2809 143.007 95.1175 143.478C99.039 145.36 100.346 141.073 98.9345 137.988C98.673 137.36 99.405 136.785 99.9279 137.151C101.287 138.04 103.17 138.301 104.686 137.569C107.823 136.419 106.202 131.975 104.006 130.72C103.849 130.667 103.797 130.51 103.849 130.354C103.902 130.249 104.006 130.197 104.111 130.197C106.15 130.458 108.817 129.622 108.608 127.164ZM108.869 127.112C109.183 129.778 106.359 130.929 104.111 130.824L104.216 130.301C104.895 130.563 105.314 131.086 105.732 131.556C106.934 133.073 107.771 135.321 106.673 137.151C105.261 139.138 102.333 139.661 100.137 138.772C99.8234 138.667 99.5096 138.51 99.1959 138.301L100.189 137.465C101.131 139.347 101.497 141.752 100.451 143.739C99.3005 145.988 96.2155 146.51 94.124 145.412C92.7645 144.733 91.7711 143.53 91.039 142.275L92.6077 142.746C92.0325 143.06 91.4573 143.373 90.7776 143.582C89.7318 143.792 88.7384 143.792 87.6403 143.739L88.9475 142.641C88.6861 145.099 88.1632 148.027 85.8626 149.7C83.3528 151.373 79.6926 150.38 77.9148 148.079C76.7645 146.563 76.2416 144.837 76.1894 143.007L78.9606 143.478C75.1959 153.622 64.6338 149.648 66.673 139.609L69.1305 140.55C68.6599 141.282 68.2416 141.857 67.6665 142.484C66.5162 143.739 65.0521 144.785 63.222 144.942C60.3985 145.203 57.7318 142.798 57.575 140.027C57.4181 138.354 57.7318 136.837 58.3593 135.269L60.1894 136.628C59.771 136.942 59.4573 137.151 59.039 137.36C55.2743 139.556 50.4639 138.197 49.1044 133.857C48.4769 131.243 49.7318 128.68 51.405 126.746L52.3462 128.053C48.7907 129.465 44.4508 128.524 44.4508 124.027C44.5554 121.883 46.1763 120.262 47.9541 119.216L48.3724 120.158C45.6534 121.151 40.0586 120.001 41.4181 116.131C42.2024 114.301 43.6665 113.099 45.2351 111.896L44.8168 113.256C42.0978 108.184 49.575 105.935 53.3397 105.831L52.9214 106.04C53.6534 105.256 54.4377 104.158 55.6403 104.053C56.0063 104.053 56.3201 104.367 56.3201 104.68C56.3201 104.837 56.3201 104.837 56.3201 104.837C56.3201 104.785 56.3201 104.785 56.3201 104.628C56.5815 104.262 54.9606 103.896 55.2743 104.158L55.3789 104.105C57.4181 103.112 59.7188 102.798 61.9148 102.641C66.4116 102.327 70.9083 102.537 75.405 103.164C83.7711 104.262 92.0325 106.458 99.1959 111.007C100.712 111.948 102.385 111.635 103.954 112.576C104.686 112.994 105.523 113.778 105.209 114.72C105.052 115.243 104.529 115.609 104.111 115.818L104.059 114.929C105 115.347 105.889 115.87 106.621 116.55C109.601 119.216 107.928 122.667 104.163 122.981V122.72C106.516 123.086 108.765 124.707 108.869 127.112Z" fill="#0F172A"/>
<path d="M88.3724 140.602C88.3724 140.602 83.8757 152.68 87.2221 154.824C90.5685 156.968 89.6796 140.027 89.6796 140.027C89.6796 140.027 93.026 154.458 97.3136 153.255C101.601 152.053 91.2482 140.027 90.4639 139.817" fill="#FFF8F8"/>
<path d="M89.6271 141.072C88.0585 143.843 84.9212 151.582 87.2219 154.301C89.1042 155.974 89.1565 148.654 89.1042 147.713C89.0519 145.151 88.8428 142.536 88.3199 140.026L88.3722 139.608C88.5813 138.092 90.8297 138.144 90.9343 139.66C90.9866 142.432 93.3918 153.883 97.2611 152.837C98.516 152.314 97.7317 150.588 97.3134 149.7C95.6402 146.458 93.1304 143.582 90.3068 141.281C90.0977 141.177 89.9408 140.968 89.7317 140.915C89.7317 140.915 89.7317 140.915 89.7839 140.968C89.8362 141.02 89.9408 141.072 90.0454 141.072C89.3134 140.863 88.9473 140.131 89.1042 139.399C89.3134 138.562 90.3068 138.144 91.0388 138.615C91.1957 138.667 91.3003 138.824 91.4049 138.928C92.346 139.974 93.0258 141.124 93.8101 142.222C95.0127 144.209 100.973 152.105 97.4702 153.464C93.3918 155.033 89.7317 143.216 88.3199 140.288L90.9866 139.922C90.7251 142.588 90.5683 145.151 90.3068 147.765C89.9931 150.066 89.9931 152.471 88.8951 154.615C88.3722 155.504 87.431 155.556 86.699 154.876C85.8624 154.144 85.6532 152.941 85.5487 151.948C85.3395 147.922 86.3853 144.105 87.065 140.131C87.2219 139.399 87.9016 138.928 88.6336 139.033C89.6271 139.19 90.0977 140.288 89.6271 141.072Z" fill="#0F172A"/>
<path d="M33.9411 117.49C33.9411 117.49 37.3921 149.176 7.58812 151.581C7.58812 151.581 2.77766 135.686 11.8757 123.66C20.294 112.47 33.9411 117.49 33.9411 117.49Z" fill="#FFF8F8"/>
<path d="M34.15 117.333C34.2546 117.49 34.2023 117.699 34.2546 117.856C34.4115 119.739 34.4638 121.673 34.3592 123.608C33.9409 134.013 29.4442 144.575 19.771 149.49C16.0063 151.425 11.8755 152.471 7.69252 152.941C7.06507 152.994 6.48991 152.628 6.33305 152.052C5.70559 149.699 5.44416 147.451 5.28729 145.098C4.18925 131.346 11.6141 115.137 27.4049 116.026C29.601 116.131 31.7971 116.497 33.8886 117.229C33.9409 117.229 34.0455 117.281 34.15 117.333ZM32.9997 118.222C33.1043 118.379 33.3657 118.588 33.4703 118.588C33.3134 118.536 32.9474 118.431 32.7906 118.379C13.7579 113.36 5.18272 131.817 8.16311 148.079C8.31997 149.124 8.58141 150.222 8.84285 151.216L7.43108 150.275C25.5226 149.02 33.4703 135.32 32.7906 118.327C32.7906 118.222 32.7383 117.804 32.7383 117.699C32.7906 117.856 32.8429 118.118 32.9997 118.222Z" fill="#0F172A"/>
<path d="M115.51 118.589C115.51 118.589 121.576 123.19 127.641 134.589C130.778 140.497 133.497 147.399 139.772 150.432C139.772 150.432 142.857 135.739 136.791 126.902C128.321 114.563 115.51 118.589 115.51 118.589Z" fill="#FFF8F8"/>
<path d="M116.033 118.64C116.085 118.536 116.033 118.274 115.928 118.222L115.981 118.274C118.595 120.418 120.843 122.98 122.935 125.647C125.026 128.366 126.856 131.242 128.53 134.222C131.667 139.765 134.386 146.457 140.399 149.229L138.516 150.17C139.876 142.693 140.19 134.065 136.059 127.372C131.771 120.627 123.928 117.281 116.085 119.006L115.928 119.059H115.824H115.771C115.824 119.059 116.033 118.797 116.033 118.64ZM115.301 118.536C115.353 118.327 115.615 118.327 115.824 118.274C121.732 116.706 128.32 117.961 133.079 121.83C140.974 127.948 142.333 138.196 141.445 147.555C141.34 148.601 141.235 149.647 141.026 150.745C140.869 151.582 139.876 152 139.144 151.634C137.523 150.797 136.007 149.647 134.804 148.34C131.196 144.523 129.209 139.503 126.961 135.006C123.981 129.15 120.425 123.451 115.562 118.954C115.458 118.85 115.301 118.693 115.301 118.536Z" fill="#0F172A"/>
<path d="M53.8101 106.667C52.7643 108.602 51.8231 110.903 51.8231 113.151C51.8754 114.249 52.346 115.295 52.8166 116.288C56.529 123.504 62.9081 129.308 70.1761 132.759C74.3591 134.746 78.8035 136.262 83.3526 136.994C85.5486 137.308 87.8493 137.517 90.0454 137.308L89.6271 137.412C99.5094 132.497 104.111 123.713 99.1434 113.255C98.882 112.733 99.6663 112.262 99.98 112.785C101.287 115.086 102.176 117.595 102.49 120.262C103.692 128.942 97.9931 135.791 90.8297 139.818C90.7251 139.87 90.5682 139.922 90.4114 139.922C89.0519 140.027 87.9016 139.974 86.5944 139.87C80.529 139.347 74.6728 137.308 69.2872 134.484C61.8101 130.615 55.3264 124.393 51.7186 116.706C51.248 115.556 50.7774 114.354 50.7251 113.046C50.882 110.537 51.8754 108.288 53.078 106.144C53.3918 105.726 54.1238 106.197 53.8101 106.667Z" fill="#0F172A"/>
<path d="M88.8951 138.615C89.5749 130.981 89.8363 123.138 88.32 115.608C88.2154 115.138 88.5291 114.615 88.9997 114.51C89.5226 114.405 90.0454 114.772 90.0977 115.294C90.3592 117.229 90.5683 119.216 90.7252 121.151C91.1958 126.798 91.4049 133.02 91.6141 138.719C91.5618 140.602 88.7383 140.497 88.8951 138.615Z" fill="#0F172A"/>
<path d="M89.941 124.654C91.356 124.654 92.5031 123.507 92.5031 122.092C92.5031 120.677 91.356 119.53 89.941 119.53C88.526 119.53 87.3789 120.677 87.3789 122.092C87.3789 123.507 88.526 124.654 89.941 124.654Z" fill="#0F172A"/>
<path d="M90.3067 132.549C91.7217 132.549 92.8688 131.402 92.8688 129.987C92.8688 128.572 91.7217 127.425 90.3067 127.425C88.8917 127.425 87.7446 128.572 87.7446 129.987C87.7446 131.402 88.8917 132.549 90.3067 132.549Z" fill="#0F172A"/>
<path d="M95.9019 128.418C94.8038 133.803 87.6927 137.045 75.7188 132.182C63.2744 127.163 57.8888 115.189 56.5293 111.633C63.9018 97.8293 58.7777 88.2607 58.7777 88.2607C75.7711 86.7966 90.6208 106.666 90.6208 106.666L92.9215 116.496C93.1306 117.333 93.5489 118.065 94.1764 118.588C95.2744 120.522 96.5816 124.967 95.9019 128.418Z" fill="#FFF8F8"/>
<path d="M56.2681 111.79C57.2616 110.274 57.889 108.496 58.3073 106.771C59.0917 103.163 59.3531 99.5026 59.4054 95.8424V94.483C59.2485 93.1235 58.7779 91.7117 58.2551 90.4568C57.5753 88.7836 60.0328 87.7379 60.8171 89.4111C60.9217 89.6202 60.9217 89.9862 60.9217 90.1954C61.0786 97.3065 61.3923 106.457 56.8956 112.365C56.5818 112.679 55.9544 112.208 56.2681 111.79Z" fill="#0F172A"/>
<path d="M91.196 106.561C91.9803 107.032 92.2418 107.659 92.3464 108.286C92.6601 109.541 92.5555 110.901 92.8692 112.208C93.1307 113.463 93.915 114.666 94.1241 115.973C94.3856 117.332 95.1699 120.208 95.4836 121.62C95.5882 121.934 95.379 122.3 95.013 122.352C94.8039 122.404 94.647 122.352 94.4902 122.247C93.8104 121.672 93.4967 121.097 93.0784 120.365C92.3987 119.11 91.9281 117.96 91.5098 116.548C91.1438 115.293 91.3006 113.934 90.9869 112.626C90.7254 111.371 89.9934 110.169 89.732 108.862C89.5751 108.234 89.5228 107.554 89.9934 106.77C90.3071 106.456 90.83 106.352 91.196 106.561Z" fill="#0F172A"/>
<path d="M94.9611 120.365C84.9742 119.842 76.8173 116.705 68.8696 102.535C75.5624 108.444 83.4579 110.692 91.7716 111.738L92.8696 116.548C93.0788 117.385 94.3337 119.842 94.9611 120.365Z" fill="#0F172A"/>
<path d="M94.5431 118.43C96.3209 121.776 97.3667 125.959 96.2686 129.672C95.432 132.286 93.0268 134.221 90.4124 134.953C84.3471 136.574 77.3405 134.012 71.9549 131.136C65.3144 127.423 60.3993 121.201 57.2621 114.404C57.0529 113.881 57.785 113.463 58.0987 113.985C59.1967 116.181 60.4516 118.325 61.8634 120.26C63.2752 122.247 64.8961 124.077 66.7261 125.698C72.0595 130.508 79.2752 133.489 86.4909 133.489C93.9157 133.28 96.7392 129.358 95.0137 122.142C94.7523 120.992 94.334 119.789 93.7588 118.796C93.4451 118.378 94.2294 117.907 94.5431 118.43Z" fill="#0F172A"/>
<path d="M114.778 55.6336C115.719 60.0257 116.19 63.5813 113.628 75.2937C111.118 86.9538 115.981 98.7185 103.641 109.438C95.327 116.653 80.7911 118.013 69.1832 110.117C65.2617 107.451 64.2159 95.0061 61.131 90.2479C59.8238 88.261 59.0395 91.4506 56.0591 88.1564C51.9283 83.6597 46.961 74.614 49.4185 58.614C53.3924 32.6793 73.9414 29.6466 89.1571 32.5224C104.425 35.3983 112.268 44.078 114.778 55.6336Z" fill="#FFF8F8"/>
<path d="M58.6213 92.7575C57.4187 90.7706 55.9024 89.0451 54.4906 87.2151C52.3991 84.3915 50.8305 81.1497 49.7847 77.8033C45.288 63.4765 47.6932 44.8098 60.9743 35.8686C73.2619 27.5549 96.739 30.0647 107.51 40.1039C112.896 44.9667 115.876 52.0255 116.504 59.1366C116.817 63.8948 115.667 68.4961 114.674 73.0974C113.523 77.5942 113.262 82.0909 113.262 86.7445C113.21 91.3981 113 96.2608 111.223 100.653C108.504 107.346 102.804 112.784 95.9547 115.084C86.9612 118.222 76.3468 116.444 68.9743 110.431C68.6606 110.169 68.9743 109.751 69.3403 109.908C79.0135 115.398 91.7194 116.339 101.131 110.012C106.726 106.248 110.595 100.287 111.484 93.5942C112.216 89.0451 112.007 84.4438 112.425 79.8425C112.582 77.8033 113.157 74.9798 113.576 72.9406C114.203 69.5419 114.621 66.1432 114.569 62.7445C114.517 59.3981 113.785 56.1039 112.791 52.9144C109.34 41.568 99.458 34.8752 88.0593 33.0451C71.0135 30.0647 56.1115 36.3915 51.6671 54.117C49.7324 62.7968 48.2161 72.3654 51.8762 80.7837C53.1834 83.9732 55.3272 86.6922 57.7847 89.0451L60.19 91.6072C61.2357 92.653 59.4579 94.0125 58.6213 92.7575Z" fill="#0F172A"/>
<path d="M64.7907 76.1308C64.7907 76.1308 63.1698 68.2876 55.5358 69.2288C48.9476 70.0654 46.6469 85.8563 61.6012 90.2484" fill="#FFF8F8"/>
<path d="M60.9218 83.398C59.7192 82.7182 58.8826 81.5679 58.8303 80.1561C58.8826 79.1104 59.0395 77.9078 58.778 76.862C58.6212 75.8686 57.5754 75.6071 56.7911 75.6594C55.9545 75.8163 55.4316 76.862 55.2748 77.6986C55.2748 77.7509 55.2225 77.9078 55.2225 77.9601C55.1702 78.2215 54.7519 78.2215 54.6473 77.9601C53.9676 75.9208 55.4839 73.6725 57.68 73.9339C60.765 74.1431 61.1833 77.3849 60.6081 79.8424C60.2944 80.8882 60.7127 81.8293 61.2878 82.7182L61.3924 82.8751C61.6539 83.1888 61.2356 83.6071 60.9218 83.398Z" fill="#0F172A"/>
<path d="M102.752 70.5877C103.536 74.3001 105 77.7511 106.83 80.9929C108.451 84.9668 104.268 88.7315 100.556 88.5746C100.138 88.5746 100.085 87.9995 100.451 87.8949C102.804 87.1629 104.948 85.5942 105.314 83.189C105.471 82.457 105.262 81.8295 104.896 81.2021C103.17 77.9602 102.125 74.2478 102.386 70.5877C102.386 70.3262 102.752 70.3262 102.752 70.5877Z" fill="#0F172A"/>
<path d="M64.5297 76.1827C63.327 73.0978 60.7127 70.1697 57.2094 70.222C56.8957 70.1697 56.3728 70.2742 56.0591 70.2742C55.1702 70.3265 54.4381 70.6403 53.7584 71.2677C50.412 74.6141 50.9872 80.5226 53.7061 84.235C54.6473 85.5422 55.8499 86.6926 57.2094 87.6337C58.5689 88.5749 60.0852 89.3069 61.7061 89.9344C62.0721 90.039 61.9153 90.6141 61.5493 90.5618C58.046 89.8298 54.6996 88.1043 52.3989 85.2285C48.8434 80.9409 48.1113 73.7775 52.3466 69.5945C53.2878 68.7579 54.595 68.1305 55.9022 68.1305C56.3205 68.1305 56.948 68.0259 57.3663 68.1305C59.5623 68.235 61.6538 69.3331 63.0133 71.0586C64.2159 72.5226 64.8957 74.3004 65.1048 76.0782C65.1048 76.3919 64.6342 76.4965 64.5297 76.1827Z" fill="#0F172A"/>
<path d="M97.5749 93.5954C97.6272 95.3209 95.0651 99.7131 90.1501 97.6738C85.3919 95.7392 83.9801 86.6412 90.7775 90.981C94.2285 93.2817 96.4246 93.6477 97.5749 93.5954Z" fill="#FFF8F8"/>
<path d="M98.6731 93.6478C97.2613 94.1184 95.9018 93.7001 94.5946 93.2295C92.66 92.5497 91.0914 91.2948 89.2613 90.4059C86.7515 89.2033 85.758 90.8243 86.4377 93.1772C87.1175 95.687 89.3136 97.8831 92.0325 97.9877C94.4378 98.2491 96.9998 96.053 96.7907 93.5955C96.5815 92.5497 98.0979 92.236 98.3593 93.2295C98.307 95.0073 97.209 96.2622 96.0587 97.3079C93.758 99.1903 90.2547 98.772 87.9541 97.0465C86.1763 95.6347 84.7123 93.3863 85.026 90.9811C85.1306 89.9354 86.124 88.7328 87.2221 88.6805C89.7842 88.4713 91.3005 90.1968 93.2874 91.3471C94.8561 92.236 96.6338 93.3341 98.4639 93.1772C98.7776 93.0726 98.9868 93.4909 98.6731 93.6478Z" fill="#0F172A"/>
<path d="M86.542 91.7123C87.3786 92.915 88.6858 93.5424 90.0453 93.8561C90.359 93.9607 90.6204 93.9607 90.8818 93.9607C91.3524 93.9607 91.823 94.3267 92.0845 94.5882C93.3394 95.5816 95.0649 95.7385 96.6335 95.7908C96.9995 95.7908 96.9995 96.4182 96.6335 96.3659C94.9603 96.2614 93.1825 96.1045 91.6139 95.3202C91.3002 95.2156 91.1433 95.111 90.8818 95.111C89.8884 95.2156 89.1041 94.5882 88.3721 94.1699C87.5354 93.6993 86.6988 93.2287 85.7054 93.0195C85.2348 92.915 84.9734 92.4967 85.0256 92.0261C85.1302 91.294 86.176 91.0849 86.542 91.7123Z" fill="#0F172A"/>
<path d="M83.2484 75.9213C81.9935 75.869 81.0523 74.8233 81.1569 73.5684L81.2091 72.1043C81.2614 70.8494 82.3072 69.9082 83.5621 70.0128C84.817 70.0651 85.7582 71.1109 85.6536 72.3658L85.6013 73.8298C85.549 75.0324 84.5033 75.9736 83.2484 75.9213Z" fill="#0F172A"/>
<path d="M105.261 76.7058C104.111 76.6535 103.222 75.6601 103.274 74.5097L103.326 73.1502C103.379 71.9999 104.372 71.111 105.523 71.1633C106.673 71.2156 107.562 72.2091 107.509 73.3594L107.457 74.7189C107.405 75.8692 106.411 76.7581 105.261 76.7058Z" fill="#0F172A"/>
<path d="M87.9541 73.0982C86.2286 71.9479 84.3463 71.1636 82.2548 71.5819C81.575 71.6865 80.8953 71.8956 80.477 72.3662C80.3201 72.5754 79.9541 72.5231 79.9541 72.2093C80.0064 71.1636 80.8953 70.4839 81.7319 70.0656C83.3528 69.229 85.6012 69.3858 87.0652 70.4839C87.5881 70.7976 89.3659 72.7322 88.4247 73.1505C88.2155 73.2551 88.111 73.2028 87.9541 73.0982Z" fill="#0F172A"/>
<path d="M102.908 73.3589C102.908 71.1628 105.627 70.3785 107.3 71.1628C108.242 71.5811 108.921 72.4177 109.183 73.4112C109.287 73.7249 108.817 73.9864 108.608 73.7249C107.719 72.6792 106.202 72.1563 105 72.7837C104.634 72.9929 104.581 73.1498 104.477 73.3589C104.477 74.4047 102.96 74.3524 102.908 73.3589Z" fill="#0F172A"/>
<path d="M90.464 64.4709C91.562 64.8369 92.6601 63.8434 92.4509 62.6408C92.3463 62.0134 92.0849 61.3859 91.562 60.9153C89.9934 59.5036 83.5097 58.2487 79.5882 60.0787C76.1372 61.7519 85.4444 62.7977 90.464 64.4709Z" fill="#0F172A"/>
<path d="M106.098 65.307C105.209 65.6208 104.268 64.6796 104.425 63.5815C104.477 63.0064 104.686 62.4312 105.105 62.0129C106.36 60.758 110.647 59.7646 113.366 61.6992C115.719 63.3201 110.177 63.7907 106.098 65.307Z" fill="#0F172A"/>
<path d="M118.962 64.3655C121.315 56.3132 117.236 50.7184 114.308 47.9995C112.949 44.3394 110.648 40.7315 106.988 37.9603C106.256 37.3851 105.472 36.8622 104.583 36.3916C103.851 35.9733 103.067 35.6073 102.282 35.2413C95.3802 32.2609 84.3475 28.7577 73.4194 30.64C69.2364 31.3197 65.0534 32.8361 61.1319 35.3982C61.0796 35.3982 61.0796 35.4505 61.0796 35.4505C60.7658 35.6596 60.4521 35.8688 60.1907 36.0779C59.4587 35.189 58.6221 34.4047 57.6809 33.6727C51.1449 28.7577 44.0338 29.5943 39.1188 36.1825C34.2037 42.7184 33.3671 52.4962 39.9031 57.4113C41.9423 58.9276 44.243 59.8688 46.5959 60.2348C46.5436 60.4962 46.5436 60.8099 46.4913 61.0714C43.6155 86.8492 63.3279 98.457 61.8116 90.3524C61.3933 90.1956 61.1841 90.0387 61.1841 89.9341C46.7005 85.3328 49.0011 69.8557 55.5371 69.0191C57.89 68.7054 59.6155 69.2805 60.975 70.1171C61.4979 70.64 61.9685 71.1106 62.439 71.5812C63.694 73.1498 64.792 75.1367 64.792 75.9211C64.8443 75.2936 64.8966 74.5616 65.0534 73.8296C71.3802 78.5354 77.0796 76.8622 87.4325 60.3394C94.2822 49.4113 98.3606 47.2675 100.609 47.5812C101.498 47.8949 102.334 48.5746 103.119 49.725C103.328 50.0387 103.537 50.3524 103.694 50.6662C108.295 50.5616 110.439 53.2282 111.537 55.9995C111.537 55.9995 111.537 55.9995 111.537 56.0518C112.426 58.4047 112.531 60.8099 112.635 61.4374C112.635 61.542 112.635 61.5943 112.687 61.5943C112.583 63.6858 112.321 67.2413 112.269 71.8426C112.269 73.9341 112.478 78.1171 112.321 80.5224C112.269 81.2544 112.217 81.9864 112.165 82.6662C112.112 83.0322 112.112 83.3982 112.06 83.7119C112.008 84.0256 112.008 84.3917 111.955 84.7577C111.903 85.176 111.851 85.542 111.851 85.9603C112.897 87.2152 114.413 87.4243 115.668 88.2609C115.982 84.7054 115.04 81.725 114.674 77.6988C114.988 79.0583 115.406 80.3655 116.034 81.725C118.125 86.2217 116.975 89.5158 116.975 89.5158L120.426 89.725C120.792 88.7315 121.106 86.9015 120.008 84.4962C118.334 80.7838 118.23 79.0583 118.23 79.0583C118.23 79.0583 119.119 82.091 120.792 84.1302C122.099 85.8034 122.622 88.0518 122.099 89.8296L123.354 89.9341C127.119 84.2871 115.459 76.2348 118.962 64.3655ZM76.2953 68.9145C72.3214 71.7903 68.975 71.2152 66.9358 70.3263C66.9881 70.3263 67.0404 70.274 67.0404 70.274C68.2953 70.1694 69.5502 69.908 70.7528 69.4374C76.5044 67.3982 81.8377 62.1171 86.5436 57.2544C82.5698 62.1694 78.7528 67.1367 76.2953 68.9145Z" fill="#0F172A"/>
<path d="M105.784 82.666C105.784 82.666 106.412 86.2216 110.542 87.9993C111.588 88.4176 112.686 87.7379 112.686 86.5876C112.634 86.5876 106.046 83.0843 105.784 82.666Z" fill="#0F172A"/>
<path d="M73.4702 82.6663C73.4702 82.6663 75.4048 87.0585 81.2088 88.1042C87.0127 89.2022 92.2938 85.0192 94.7513 78.0127C94.7513 78.0127 92.7643 84.4964 84.8166 85.699C76.9735 87.0062 73.4702 82.6663 73.4702 82.6663Z" fill="#0F172A"/>
<path d="M95.9019 72.8888C95.745 80.3659 89.732 86.379 82.464 86.379C75.196 86.379 69.3921 80.3659 69.3921 72.8888C69.4444 65.3594 75.4574 59.1895 82.83 59.1895C90.2026 59.1895 96.1111 65.3594 95.9019 72.8888Z" stroke="#0F172A" stroke-width="0.369231" stroke-miterlimit="10" stroke-linecap="round" stroke-linejoin="round"/>
<path d="M103.065 71.1629C103.902 64.4178 108.294 59.1367 113.471 59.1367C119.065 59.1367 123.353 65.3067 123.039 72.8361C122.726 80.3132 118.02 86.3263 112.529 86.3263C110.49 86.3263 108.66 85.542 107.144 84.1302" stroke="#0F172A" stroke-width="0.369231" stroke-miterlimit="10" stroke-linecap="round" stroke-linejoin="round"/>
<path d="M69.5489 71.4248H62.124" stroke="#0F172A" stroke-width="0.369231" stroke-miterlimit="10" stroke-linecap="round" stroke-linejoin="round"/>
<path d="M95.9541 71.4245C95.9541 71.4245 102.176 69.0192 102.961 71.4245" stroke="#0F172A" stroke-width="0.369231" stroke-miterlimit="10" stroke-linecap="round" stroke-linejoin="round"/>
<path d="M150.908 44.079C182.646 105.203 126.856 174.171 60.3458 157.334C30.4895 149.909 6.48953 124.027 1.52221 93.6476C-4.12485 63.4254 9.52221 30.9548 35.0386 13.8568C70.019 -10.1955 118.49 -2.19553 143.535 32.2097C143.692 32.3666 143.64 32.628 143.431 32.7849C143.274 32.9417 143.012 32.8894 142.856 32.6803C139.405 28.2358 135.483 24.2097 131.195 20.6019C124.137 14.5888 115.875 9.8829 107.143 6.69336C62.6987 -9.41122 13.9144 17.36 4.18888 63.8437C-6.79152 115.922 37.4961 163.87 90.3065 156.706C131.039 151.582 161.313 113.988 157.967 73.0986C157.235 63.2163 154.62 53.4385 150.28 44.445C150.176 44.2881 150.28 44.079 150.437 43.9744C150.594 43.8698 150.803 43.9221 150.908 44.079Z" fill="#0F172A"/>
</g>
</svg>
