<svg width="32" height="67" viewBox="0 0 32 67" fill="none" xmlns="http://www.w3.org/2000/svg">
<g clip-path="url(#clip0_1713_744)">
<rect x="1" y="1" width="30" height="46" rx="15" stroke="#64748B" stroke-width="2"/>
<rect x="14" y="12" width="4" height="8" rx="2" fill="#64748B"/>
<path fill-rule="evenodd" clip-rule="evenodd" d="M11.293 54.293C10.9025 54.6836 10.9025 55.3167 11.293 55.7073L15.5357 59.9499C15.7683 60.1826 16.0871 60.2766 16.3894 60.232C16.6917 60.2766 17.0105 60.1826 17.2431 59.9499L21.4858 55.7073C21.8763 55.3167 21.8763 54.6836 21.4858 54.293C21.0952 53.9025 20.4621 53.9025 20.0716 54.293L16.3894 57.9752L12.7073 54.293C12.3167 53.9025 11.6836 53.9025 11.293 54.293Z" fill="#64748B"/>
<path fill-rule="evenodd" clip-rule="evenodd" d="M11.293 60.293C10.9025 60.6836 10.9025 61.3167 11.293 61.7073L15.5357 65.9499C15.7683 66.1826 16.0871 66.2766 16.3894 66.232C16.6917 66.2766 17.0105 66.1826 17.2431 65.9499L21.4858 61.7073C21.8763 61.3167 21.8763 60.6836 21.4858 60.293C21.0952 59.9025 20.4621 59.9025 20.0716 60.293L16.3894 63.9752L12.7073 60.293C12.3167 59.9025 11.6836 59.9025 11.293 60.293Z" fill="#64748B"/>
</g>
<defs>
<clipPath id="clip0_1713_744">
<rect width="32" height="67" fill="white"/>
</clipPath>
</defs>
</svg>
