<svg width="32" height="67" viewBox="0 0 32 67" fill="none" xmlns="http://www.w3.org/2000/svg">
<g clip-path="url(#clip0_1713_735)">
<rect x="1" y="1" width="30" height="46" rx="15" stroke="#94A3B8" stroke-width="2"/>
<rect x="14" y="12" width="4" height="8" rx="2" fill="#94A3B8"/>
<path fill-rule="evenodd" clip-rule="evenodd" d="M11.2929 54.2929C10.9024 54.6834 10.9024 55.3166 11.2929 55.7071L15.5355 59.9497C15.7682 60.1824 16.087 60.2765 16.3893 60.2319C16.6915 60.2765 17.0103 60.1824 17.243 59.9497L21.4856 55.7071C21.8761 55.3166 21.8761 54.6834 21.4856 54.2929C21.0951 53.9024 20.4619 53.9024 20.0714 54.2929L16.3893 57.975L12.7071 54.2929C12.3166 53.9024 11.6834 53.9024 11.2929 54.2929Z" fill="#94A3B8"/>
<path fill-rule="evenodd" clip-rule="evenodd" d="M11.2929 60.2929C10.9024 60.6834 10.9024 61.3166 11.2929 61.7071L15.5355 65.9497C15.7682 66.1824 16.087 66.2765 16.3893 66.2319C16.6915 66.2765 17.0103 66.1824 17.243 65.9497L21.4856 61.7071C21.8761 61.3166 21.8761 60.6834 21.4856 60.2929C21.0951 59.9024 20.4619 59.9024 20.0714 60.2929L16.3893 63.975L12.7071 60.2929C12.3166 59.9024 11.6834 59.9024 11.2929 60.2929Z" fill="#94A3B8"/>
</g>
<defs>
<clipPath id="clip0_1713_735">
<rect width="32" height="67" fill="white"/>
</clipPath>
</defs>
</svg>
