<svg width="117" height="24" viewBox="0 0 117 24" fill="none" xmlns="http://www.w3.org/2000/svg">
<g clip-path="url(#clip0_1722_2321)">
<rect width="11.3827" height="4.20524" rx="0.956938" transform="matrix(0.893235 -0.44959 -0.44959 -0.893235 4.39062 18.8484)" fill="#94A3B8"/>
<rect x="11.0889" y="9.97467" width="11.3827" height="4.20524" rx="0.956938" transform="rotate(26.7174 11.0889 9.97467)" fill="#94A3B8"/>
<rect x="9.83691" y="14.3828" width="11.3827" height="4.20524" rx="0.956938" transform="rotate(-90 9.83691 14.3828)" fill="#94A3B8"/>
<rect x="4.39062" y="6.50885" width="11.3827" height="4.20524" rx="0.956938" transform="rotate(26.7174 4.39062 6.50885)" fill="#CBD5E1"/>
<rect width="7.61044" height="4.20524" rx="0.637959" transform="matrix(0.893235 -0.44959 -0.44959 -0.893235 11.0889 15.3827)" fill="#CBD5E1"/>
<rect width="4.20415" height="4.20524" rx="0.637959" transform="matrix(0.893235 -0.44959 -0.44959 -0.893235 18.7451 11.5172)" fill="#94A3B8"/>
<rect width="11.3827" height="4.20524" rx="0.956938" transform="matrix(-4.37114e-08 1 1 4.37114e-08 9.83691 10.3366)" fill="#CBD5E1"/>
<g clip-path="url(#clip1_1722_2321)">
<path d="M35.8349 22.5C34.2284 22.5 32.8389 22.1662 31.6664 21.4986C30.5155 20.8114 29.6679 19.8492 29.1235 18.6122C28.5819 17.3555 28.4312 15.8731 28.6713 14.1648L30.0388 4.43382C30.2666 2.81352 31.7776 1.5 33.4138 1.5V1.5C35.0501 1.5 36.1919 2.81352 35.9642 4.43382L34.5966 14.1648C34.5138 14.7539 34.5365 15.2644 34.6648 15.6964C34.812 16.1283 35.0472 16.4719 35.3705 16.7272C35.6965 16.9628 36.1052 17.0806 36.5966 17.0806C37.088 17.0806 37.5298 16.9628 37.922 16.7272C38.317 16.4719 38.6394 16.1283 38.8891 15.6964C39.1577 15.2644 39.3334 14.7539 39.4162 14.1648L40.7798 4.4619C41.0097 2.82609 42.5352 1.5 44.1871 1.5V1.5C45.839 1.5 46.9918 2.82609 46.7619 4.4619L45.3982 14.1648C45.3154 14.7539 45.3382 15.2644 45.4665 15.6964C45.5948 16.1283 45.8205 16.4719 46.1438 16.7272C46.4887 16.9628 46.9068 17.0806 47.3982 17.0806C47.8896 17.0806 48.3315 16.9628 48.7237 16.7272C49.1187 16.4719 49.441 16.1283 49.6907 15.6964C49.9593 15.2644 50.1351 14.7539 50.2178 14.1648L51.5874 4.41979C51.814 2.80723 53.3178 1.5 54.9462 1.5V1.5C56.5746 1.5 57.711 2.80723 57.4844 4.41978L56.1148 14.1648C55.8747 15.8731 55.3073 17.3555 54.4124 18.6122C53.5393 19.8492 52.4307 20.8114 51.0866 21.4986C49.7454 22.1662 48.262 22.5 46.6366 22.5C45.8995 22.5 45.2112 22.4215 44.5717 22.2644C43.9512 22.1073 43.3781 21.8815 42.8525 21.587V21.587C41.9993 21.091 40.826 21.0666 39.8393 21.5765C39.8325 21.58 39.8257 21.5835 39.819 21.587C39.2295 21.8815 38.6024 22.1073 37.9377 22.2644C37.273 22.4215 36.5721 22.5 35.8349 22.5Z" fill="#94A3B8"/>
<path d="M59.1776 22.3765C57.7804 22.3765 56.8054 21.2549 56.9999 19.8713L57.1249 18.9819C57.2503 18.0895 58.0825 17.3661 58.9836 17.3661V17.3661C59.8848 17.3661 60.7169 16.6427 60.8423 15.7504L61.8965 8.24965C62.0219 7.35729 61.3931 6.63389 60.4919 6.63389V6.63389C59.5908 6.63389 58.962 5.91049 59.0874 5.01812L59.2124 4.12871C59.4068 2.74514 60.6971 1.62354 62.0943 1.62354L70.0579 1.62354C71.455 1.62354 72.43 2.74514 72.2356 4.12871L72.1127 5.0033C71.9861 5.90385 71.1463 6.63389 70.2369 6.63389V6.63389C69.3275 6.63389 68.4877 7.36393 68.3611 8.26448L67.3111 15.7355C67.1846 16.6361 67.8192 17.3661 68.7286 17.3661V17.3661C69.638 17.3661 70.2726 18.0962 70.146 18.9967L70.0231 19.8713C69.8287 21.2549 68.5384 22.3765 67.1412 22.3765L59.1776 22.3765Z" fill="#94A3B8"/>
<path d="M74.8783 22.5C73.4645 22.5 72.4779 21.365 72.6747 19.965V19.965C72.8714 18.565 74.1771 17.43 75.5909 17.43L83.7973 17.43C84.2081 17.43 84.5563 17.36 84.8418 17.22C85.1515 17.08 85.3943 16.9 85.5702 16.68C85.7731 16.44 85.8928 16.19 85.9293 15.93C85.9687 15.65 85.9192 15.4 85.781 15.18C85.6697 14.94 85.4789 14.75 85.2086 14.61C84.9624 14.47 84.6339 14.4 84.2231 14.4L80.9606 14.4C79.3897 14.4 77.999 14.15 76.7885 13.65C75.5779 13.15 74.652 12.43 74.0108 11.49C73.3965 10.53 73.1836 9.38 73.3719 8.04C73.5574 6.72 74.0815 5.57 74.9443 4.59C75.807 3.61 76.8926 2.85 78.201 2.31C79.5094 1.77 80.9127 1.5 82.4111 1.5L91.415 1.5C92.8288 1.5 93.8154 2.63496 93.6186 4.035V4.035C93.4219 5.43504 92.1162 6.57 90.7024 6.57L82.7498 6.57C82.4114 6.57 82.1009 6.63 81.8182 6.75C81.5597 6.87 81.3439 7.03 81.1708 7.23C81.0218 7.43 80.9305 7.65 80.8968 7.89C80.863 8.13 80.8925 8.35 80.9852 8.55C81.1021 8.75 81.2716 8.92 81.4936 9.06C81.7425 9.18 82.0362 9.24 82.3745 9.24L85.8908 9.24C87.6067 9.24 89.067 9.51 90.272 10.05C91.4798 10.57 92.368 11.3 92.9367 12.24C93.5055 13.18 93.6999 14.29 93.52 15.57C93.3148 17.03 92.7645 18.28 91.8692 19.32C90.998 20.36 89.9083 21.15 88.5999 21.69C87.2915 22.23 85.8881 22.5 84.3897 22.5L74.8783 22.5Z" fill="#94A3B8"/>
<path d="M102.151 22.5C100.695 22.5 99.3963 22.24 98.2556 21.72C97.1392 21.2 96.2923 20.49 95.7148 19.59C95.1401 18.67 94.9371 17.61 95.1057 16.41C95.2378 15.47 95.6164 14.59 96.2414 13.77C96.3148 13.6754 96.3904 13.5827 96.4683 13.4916C97.3471 12.464 97.6013 10.8357 97.0571 9.78V9.78C96.6784 9.02 96.5452 8.24 96.6577 7.44C96.8235 6.26 97.3081 5.23 98.1115 4.35C98.942 3.45 99.9749 2.75 101.21 2.25C102.47 1.75 103.804 1.5 105.212 1.5L113.976 1.5C115.39 1.5 116.377 2.63496 116.18 4.035V4.035C115.983 5.43504 114.678 6.57 113.264 6.57L106.247 6.57C105.859 6.57 105.498 6.63 105.166 6.75C104.836 6.85 104.559 7.01 104.334 7.23C104.136 7.43 104.014 7.69 103.969 8.01C103.927 8.31 103.976 8.57 104.115 8.79C104.281 8.99 104.513 9.15 104.812 9.27C105.113 9.37 105.458 9.42 105.847 9.42L111.604 9.42C113.01 9.42 113.99 10.5482 113.795 11.94V11.94C113.599 13.3318 112.301 14.46 110.896 14.46L105.175 14.46C104.762 14.46 104.39 14.52 104.057 14.64C103.725 14.76 103.446 14.93 103.221 15.15C103.02 15.37 102.897 15.64 102.852 15.96C102.81 16.26 102.858 16.52 102.997 16.74C103.161 16.96 103.392 17.13 103.69 17.25C103.992 17.35 104.349 17.4 104.762 17.4L111.727 17.4C113.149 17.4 114.141 18.5417 113.943 19.95V19.95C113.745 21.3583 112.432 22.5 111.01 22.5L102.151 22.5Z" fill="#94A3B8"/>
</g>
</g>
<defs>
<clipPath id="clip0_1722_2321">
<rect width="116.037" height="24" fill="white" transform="translate(0.5)"/>
</clipPath>
<clipPath id="clip1_1722_2321">
<rect width="89.0368" height="21" fill="white" transform="translate(27.5 1.5)"/>
</clipPath>
</defs>
</svg>
