<svg width="117" height="24" viewBox="0 0 117 24" fill="none" xmlns="http://www.w3.org/2000/svg">
<g clip-path="url(#clip0_1698_1024)">
<rect width="11.3827" height="4.20524" rx="0.956938" transform="matrix(0.893235 -0.44959 -0.44959 -0.893235 3.89062 18.8484)" fill="#94A3B8"/>
<rect x="10.5889" y="9.97467" width="11.3827" height="4.20524" rx="0.956938" transform="rotate(26.7174 10.5889 9.97467)" fill="#94A3B8"/>
<rect x="9.33691" y="14.3828" width="11.3827" height="4.20524" rx="0.956938" transform="rotate(-90 9.33691 14.3828)" fill="#94A3B8"/>
<rect x="3.89062" y="6.50885" width="11.3827" height="4.20524" rx="0.956938" transform="rotate(26.7174 3.89062 6.50885)" fill="#AA55FF"/>
<rect width="7.61044" height="4.20524" rx="0.637959" transform="matrix(0.893235 -0.44959 -0.44959 -0.893235 10.5889 15.3827)" fill="#AA55FF"/>
<rect width="4.20415" height="4.20524" rx="0.637959" transform="matrix(0.893235 -0.44959 -0.44959 -0.893235 18.2451 11.5172)" fill="#33E364"/>
<rect width="11.3827" height="4.20524" rx="0.956938" transform="matrix(-4.37114e-08 1 1 4.37114e-08 9.33691 10.3366)" fill="#AA55FF"/>
<g clip-path="url(#clip1_1698_1024)">
<path d="M35.3349 22.5C33.7284 22.5 32.3389 22.1662 31.1664 21.4986C30.0155 20.8114 29.1679 19.8492 28.6235 18.6122C28.0819 17.3555 27.9312 15.8731 28.1713 14.1648L29.5388 4.43382C29.7666 2.81352 31.2776 1.5 32.9138 1.5V1.5C34.5501 1.5 35.6919 2.81352 35.4642 4.43382L34.0966 14.1648C34.0138 14.7539 34.0365 15.2644 34.1648 15.6964C34.312 16.1283 34.5472 16.4719 34.8705 16.7272C35.1965 16.9628 35.6052 17.0806 36.0966 17.0806C36.588 17.0806 37.0298 16.9628 37.422 16.7272C37.817 16.4719 38.1394 16.1283 38.3891 15.6964C38.6577 15.2644 38.8334 14.7539 38.9162 14.1648L40.2798 4.4619C40.5097 2.82609 42.0352 1.5 43.6871 1.5V1.5C45.339 1.5 46.4918 2.82609 46.2619 4.4619L44.8982 14.1648C44.8154 14.7539 44.8382 15.2644 44.9665 15.6964C45.0948 16.1283 45.3205 16.4719 45.6438 16.7272C45.9887 16.9628 46.4068 17.0806 46.8982 17.0806C47.3896 17.0806 47.8315 16.9628 48.2237 16.7272C48.6187 16.4719 48.941 16.1283 49.1907 15.6964C49.4593 15.2644 49.6351 14.7539 49.7178 14.1648L51.0874 4.41979C51.314 2.80723 52.8178 1.5 54.4462 1.5V1.5C56.0746 1.5 57.211 2.80723 56.9844 4.41978L55.6148 14.1648C55.3747 15.8731 54.8073 17.3555 53.9124 18.6122C53.0393 19.8492 51.9307 20.8114 50.5866 21.4986C49.2454 22.1662 47.762 22.5 46.1366 22.5C45.3995 22.5 44.7112 22.4215 44.0717 22.2644C43.4512 22.1073 42.8781 21.8815 42.3525 21.587V21.587C41.4993 21.091 40.326 21.0666 39.3393 21.5765C39.3325 21.58 39.3257 21.5835 39.319 21.587C38.7295 21.8815 38.1024 22.1073 37.4377 22.2644C36.773 22.4215 36.0721 22.5 35.3349 22.5Z" fill="#AA55FF"/>
<path d="M58.6776 22.3765C57.2804 22.3765 56.3054 21.2549 56.4999 19.8713L56.6249 18.9819C56.7503 18.0895 57.5825 17.3661 58.4836 17.3661V17.3661C59.3848 17.3661 60.2169 16.6427 60.3423 15.7504L61.3965 8.24965C61.5219 7.35729 60.8931 6.63389 59.9919 6.63389V6.63389C59.0908 6.63389 58.462 5.91049 58.5874 5.01812L58.7124 4.12871C58.9068 2.74514 60.1971 1.62354 61.5943 1.62354L69.5579 1.62354C70.955 1.62354 71.93 2.74514 71.7356 4.12871L71.6127 5.0033C71.4861 5.90385 70.6463 6.63389 69.7369 6.63389V6.63389C68.8275 6.63389 67.9877 7.36393 67.8611 8.26448L66.8111 15.7355C66.6846 16.6361 67.3192 17.3661 68.2286 17.3661V17.3661C69.138 17.3661 69.7726 18.0962 69.646 18.9967L69.5231 19.8713C69.3287 21.2549 68.0384 22.3765 66.6412 22.3765L58.6776 22.3765Z" fill="#AA55FF"/>
<path d="M74.3783 22.5C72.9645 22.5 71.9779 21.365 72.1747 19.965V19.965C72.3714 18.565 73.6771 17.43 75.0909 17.43L83.2973 17.43C83.7081 17.43 84.0563 17.36 84.3418 17.22C84.6515 17.08 84.8943 16.9 85.0702 16.68C85.2731 16.44 85.3928 16.19 85.4293 15.93C85.4687 15.65 85.4192 15.4 85.281 15.18C85.1697 14.94 84.9789 14.75 84.7086 14.61C84.4624 14.47 84.1339 14.4 83.7231 14.4L80.4606 14.4C78.8897 14.4 77.499 14.15 76.2885 13.65C75.0779 13.15 74.152 12.43 73.5108 11.49C72.8965 10.53 72.6836 9.38 72.8719 8.04C73.0574 6.72 73.5815 5.57 74.4443 4.59C75.307 3.61 76.3926 2.85 77.701 2.31C79.0094 1.77 80.4127 1.5 81.9111 1.5L90.915 1.5C92.3288 1.5 93.3154 2.63496 93.1186 4.035V4.035C92.9219 5.43504 91.6162 6.57 90.2024 6.57L82.2498 6.57C81.9114 6.57 81.6009 6.63 81.3182 6.75C81.0597 6.87 80.8439 7.03 80.6708 7.23C80.5218 7.43 80.4305 7.65 80.3968 7.89C80.363 8.13 80.3925 8.35 80.4852 8.55C80.6021 8.75 80.7716 8.92 80.9936 9.06C81.2425 9.18 81.5362 9.24 81.8745 9.24L85.3908 9.24C87.1067 9.24 88.567 9.51 89.772 10.05C90.9798 10.57 91.868 11.3 92.4367 12.24C93.0055 13.18 93.1999 14.29 93.02 15.57C92.8148 17.03 92.2645 18.28 91.3692 19.32C90.498 20.36 89.4083 21.15 88.0999 21.69C86.7915 22.23 85.3881 22.5 83.8897 22.5L74.3783 22.5Z" fill="#AA55FF"/>
<path d="M101.651 22.5C100.195 22.5 98.8963 22.24 97.7556 21.72C96.6392 21.2 95.7923 20.49 95.2148 19.59C94.6401 18.67 94.4371 17.61 94.6057 16.41C94.7378 15.47 95.1164 14.59 95.7414 13.77C95.8148 13.6754 95.8904 13.5827 95.9683 13.4916C96.8471 12.464 97.1013 10.8357 96.5571 9.78V9.78C96.1784 9.02 96.0452 8.24 96.1577 7.44C96.3235 6.26 96.8081 5.23 97.6115 4.35C98.442 3.45 99.4749 2.75 100.71 2.25C101.97 1.75 103.304 1.5 104.712 1.5L113.476 1.5C114.89 1.5 115.877 2.63496 115.68 4.035V4.035C115.483 5.43504 114.178 6.57 112.764 6.57L105.747 6.57C105.359 6.57 104.998 6.63 104.666 6.75C104.336 6.85 104.059 7.01 103.834 7.23C103.636 7.43 103.514 7.69 103.469 8.01C103.427 8.31 103.476 8.57 103.615 8.79C103.781 8.99 104.013 9.15 104.312 9.27C104.613 9.37 104.958 9.42 105.347 9.42L111.104 9.42C112.51 9.42 113.49 10.5482 113.295 11.94V11.94C113.099 13.3318 111.801 14.46 110.396 14.46L104.675 14.46C104.262 14.46 103.89 14.52 103.557 14.64C103.225 14.76 102.946 14.93 102.721 15.15C102.52 15.37 102.397 15.64 102.352 15.96C102.31 16.26 102.358 16.52 102.497 16.74C102.661 16.96 102.892 17.13 103.19 17.25C103.492 17.35 103.849 17.4 104.262 17.4L111.227 17.4C112.649 17.4 113.641 18.5417 113.443 19.95V19.95C113.245 21.3583 111.932 22.5 110.51 22.5L101.651 22.5Z" fill="#AA55FF"/>
</g>
</g>
<defs>
<clipPath id="clip0_1698_1024">
<rect width="116.037" height="24" fill="white"/>
</clipPath>
<clipPath id="clip1_1698_1024">
<rect width="89.0368" height="21" fill="white" transform="translate(27 1.5)"/>
</clipPath>
</defs>
</svg>
