<svg width="161" height="160" viewBox="0 0 161 160" fill="none" xmlns="http://www.w3.org/2000/svg">
<mask id="mask0_1717_2133" style="mask-type:alpha" maskUnits="userSpaceOnUse" x="0" y="0" width="160" height="160">
<ellipse cx="80.1684" cy="79.7377" rx="79.7378" ry="79.7377" fill="#D9D9D9"/>
</mask>
<g mask="url(#mask0_1717_2133)">
<path d="M123.882 145.568C123.516 145.829 123.097 146.091 122.731 146.352C122.313 146.614 121.947 146.875 121.529 147.084C121.163 147.293 120.849 147.502 120.483 147.712C120.431 147.764 120.378 147.764 120.326 147.816C119.123 148.548 117.869 149.228 116.614 149.855C116.248 150.064 115.829 150.274 115.463 150.431C115.463 150.431 115.411 150.483 115.359 150.483C114.94 150.692 114.522 150.901 114.104 151.11C113.267 151.529 112.378 151.895 111.542 152.261C111.123 152.47 110.653 152.627 110.235 152.783C109.816 152.94 109.346 153.149 108.927 153.306C108.509 153.463 108.039 153.672 107.62 153.829C107.62 153.829 107.62 153.829 107.568 153.829C107.15 153.986 106.679 154.143 106.261 154.3C105.32 154.614 104.326 154.927 103.385 155.241C103.071 155.346 102.705 155.45 102.391 155.555C101.398 155.868 100.405 156.13 99.4111 156.339C99.045 156.444 98.679 156.496 98.2607 156.6C97.3195 156.81 96.3261 157.019 95.3849 157.228C95.1758 157.28 95.0189 157.28 94.8097 157.332C94.496 157.385 94.13 157.437 93.8163 157.489C93.3457 157.542 92.9274 157.646 92.4568 157.698C92.2477 157.751 92.0385 157.751 91.8294 157.803C91.5679 157.855 91.2542 157.908 90.9405 157.908C90.1039 158.012 89.215 158.117 88.3784 158.221C88.1169 158.274 87.8032 158.274 87.5418 158.326H87.4895C87.1235 158.378 86.7575 158.378 86.3914 158.431C86.0254 158.483 85.6594 158.483 85.2934 158.483C85.0843 158.483 84.8228 158.535 84.6137 158.535C84.1954 158.535 83.8294 158.587 83.4633 158.587C82.9405 158.587 82.4699 158.64 81.947 158.64C81.4241 158.64 80.9535 158.64 80.4307 158.64C80.0646 158.64 79.6986 158.64 79.3326 158.64C57.2673 158.326 37.4503 148.966 23.2803 134.117C23.2803 134.117 23.2803 134.064 23.228 134.064C21.6594 132.653 23.0189 125.123 29.3457 120.365C37.2934 114.352 56.3261 110.587 56.3261 110.587C56.3261 110.587 63.6986 109.385 91.045 115.084C107.045 118.431 119.228 123.293 126.025 136.47C127.437 139.189 128.849 143.372 123.882 145.568Z" fill="#FFF8F8"/>
<path d="M91.2016 114.509C101.241 116.548 111.96 118.744 120.221 125.385C122.993 127.633 124.823 130.927 126.339 134.117C127.071 135.686 127.803 137.306 128.378 139.032C128.692 140.182 129.162 141.489 128.901 142.849C128.849 143.215 128.535 143.686 128.274 143.947C127.071 145.15 125.764 145.882 124.457 146.823C116.77 152.156 107.934 155.921 98.7833 157.908C78.3912 162.352 56.3258 158.901 38.3912 148.182C32.4304 144.574 26.9402 140.182 22.2343 135.006C21.7114 134.378 21.7114 133.333 21.7114 132.653C21.7637 131.084 22.182 129.568 22.7049 128.156C23.9598 124.914 25.5807 121.672 28.352 119.424C30.3389 118.065 32.4827 116.914 34.6787 115.973C41.5807 113.045 48.8487 111.006 56.3258 110.169C56.9533 110.117 57.0578 111.006 56.4304 111.11C49.267 112.574 42.1559 114.771 35.5154 117.751C33.1101 118.954 30.548 119.999 28.6134 121.882C26.7833 123.869 25.4761 126.326 24.4304 128.836C23.7506 130.352 23.2801 132.757 23.4892 133.96C26.7833 137.882 30.6526 141.333 34.8356 144.313C57.7376 160.313 92.5088 161.359 116.875 148.025C119.071 146.823 121.215 145.463 123.254 144.052C124.247 143.372 125.293 142.797 126.077 142.012C126.13 141.96 126.077 142.012 126.077 142.065C126.077 142.117 126.025 142.169 126.025 142.169C126.077 141.542 125.868 140.705 125.607 139.869C124.666 136.836 123.149 133.646 121.528 130.875C118.966 126.744 114.626 124.13 110.234 122.038C107.202 120.627 104.012 119.529 100.77 118.483C97.5284 117.437 94.2343 116.548 90.9402 115.764C90.1036 115.555 90.365 114.352 91.2016 114.509Z" fill="#0F172A"/>
<path d="M35.3066 117.542C35.3066 117.542 29.1889 119.477 27.0451 122.457C23.751 127.006 20.9798 135.895 17.9471 144.679C12.4046 160.627 12.5615 184.366 12.5615 184.366H131.882C131.882 184.366 131.986 158.745 127.542 141.281C126.758 138.143 124.091 133.019 122.836 130.928C120.326 126.745 115.882 124.653 114.156 123.45C114.156 123.45 117.45 143.843 94.3393 145.045C71.2282 146.248 43.3066 138.875 42.6269 134.588C41.9471 130.248 35.3066 117.542 35.3066 117.542Z" fill="#FFF8F8"/>
<path d="M121.529 185.307C88.6923 200.471 34.6269 186.771 34.6269 186.771C34.6269 186.771 33.5289 173.438 37.5027 149.438C37.6596 148.34 37.8164 147.242 37.921 146.248C39.0713 135.373 37.6596 121.464 34.8361 116.758C34.8361 115.556 36.091 115.869 37.5027 114.667C38.0779 114.196 38.8622 114.144 39.2805 114.458C40.0125 115.503 41.9995 120.627 42.5746 121.725C48.4308 132.549 57.372 139.503 69.6073 140.706C86.287 142.379 93.2413 142.118 101.555 140.288C109.555 138.51 113.163 133.804 110.915 125.961C109.607 121.307 107.411 119.007 107.359 118.902C108.614 119.425 111.751 120.837 112.901 122.928C113.215 123.451 115.307 126.693 116.928 133.647C118.078 138.614 118.653 142.745 119.333 148.34C121.633 166.641 121.529 185.307 121.529 185.307Z" fill="#0F172A" stroke="#0F172A" stroke-width="0.630856" stroke-miterlimit="10" stroke-linecap="round" stroke-linejoin="round"/>
<path d="M91.5683 148.392C92.5502 148.392 93.3461 147.597 93.3461 146.615C93.3461 145.633 92.5502 144.837 91.5683 144.837C90.5865 144.837 89.7905 145.633 89.7905 146.615C89.7905 147.597 90.5865 148.392 91.5683 148.392Z" fill="#FFF8F8"/>
<path d="M92.0385 154.98C93.0204 154.98 93.8163 154.184 93.8163 153.203C93.8163 152.221 93.0204 151.425 92.0385 151.425C91.0567 151.425 90.2607 152.221 90.2607 153.203C90.2607 154.184 91.0567 154.98 92.0385 154.98Z" fill="#FFF8F8"/>
<path d="M96.1162 128.418C95.0182 133.803 87.9071 137.045 75.9332 132.182C63.4888 127.163 58.1031 115.189 56.7437 111.633C64.1162 97.8293 58.992 88.2607 58.992 88.2607C75.9855 86.7967 90.8352 106.666 90.8352 106.666L93.1358 116.496C93.345 117.333 93.7633 118.065 94.3907 118.588C95.4888 120.522 96.796 124.967 96.1162 128.418Z" fill="#FFF8F8"/>
<path d="M56.4825 111.79C57.4759 110.274 58.1034 108.496 58.5217 106.771C59.306 103.163 59.5674 99.5026 59.6197 95.8424V94.483C59.4629 93.1235 58.9923 91.7117 58.4694 90.4568C57.7897 88.7836 60.2472 87.7379 61.0315 89.4111C61.1361 89.6202 61.1361 89.9862 61.1361 90.1954C61.2929 97.3065 61.6067 106.457 57.1099 112.365C56.7962 112.679 56.1688 112.208 56.4825 111.79Z" fill="#0F172A"/>
<path d="M91.4104 106.561C92.1947 107.032 92.4561 107.659 92.5607 108.286C92.8744 109.541 92.7699 110.901 93.0836 112.208C93.345 113.463 94.1294 114.666 94.3385 115.973C94.5999 117.332 95.3843 120.208 95.698 121.62C95.8026 121.934 95.5934 122.3 95.2274 122.352C95.0182 122.404 94.8614 122.352 94.7045 122.247C94.0248 121.672 93.7111 121.097 93.2928 120.365C92.613 119.11 92.1424 117.96 91.7241 116.548C91.3581 115.293 91.515 113.934 91.2012 112.626C90.9398 111.371 90.2078 110.169 89.9463 108.862C89.7895 108.234 89.7372 107.554 90.2078 106.77C90.5215 106.456 91.0444 106.352 91.4104 106.561Z" fill="#0F172A"/>
<path d="M95.1755 120.365C85.1886 119.842 77.0317 116.705 69.084 102.535C75.7768 108.444 83.6722 110.692 91.986 111.738L93.084 116.548C93.2931 117.385 94.548 119.842 95.1755 120.365Z" fill="#0F172A"/>
<path d="M94.7575 118.43C96.5353 121.776 97.581 125.959 96.483 129.672C95.6464 132.286 93.2412 134.221 90.6268 134.953C84.5614 136.574 77.5549 134.012 72.1693 131.136C65.5287 127.423 60.6137 121.201 57.4764 114.404C57.2673 113.881 57.9993 113.463 58.313 113.985C59.4111 116.181 60.666 118.325 62.0778 120.26C63.4895 122.247 65.1104 124.077 66.9405 125.698C72.2738 130.508 79.4895 133.489 86.7052 133.489C94.1301 133.28 96.9536 129.358 95.2281 122.142C94.9667 120.992 94.5483 119.789 93.9732 118.796C93.6595 118.378 94.4438 117.907 94.7575 118.43Z" fill="#0F172A"/>
<path d="M114.992 55.6341C115.934 60.0262 112.796 64.7321 112.796 76.4445C112.796 88.4184 110.6 101.438 101.555 110.484C93.7637 118.275 84.8225 117.961 74.3127 109.752C72.8486 108.601 67.7244 104.732 66.4173 103.425C64.9009 101.909 64.0643 100.811 63.3323 99.6602C62.7048 98.6145 62.8617 92.5491 61.9728 91.1374C59.6722 87.3204 59.2016 91.4511 56.2212 88.1047C52.0905 83.608 47.1231 74.5622 49.5806 58.5622C53.5545 32.6275 74.1035 29.5949 89.3192 32.4707C104.639 35.3988 112.483 44.0785 114.992 55.6341Z" fill="#FFF8F8"/>
<path d="M58.8355 92.7582C57.6329 90.7712 56.1165 88.9935 54.7048 87.1634C53.293 85.2288 52.1427 83.1895 51.2015 80.9935C45.8682 68.0784 46.6525 51.1895 56.1165 40.3137C62.6002 32.8889 72.8486 30.4314 82.2603 30.9542C91.6721 31.5294 101.45 33.9346 108.404 40.732C112.43 44.6536 114.992 49.8823 116.143 55.3203C116.509 57.0457 116.247 58.9281 115.829 60.549C114.626 65.098 113.476 69.4379 113.371 74.1438C113.424 81.1503 113.215 88.3137 111.175 95.0588C109.711 99.5556 107.986 104.052 105.267 107.974C102.443 111.948 98.2081 115.137 93.3453 116.078C83.5675 118.065 74.4172 111.895 67.9335 105.203C67.6721 104.889 68.0381 104.523 68.3518 104.732C72.0643 107.556 75.8812 110.17 80.012 111.948C91.9335 117.438 101.816 112.366 107.045 100.863C111.437 92.4967 112.692 83.451 112.326 74.0915C112.326 71.7386 112.43 69.3856 112.744 67.0327C113.058 63.634 114.208 60.2353 114.156 56.8889C113.267 51.451 110.757 46.2222 106.992 42.1961C98.0512 32.732 80.9009 29.9608 68.8747 34.2484C54.7048 39.268 50.8878 53.5425 50.1035 67.1895C49.5806 75.3464 51.9858 83.3464 58.1558 88.9412L60.6133 91.5033C61.4499 92.6536 59.6721 94.0131 58.8355 92.7582Z" fill="#0F172A"/>
<path d="M65.0056 76.1308C65.0056 76.1308 63.3846 68.2876 55.7506 69.2288C49.1624 70.0654 46.8618 85.8563 61.816 90.2484" fill="#FFF8F8"/>
<path d="M61.1367 83.398C59.9341 82.7182 59.0975 81.5679 59.0452 80.1561C59.0975 79.1104 59.2543 77.9078 58.9929 76.862C58.836 75.8686 57.7903 75.6071 57.006 75.6594C56.1694 75.8163 55.6465 76.862 55.4896 77.6986C55.4896 77.7509 55.4373 77.9078 55.4373 77.9601C55.385 78.2215 54.9667 78.2215 54.8622 77.9601C54.1824 75.9208 55.6988 73.6725 57.8948 73.9339C60.9798 74.1431 61.3981 77.3849 60.823 79.8424C60.5092 80.8882 60.9275 81.8293 61.5027 82.7182L61.6073 82.8751C61.8687 83.1888 61.4504 83.6071 61.1367 83.398Z" fill="#0F172A"/>
<path d="M102.966 70.5877C103.751 74.3001 105.215 77.7511 107.045 80.9929C108.666 84.9668 104.483 88.7315 100.77 88.5746C100.352 88.5746 100.3 87.9994 100.666 87.8949C103.019 87.1628 105.162 85.5942 105.528 83.189C105.685 82.457 105.476 81.8295 105.11 81.2021C103.385 77.9602 102.339 74.2478 102.6 70.5877C102.6 70.3262 102.966 70.3262 102.966 70.5877Z" fill="#0F172A"/>
<path d="M64.7445 76.1827C63.5419 73.0978 60.9275 70.1697 57.4242 70.222C57.1105 70.1697 56.5876 70.2742 56.2739 70.2742C55.385 70.3265 54.653 70.6403 53.9733 71.2677C50.6268 74.6141 51.202 80.5226 53.921 84.235C54.8621 85.5422 56.0648 86.6926 57.4242 87.6337C58.7837 88.5749 60.3001 89.3069 61.921 89.9344C62.287 90.039 62.1301 90.6141 61.7641 90.5618C58.2608 89.8298 54.9144 88.1043 52.6138 85.2285C49.0582 80.9409 48.3262 73.7775 52.5615 69.5945C53.5027 68.7579 54.8099 68.1305 56.117 68.1305C56.5353 68.1305 57.1628 68.0259 57.5811 68.1305C59.7772 68.235 61.8687 69.3331 63.2282 71.0586C64.4308 72.5226 65.1105 74.3004 65.3197 76.0782C65.3197 76.3919 64.8491 76.4965 64.7445 76.1827Z" fill="#0F172A"/>
<path d="M99.0454 91.2413C100.98 90.091 102.706 92.1825 101.66 94.0126C101.398 94.5354 101.085 94.9015 100.719 95.3198L100.666 94.0649C102.601 95.7381 102.13 98.2479 99.882 99.2936C99.516 99.4505 97.7905 99.9734 97.7905 99.3459C97.7905 99.189 97.8951 99.0845 98.052 99.0845C99.3592 99.0322 101.137 97.725 100.614 96.2609C100.457 95.8949 100.091 95.4766 99.7775 95.3198C99.4114 95.1106 99.3069 94.6923 99.516 94.3263C99.9343 93.8557 100.928 93.3328 100.928 92.4439C100.823 91.6596 100.039 91.3982 99.3069 91.6596C98.9931 91.8165 98.784 91.3982 99.0454 91.2413Z" fill="#0F172A"/>
<path d="M85.9207 72.2092C85.9207 72.2615 85.9207 72.3138 85.9207 72.3138L85.8684 73.7778C85.8161 75.0327 84.7704 75.9739 83.5155 75.9216C82.2606 75.8693 81.3194 74.7713 81.424 73.5687L81.4762 72.1046C81.4762 71.8432 81.5808 71.5295 81.6854 71.3203L85.8684 71.5295C85.8684 71.7386 85.9207 71.9478 85.9207 72.2092Z" fill="#0F172A"/>
<path d="M107.777 73.3591L107.725 74.7186C107.672 75.8689 106.679 76.7578 105.529 76.7056C104.378 76.6533 103.489 75.6598 103.542 74.5095L103.594 73.15C103.594 72.8886 103.646 72.6271 103.751 72.418L107.672 72.5748C107.725 72.8363 107.777 73.0977 107.777 73.3591Z" fill="#0F172A"/>
<path d="M91.1494 65.0456C92.2997 65.2025 93.1886 63.9998 92.7703 62.8495C92.5611 62.2221 92.1951 61.6469 91.62 61.2809C89.8422 60.1829 83.2017 60.0783 79.6984 62.5881C76.5611 64.8887 85.9206 64.3136 91.1494 65.0456Z" fill="#0F172A"/>
<path d="M105.633 65.6212C104.692 65.6212 104.117 64.4186 104.587 63.4251C104.849 62.9022 105.215 62.4316 105.738 62.1702C107.359 61.3859 111.699 61.8565 113.633 64.5231C115.359 66.8761 109.973 65.5689 105.633 65.6212Z" fill="#0F172A"/>
<path d="M89.267 72.2092L80.6395 72.0523C79.5938 72 79.6461 70.4314 80.6918 70.4837L89.3193 71.1112C90.0513 71.1634 89.999 72.2092 89.267 72.2092Z" fill="#0F172A"/>
<path d="M109.973 73.0988L103.594 73.2034C102.548 73.2034 102.496 71.6871 103.542 71.6348C103.594 71.6348 103.594 71.6348 103.646 71.6348L110.026 72.3145C110.496 72.3668 110.444 73.0465 109.973 73.0988Z" fill="#0F172A"/>
<path d="M104.64 50.7187C105.738 51.2939 106.679 50.771 107.254 49.6207C113.32 48.6795 114.731 60.8102 114.94 61.5423C115.62 64.3135 119.28 64.8364 120.64 62.3789C124.352 55.5815 126.757 46.0129 116.248 40.0521C117.555 38.1174 116.614 28.4965 105.686 26.1436C101.764 25.307 96.6398 28.9671 90.2084 27.5553C65.0581 21.9606 38.9665 27.2939 41.0058 60.4965C41.4763 67.7645 41.9469 75.6076 29.6071 80.8364C15.2803 86.9018 16.0123 102.745 26.1038 105.987C30.2868 107.346 16.4829 116.758 24.5352 125.124C28.7182 129.516 36.1953 120.627 43.777 125.438C55.228 132.706 60.9273 129.412 63.1757 126.536C67.777 120.68 62.0777 108.915 62.0777 108.915C62.0777 108.915 64.326 105.307 65.0581 103.372C68.6136 93.856 60.143 89.5684 60.143 89.5684C47.0711 84.5488 49.4241 69.9606 55.8032 69.124C62.496 68.2874 64.5875 74.2482 64.9535 75.7122C64.9535 75.7122 70.862 83.8691 82.2607 65.2547C93.5548 46.6926 99.6725 48.0521 104.64 50.7187Z" fill="#0F172A"/>
<path d="M59.1498 77.751C59.1498 77.751 54.9668 77.1235 55.2805 82.9797C55.4373 85.9601 55.4373 87.5811 55.3851 88.4177C55.3328 88.9928 55.6988 89.5157 56.2217 89.7248C56.8491 89.9863 57.5288 89.7248 57.8426 89.0974C58.3132 88.2608 58.836 87.1105 58.836 86.1693C58.836 84.6007 60.5092 83.1889 60.5092 83.1889C60.5092 83.1889 58.9929 81.8817 59.1498 77.751Z" fill="#FFF8F8"/>
<path d="M58.9931 77.9079C58.9931 77.9602 59.0454 78.0125 59.0976 78.0125C59.0976 78.0125 59.0976 78.0125 59.0454 78.0125H58.9408C56.431 78.2216 55.6467 80.4177 55.7512 82.666C55.8035 84.1301 55.9081 85.5942 55.8558 87.0059C55.9604 87.7902 55.4898 88.836 56.2741 89.2543C56.7447 89.5157 57.3721 89.3066 57.5813 88.7837C58.0519 87.8425 58.5225 86.9013 58.5225 85.8556C58.7316 84.653 59.5159 83.7118 60.3525 82.9798V83.3981C59.2545 82.2477 58.9931 80.6791 58.8362 79.2151C58.8885 78.8491 58.8885 78.2739 58.9931 77.9079ZM59.3591 77.5419C59.5159 79.0059 59.5159 80.5223 60.1434 81.8294C60.3003 82.1955 60.5617 82.6138 60.8754 82.8752C61.0846 83.0321 61.0846 83.3458 60.8754 83.5026C60.1434 84.1824 59.5159 85.019 59.4114 85.9602C59.4114 87.1105 58.9408 88.2085 58.4179 89.202C57.9996 90.0909 56.797 90.5615 55.9081 90.0386C55.3329 89.7249 54.9146 89.0974 54.9146 88.4177C54.9146 87.8948 54.9669 87.4765 54.9669 86.9536C54.9669 85.4896 54.8623 84.0778 54.8101 82.6138C54.8101 81.6726 54.8623 80.5745 55.2806 79.6334C55.8035 78.1693 57.4244 77.1759 58.9931 77.4373C59.1499 77.4373 59.3068 77.4896 59.3591 77.5419Z" fill="#0F172A"/>
<path d="M58.4702 139.66C60.1957 132.13 57.9473 123.66 56.0127 116.13C55.2284 113.15 54.4441 110.326 54.078 107.869C53.3983 103.738 53.8689 99.8164 55.5421 96.1562C57.5813 91.6072 57.2676 87.7379 57.2676 87.5811L56.2218 87.6856C56.2218 87.7379 56.5356 91.5026 54.6009 95.7379C52.8754 99.5549 52.3526 103.686 53.0323 108.026C53.4506 110.535 54.1826 113.411 54.9669 116.392C56.9016 123.764 59.0977 132.13 57.4244 139.398C56.4833 143.424 58.3133 150.012 60.9277 156.601C61.346 156.653 61.712 156.705 62.1303 156.758C59.4637 150.169 57.5813 143.529 58.4702 139.66Z" fill="#0F172A"/>
<path d="M55.4376 86.0122C55.4899 87.1626 55.4376 87.9469 55.4376 88.4175C55.3853 88.9926 55.7513 89.5155 56.2742 89.7247C56.9016 89.9861 57.5814 89.7247 57.8951 89.0972C58.3657 88.2606 58.8886 87.1103 58.8886 86.1691C58.8886 86.1168 58.8886 86.0122 58.8886 85.96C57.8428 86.3783 56.5879 86.692 55.4376 86.0122Z" fill="#FFF8F8"/>
<path d="M55.5942 86.2216C55.6465 86.9537 55.6988 87.6334 55.6988 88.3654C55.6465 88.6792 55.7511 88.9929 55.9602 89.2543C56.64 89.9341 57.5812 89.5158 57.8426 88.6792C58.2609 87.8426 58.6269 86.9537 58.6269 86.0125L58.9929 86.2739C57.8426 86.4831 56.64 86.7968 55.5419 86.3262C55.5419 86.3262 55.5942 86.2739 55.5942 86.2216ZM55.3328 85.7511C55.4374 85.7511 55.6465 85.8033 55.7511 85.9079C56.6923 86.5877 57.8949 86.2739 58.8361 85.7511C58.9929 85.6465 59.2544 85.8033 59.2021 86.0125C59.1498 87.2151 58.6792 88.3654 58.0517 89.4112C57.4766 90.1955 56.274 90.2478 55.5942 89.5681C55.2805 89.2543 55.1236 88.7315 55.1759 88.3132C55.1759 87.4243 55.2805 86.5877 55.3328 85.7511Z" fill="#0F172A"/>
<path d="M104.692 120.784C105.581 114.614 104.744 110.222 104.431 108.915C104.274 109.02 104.169 109.176 104.012 109.281C103.856 109.438 103.699 109.542 103.542 109.699C103.856 111.373 104.431 115.346 103.646 120.627C103.28 123.085 103.176 126.954 103.124 131.451C103.019 135.791 101.659 146.614 100.039 156.863C100.405 156.758 100.771 156.654 101.137 156.601C102.758 146.458 104.065 135.843 104.169 131.503C104.274 127.007 104.326 123.19 104.692 120.784Z" fill="#0F172A"/>
<path d="M151.123 44.079C182.862 105.203 127.071 174.171 60.5611 157.334C30.7049 149.909 6.70486 124.027 1.73754 93.6476C-3.90952 63.4254 9.73755 30.9548 35.2539 13.8568C70.2343 -10.1955 118.705 -2.19553 143.751 32.2097C143.908 32.3666 143.855 32.628 143.646 32.7849C143.489 32.9417 143.228 32.8894 143.071 32.6803C139.62 28.2358 135.698 24.2097 131.411 20.6019C124.352 14.5888 116.091 9.8829 107.358 6.69336C62.914 -9.41122 14.1297 17.36 4.40421 63.8437C-6.57618 115.922 37.7114 163.87 90.5219 156.706C131.254 151.582 161.528 113.988 158.182 73.0986C157.45 63.2163 154.836 53.4385 150.496 44.445C150.391 44.2881 150.496 44.079 150.653 43.9744C150.809 43.8698 151.019 43.9221 151.123 44.079Z" fill="#0F172A"/>
</g>
</svg>
