<svg width="32" height="32" viewBox="0 0 32 32" fill="none" xmlns="http://www.w3.org/2000/svg">
<path opacity="0.6" d="M28.3332 12.1999C25.2532 7.35991 20.7465 4.57324 15.9998 4.57324C13.6265 4.57324 11.3198 5.26658 9.21317 6.55991C7.1065 7.86658 5.21317 9.77324 3.6665 12.1999C2.33317 14.2932 2.33317 17.6932 3.6665 19.7866C6.7465 24.6399 11.2532 27.4132 15.9998 27.4132C18.3732 27.4132 20.6798 26.7199 22.7865 25.4266C24.8932 24.1199 26.7865 22.2132 28.3332 19.7866C29.6665 17.7066 29.6665 14.2932 28.3332 12.1999ZM15.9998 21.3866C13.0132 21.3866 10.6132 18.9732 10.6132 15.9999C10.6132 13.0266 13.0132 10.6132 15.9998 10.6132C18.9865 10.6132 21.3865 13.0266 21.3865 15.9999C21.3865 18.9732 18.9865 21.3866 15.9998 21.3866Z" fill="#F8FAFC"/>
<path d="M16.0002 12.1865C13.9069 12.1865 12.2002 13.8932 12.2002 15.9999C12.2002 18.0932 13.9069 19.7999 16.0002 19.7999C18.0935 19.7999 19.8135 18.0932 19.8135 15.9999C19.8135 13.9065 18.0935 12.1865 16.0002 12.1865Z" fill="#F8FAFC"/>
</svg>
