<svg width="32" height="32" viewBox="0 0 32 32" fill="none" xmlns="http://www.w3.org/2000/svg">
<path opacity="0.4" d="M28.3331 12.2001C27.6798 11.1601 26.9331 10.2267 26.1598 9.38672L21.1331 14.4134C21.2931 14.9067 21.3865 15.4401 21.3865 16.0001C21.3865 18.9867 18.9731 21.3867 15.9998 21.3867C15.4398 21.3867 14.9065 21.2934 14.4131 21.1334L9.7998 25.7467C11.7465 26.8401 13.8531 27.4134 15.9998 27.4134C18.3731 27.4134 20.6798 26.7201 22.7865 25.4267C24.8931 24.1201 26.7865 22.2134 28.3331 19.7867C29.6665 17.7067 29.6665 14.2934 28.3331 12.2001Z" fill="#1E293B"/>
<path d="M18.6932 13.3065L13.3065 18.6932C12.6265 17.9999 12.1865 17.0399 12.1865 15.9999C12.1865 13.9065 13.8932 12.1865 15.9999 12.1865C17.0399 12.1865 17.9999 12.6265 18.6932 13.3065Z" fill="#1E293B"/>
<path opacity="0.4" d="M24.3332 7.66658L19.8132 12.1866C18.8398 11.1999 17.4932 10.6132 15.9998 10.6132C13.0132 10.6132 10.6132 13.0266 10.6132 15.9999C10.6132 17.4932 11.2132 18.8399 12.1865 19.8132L7.67984 24.3332H7.6665C6.1865 23.1332 4.8265 21.5999 3.6665 19.7866C2.33317 17.6932 2.33317 14.2932 3.6665 12.1999C5.21317 9.77324 7.1065 7.86658 9.21317 6.55991C11.3198 5.27991 13.6265 4.57324 15.9998 4.57324C18.9732 4.57324 21.8532 5.66658 24.3332 7.66658Z" fill="#1E293B"/>
<path d="M19.8134 16.0001C19.8134 18.0934 18.1068 19.8134 16.0001 19.8134C15.9201 19.8134 15.8534 19.8134 15.7734 19.7868L19.7868 15.7734C19.8134 15.8534 19.8134 15.9201 19.8134 16.0001Z" fill="#1E293B"/>
<path d="M29.0267 2.97334C28.6267 2.57334 27.9733 2.57334 27.5733 2.97334L2.97334 27.5867C2.57334 27.9867 2.57334 28.64 2.97334 29.04C3.17334 29.2267 3.42667 29.3333 3.69334 29.3333C3.96001 29.3333 4.21334 29.2267 4.41334 29.0267L29.0267 4.41334C29.44 4.01334 29.44 3.37334 29.0267 2.97334Z" fill="#1E293B"/>
</svg>
