<svg width="160" height="160" viewBox="0 0 160 160" fill="none" xmlns="http://www.w3.org/2000/svg">
<mask id="mask0_1725_1505" style="mask-type:alpha" maskUnits="userSpaceOnUse" x="-1" y="0" width="161" height="160">
<ellipse cx="79.7373" cy="79.7377" rx="79.7378" ry="79.7377" fill="#D9D9D9"/>
</mask>
<g mask="url(#mask0_1725_1505)">
<path d="M123.451 145.569C123.085 145.83 122.667 146.092 122.301 146.353C121.883 146.614 121.517 146.876 121.099 147.085C120.733 147.294 120.419 147.503 120.053 147.713C120 147.765 119.948 147.765 119.896 147.817C118.693 148.549 117.438 149.229 116.183 149.856C115.817 150.065 115.399 150.275 115.033 150.431C115.033 150.431 114.981 150.484 114.929 150.484C114.51 150.693 114.092 150.902 113.674 151.111C112.837 151.53 111.948 151.896 111.112 152.262C110.693 152.471 110.223 152.628 109.804 152.784C109.386 152.941 108.916 153.15 108.497 153.307C108.079 153.464 107.608 153.673 107.19 153.83C107.19 153.83 107.19 153.83 107.138 153.83C106.719 153.987 106.249 154.144 105.831 154.301C104.889 154.614 103.896 154.928 102.955 155.242C102.641 155.347 102.275 155.451 101.961 155.556C100.968 155.869 99.9743 156.131 98.9809 156.34C98.6149 156.445 98.2489 156.497 97.8306 156.601C96.8894 156.811 95.8959 157.02 94.9547 157.229C94.7456 157.281 94.5887 157.281 94.3796 157.333C94.0658 157.386 93.6998 157.438 93.3861 157.49C92.9155 157.543 92.4972 157.647 92.0266 157.699C91.8175 157.752 91.6083 157.752 91.3992 157.804C91.1377 157.856 90.824 157.909 90.5103 157.909C89.6737 158.013 88.7848 158.118 87.9482 158.222C87.6868 158.275 87.373 158.275 87.1116 158.327H87.0593C86.6933 158.379 86.3273 158.379 85.9613 158.431C85.5953 158.484 85.2292 158.484 84.8632 158.484C84.6541 158.484 84.3926 158.536 84.1835 158.536C83.7652 158.536 83.3992 158.588 83.0332 158.588C82.5103 158.588 82.0397 158.641 81.5168 158.641C80.9939 158.641 80.5234 158.641 80.0005 158.641C79.6345 158.641 79.2685 158.641 78.9024 158.641C56.8371 158.327 37.0201 148.967 22.8501 134.118C22.8501 134.118 22.8501 134.065 22.7979 134.065C21.2292 132.654 22.5887 125.124 28.9155 120.366C36.8632 114.353 55.8959 110.588 55.8959 110.588C55.8959 110.588 63.2685 109.386 90.6149 115.085C106.615 118.431 118.798 123.294 125.595 136.471C127.007 139.19 128.419 143.373 123.451 145.569Z" fill="#F8F8F8"/>
<path d="M90.7715 114.51C100.811 116.549 111.53 118.745 119.791 125.385C122.562 127.634 124.392 130.928 125.909 134.117C126.641 135.686 127.373 137.307 127.948 139.032C128.262 140.183 128.732 141.49 128.471 142.849C128.419 143.215 128.105 143.686 127.843 143.947C126.641 145.15 125.334 145.882 124.026 146.823C116.34 152.157 107.504 155.921 98.3532 157.908C77.961 162.353 55.8956 158.902 37.961 148.183C32.0002 144.575 26.51 140.183 21.8041 135.006C21.2812 134.379 21.2812 133.333 21.2812 132.653C21.3335 131.085 21.7518 129.568 22.2747 128.157C23.5296 124.915 25.1505 121.673 27.9218 119.425C29.9087 118.065 32.0525 116.915 34.2486 115.974C41.1505 113.046 48.4185 111.006 55.8956 110.17C56.5231 110.117 56.6277 111.006 56.0002 111.111C48.8368 112.575 41.7257 114.771 35.0852 117.751C32.6799 118.954 30.1179 120 28.1832 121.882C26.3531 123.869 25.046 126.327 24.0002 128.836C23.3205 130.353 22.8499 132.758 23.059 133.961C26.3531 137.882 30.2224 141.333 34.4054 144.314C57.3074 160.314 92.0787 161.359 116.445 148.026C118.641 146.823 120.785 145.464 122.824 144.052C123.817 143.372 124.863 142.797 125.647 142.013C125.7 141.961 125.647 142.013 125.647 142.065C125.647 142.117 125.595 142.17 125.595 142.17C125.647 141.542 125.438 140.706 125.177 139.869C124.236 136.836 122.719 133.647 121.098 130.876C118.536 126.745 114.196 124.13 109.804 122.039C106.771 120.627 103.582 119.529 100.34 118.483C97.0983 117.438 93.8042 116.549 90.51 115.764C89.6734 115.555 89.9349 114.353 90.7715 114.51Z" fill="#AA55FF"/>
<path d="M141.699 178.195L9.25439 175.267C17.4113 148.025 21.9603 124.025 28.0779 120.365C39.6858 113.411 50.1433 112.313 56.3655 111.738C57.9342 115.607 63.8949 128.313 76.2871 133.333C88.261 138.195 95.3721 134.953 96.4701 129.568C97.1498 126.117 95.0061 120.47 93.908 118.64C93.2806 118.117 92.8623 117.333 92.6531 116.548L92.2348 114.823C93.1237 114.614 94.0126 114.404 94.9015 114.091C104.418 115.764 118.849 123.607 121.934 127.999C125.647 133.28 130.771 146.509 130.562 153.777C130.248 165.594 141.699 178.195 141.699 178.195Z" fill="#F8F8F8"/>
<path d="M142.954 178.771C103.529 178.195 48.1041 177.62 9.25446 176.627C8.52243 176.627 7.94727 175.999 7.94727 175.267C12.1826 160.993 15.5813 146.614 20.1303 132.392C20.7054 130.614 21.3329 128.888 22.0649 127.11C23.3198 124.339 24.5747 121.254 27.1891 119.372C28.7054 118.483 30.3264 117.594 31.895 116.81C39.4767 113.045 47.895 111.11 56.261 110.431C56.8885 110.378 57.4113 110.744 57.6205 111.267C61.5943 120.784 68.81 129.62 78.9015 132.914C83.8689 134.64 92.7055 136.104 95.0584 129.934C95.8427 126.954 94.6924 123.816 93.6466 120.993C93.3852 120.418 93.1238 119.843 92.8623 119.372L93.1238 119.686C92.1303 118.849 91.5028 117.437 91.2937 116.182L91.0323 115.137C90.8754 114.405 91.346 113.673 92.078 113.516C92.9669 113.307 93.8035 113.097 94.6401 112.836C101.96 113.359 116.967 120.784 122.143 126.012C125.176 129.516 126.902 134.065 128.627 138.3C129.882 141.699 130.98 145.202 131.607 148.81C131.869 150.169 132.026 151.581 132.026 152.993C131.973 155.084 132.13 157.228 132.705 159.32C134.431 165.856 138.248 171.869 142.588 177.045L142.692 177.15L142.745 177.202C142.745 177.202 142.692 177.15 142.902 177.359C143.058 177.777 143.111 178.405 142.954 178.771ZM140.496 177.673C140.444 177.829 140.339 178.039 140.392 178.3C140.392 178.561 140.496 178.771 140.601 178.928C140.758 179.137 140.705 179.032 140.705 179.084L140.653 179.032C140.287 178.509 139.555 177.463 139.189 176.888C134.902 170.143 130.666 162.666 130.509 154.457C130.614 149.071 128.941 143.895 127.163 138.927C125.908 135.581 124.444 132.339 122.562 129.307C122.091 128.575 121.62 127.843 120.993 127.215C119.111 125.385 116.81 123.921 114.509 122.614C108.392 119.215 101.751 116.392 94.797 115.503L95.4244 115.45C94.4832 115.764 93.5421 115.973 92.6009 116.182L93.6466 114.561C93.9604 115.66 94.0127 116.967 94.9015 117.699C95.4767 118.378 95.7904 119.267 96.1564 119.999C96.993 121.986 97.5682 124.026 97.9342 126.169C98.8754 131.294 95.8427 135.529 90.8231 136.679C86.5878 137.673 82.1434 136.784 78.1172 135.477C67.2937 132.026 59.4505 122.561 55.2153 112.313L56.5747 113.15C48.3133 113.045 40.1041 114.666 32.627 118.222C31.0061 119.006 29.3329 119.895 27.8166 120.836C25.6728 122.561 24.627 125.28 23.529 127.738C20.1303 136.313 18.1433 145.307 15.895 154.195C14.3264 160.47 12.2348 169.359 10.6662 175.686L9.41132 173.96C47.2675 174.744 102.013 176.418 140.496 177.673Z" fill="#AA55FF"/>
<path d="M32.4703 177.987C32.4703 177.987 31.7906 161.045 31.1108 157.908" stroke="#AA55FF" stroke-width="0.633994" stroke-miterlimit="10" stroke-linecap="round" stroke-linejoin="round"/>
<path d="M125.124 177.987C125.124 177.987 123.555 167.477 123.555 165.647C123.555 163.869 124.915 158.013 125.124 152.889" stroke="#AA55FF" stroke-width="0.633994" stroke-miterlimit="10" stroke-linecap="round" stroke-linejoin="round"/>
<path d="M47.8955 164.81V158.588L62.9021 164.706C62.8498 164.706 50.7713 165.019 47.8955 164.81Z" fill="#F8F8F8"/>
<path d="M83.6602 144.575L81.7778 183.582C81.7778 183.582 98.353 194.876 98.353 194.562C98.353 194.248 106.196 180.549 106.196 180.549L93.9608 143.006C93.9608 143.006 92.3922 144.627 83.6602 144.575Z" fill="#AA55FF"/>
<path d="M87.4249 132.026C87.4249 132.026 80.2615 138.771 79.3203 140.549C78.3791 142.327 83.3465 145.15 83.3465 145.15C83.3465 145.15 91.3465 146.823 94.9543 143.581C94.9543 143.581 96.9935 141.333 96.5752 139.189C96.2092 137.098 87.4249 132.026 87.4249 132.026Z" fill="#AA55FF"/>
<path d="M54.2217 106.719C54.2739 106.666 54.3262 106.614 54.3785 106.562C54.9537 105.882 55.7903 105.464 56.7315 105.359C61.1236 104.836 61.5942 105.307 62.5354 106.771C67.0844 113.882 72.9929 127.477 87.4766 132.078L73.5158 146.3C72.7838 147.242 71.4766 147.398 70.5354 146.719C66.0386 143.372 57.0452 133.124 52.0779 120.627C51.0321 118.013 50.823 115.137 51.3458 112.418C51.2413 112.313 53.3328 107.974 54.2217 106.719Z" fill="#F8F8F8"/>
<path d="M53.8558 106.457C54.6401 105.725 55.529 105.098 56.6271 104.941C58.0911 104.784 59.6075 104.47 61.1238 104.784C62.6924 105.255 63.2676 106.98 64.1565 108.183C68.078 114.614 72.1565 121.15 78.1696 125.699C80.3133 127.425 82.7709 128.732 85.2807 129.778C86.2218 130.144 87.2153 130.457 88.1565 130.876C88.9408 131.242 89.0977 132.392 88.4179 132.915C84.5486 136.052 80.8885 139.451 77.2807 142.954C76.4441 143.791 74.5094 145.725 73.7774 146.457C72.9408 147.555 71.2676 147.712 70.2218 146.876L69.699 146.457C67.9212 144.993 66.3003 143.32 64.7316 141.647C59.1369 135.477 54.431 128.47 51.2937 120.732C50.1957 117.961 49.9343 114.823 50.614 111.948C51.3983 110.013 52.4441 108.078 53.8558 106.457ZM54.9016 107.189C53.7512 108.81 52.7578 110.797 51.9212 112.627L51.9735 112.47C51.6597 114.196 51.6597 115.974 52.0258 117.647C52.3395 119.425 53.1238 120.993 53.8035 122.614C55.2153 125.961 56.9931 129.15 58.8754 132.235C60.7578 135.32 62.9016 138.3 65.3068 141.072C66.9277 142.954 68.6532 144.784 70.6401 146.3C70.797 146.457 70.9539 146.51 71.163 146.614C71.895 146.928 72.7839 146.666 73.2545 146.039L74.98 144.261L76.7055 142.431C80.1565 138.823 83.4506 135.059 86.5356 131.137L87.0584 133.281C83.2937 132.131 79.7382 130.091 76.6532 127.529C70.5356 122.562 66.5617 115.66 62.797 108.967C62.3264 108.235 61.8558 107.294 61.3852 106.614C61.1761 106.3 61.0192 106.196 60.7055 106.091C59.5029 105.778 58.0911 105.987 56.8362 106.144C55.9996 106.248 55.3199 106.614 54.9016 107.189Z" fill="#AA55FF"/>
<path d="M102.065 141.124C101.751 142.85 100.496 144.47 98.4047 142.327L87.3721 132.026C87.3721 132.026 93.8034 125.908 92.2348 114.823C94.3786 114.353 96.4178 113.673 98.3002 112.784C98.3525 112.889 99.0845 114.301 99.9211 116.653C101.699 121.516 103.947 130.457 102.065 141.124Z" fill="#F8F8F8"/>
<path d="M102.379 141.176C102.065 143.686 100.183 144.732 98.2481 142.797L94.5357 139.346L90.8233 135.895L87.1109 132.444C86.9017 132.235 86.9017 131.921 87.0586 131.712C89.9344 128.366 91.3985 123.817 91.3985 119.424C91.3985 117.856 91.1893 116.34 90.9279 114.771C90.8233 114.143 91.3462 113.568 92.0259 113.516C94.1174 113.464 96.2089 113.202 98.3004 112.679C98.3527 112.627 98.4573 112.679 98.4573 112.732C102.64 121.516 103.947 131.607 102.379 141.176ZM101.804 141.072C103.059 131.764 101.699 122.091 97.3592 113.777L97.2547 113.621C97.2024 113.568 97.1501 113.464 97.1501 113.464L98.9279 113.987C96.8887 114.98 94.7449 115.66 92.5488 116.13L93.5945 114.614C93.9083 117.856 93.6468 121.15 92.7057 124.235C91.7122 127.32 90.1436 130.143 87.7906 132.444V131.66C89.673 133.385 93.3854 136.889 95.2155 138.614L98.8756 142.117C100.183 143.477 101.438 142.954 101.804 141.072Z" fill="#AA55FF"/>
<path d="M95.687 128.418C94.589 133.804 87.4779 137.046 75.504 132.183C63.0596 127.163 57.6739 115.189 56.3145 111.634C63.687 97.8298 58.5628 88.2612 58.5628 88.2612C75.5563 86.7971 90.406 106.666 90.406 106.666L92.7066 116.496C92.9158 117.333 93.3341 118.065 93.9615 118.588C95.0596 120.523 96.3668 124.967 95.687 128.418Z" fill="#F8F8F8"/>
<path d="M56.0533 111.791C57.0467 110.274 57.6742 108.497 58.0925 106.771C58.8768 103.163 59.1382 99.5031 59.1905 95.8429V94.4834C59.0337 93.124 58.5631 91.7122 58.0402 90.4573C57.3605 88.7841 59.818 87.7383 60.6023 89.4115C60.7069 89.6207 60.7069 89.9867 60.7069 90.1959C60.8637 97.307 61.1775 106.457 56.6807 112.366C56.367 112.68 55.7396 112.209 56.0533 111.791Z" fill="#AA55FF"/>
<path d="M90.9812 106.562C91.7655 107.033 92.0269 107.66 92.1315 108.287C92.4452 109.542 92.3407 110.902 92.6544 112.209C92.9158 113.464 93.7001 114.667 93.9093 115.974C94.1707 117.333 94.955 120.209 95.2688 121.621C95.3733 121.934 95.1642 122.301 94.7982 122.353C94.589 122.405 94.4322 122.353 94.2753 122.248C93.5956 121.673 93.2818 121.098 92.8635 120.366C92.1838 119.111 91.7132 117.961 91.2949 116.549C90.9289 115.294 91.0858 113.934 90.772 112.627C90.5106 111.372 89.7786 110.17 89.5171 108.863C89.3603 108.235 89.308 107.555 89.7786 106.771C90.0923 106.457 90.6152 106.353 90.9812 106.562Z" fill="#AA55FF"/>
<path d="M94.7463 120.366C84.7594 119.843 76.6025 116.706 68.6548 102.536C75.3476 108.444 83.243 110.693 91.5568 111.738L92.6548 116.549C92.8639 117.385 94.1188 119.843 94.7463 120.366Z" fill="#AA55FF"/>
<path d="M94.3288 118.431C96.1066 121.777 97.1523 125.96 96.0543 129.673C95.2177 132.287 92.8125 134.222 90.1981 134.954C84.1327 136.575 77.1262 134.013 71.7405 131.137C65.1 127.424 60.185 121.202 57.0477 114.405C56.8386 113.882 57.5706 113.464 57.8843 113.986C58.9824 116.182 60.2373 118.326 61.649 120.261C63.0608 122.248 64.6817 124.078 66.5118 125.699C71.8451 130.509 79.0608 133.49 86.2765 133.49C93.7013 133.28 96.5249 129.359 94.7994 122.143C94.5379 120.993 94.1196 119.79 93.5445 118.797C93.2308 118.379 94.0151 117.908 94.3288 118.431Z" fill="#AA55FF"/>
<path d="M114.563 55.6336C115.504 60.0257 114.772 62.9538 114.354 75.0845C114.145 80.8362 113.256 82.98 112.995 89.4113C112.89 92.3394 110.746 96.3656 109.962 98.7185C108.916 101.908 107.87 106.196 105.465 109.281C104.21 110.849 102.694 111.79 100.184 112.209C99.3475 112.366 98.5109 111.111 97.8312 111.372C89.6221 114.98 80.6286 113.307 72.4717 106.196C68.9162 103.058 63.5828 95.4767 61.3345 90.2479C60.8639 89.1499 58.7724 91.4506 55.792 88.1564C51.6613 83.6597 46.6939 74.614 49.1514 58.6139C53.1253 32.6793 73.6743 29.6466 88.89 32.5224C104.21 35.3983 112.053 44.078 114.563 55.6336Z" fill="#F8F8F8"/>
<path d="M58.4065 92.7575C57.2039 90.7706 55.6353 88.9928 54.2235 87.1105C52.132 84.2346 50.5634 80.9405 49.5176 77.5418C44.132 60.7052 49.2562 37.8555 68.0797 32.4176C74.9817 30.3261 82.302 30.483 89.3085 31.7902C98.7203 33.4111 108.132 38.2216 112.733 46.9536C114.407 50.1954 115.661 53.6987 116.027 57.3065C116.237 59.7118 115.818 62.117 115.557 64.4699C115.243 66.8229 115.191 69.1235 115.086 71.4765C114.825 74.9797 114.354 78.4307 114.197 81.934C113.988 84.2869 114.145 86.6399 113.779 88.9928C112.995 93.6987 111.217 98.0909 109.753 102.535C108.603 105.934 107.452 110.117 103.949 111.842C101.439 113.359 98.4065 113.411 95.6353 113.202C95.217 113.202 94.9033 113.097 94.5895 113.202C87.8444 114.509 81.5699 113.359 75.9229 109.28C73.2039 107.137 69.9621 105.097 67.9229 102.274C67.7137 101.96 68.132 101.594 68.3935 101.856C70.0144 103.476 71.949 104.731 73.9359 105.934C75.9752 107.189 77.8052 108.496 79.8444 109.385C84.1843 111.476 89.0471 111.79 93.7529 110.954C94.0144 110.901 94.5373 110.797 94.7987 110.849C96.5242 110.954 98.1974 111.11 99.8706 110.849C101.91 110.535 103.897 109.646 105.047 107.973C106.25 106.3 106.877 103.999 107.714 101.803C109.335 97.4634 111.269 93.1758 112.263 88.6791C112.681 86.7444 112.786 83.8163 112.942 81.7771C113.309 77.1235 114.145 72.5222 114.145 67.8163C114.197 65.4634 114.25 63.1105 114.197 60.8098C113.57 49.0974 106.825 39.0582 95.6876 34.9274C83.2954 30.2738 66.7725 30.5876 57.6745 41.4111C53.2823 46.5876 51.2431 53.385 50.302 60.0255C48.5242 70.5876 49.2039 81.0451 57.6222 88.7314L60.0797 91.2935C61.0209 92.6529 59.2431 94.0124 58.4065 92.7575Z" fill="#AA55FF"/>
<path d="M64.5759 76.1303C64.5759 76.1303 62.955 68.2871 55.321 69.2283C48.7327 70.0649 46.4321 85.8558 61.3863 90.2479" fill="#F8F8F8"/>
<path d="M60.7065 83.3985C59.5039 82.7187 58.6673 81.5684 58.615 80.1566C58.6673 79.1109 58.8241 77.9083 58.5627 76.8625C58.4058 75.869 57.3601 75.6076 56.5758 75.6599C55.7392 75.8168 55.2163 76.8625 55.0594 77.6991C55.0594 77.7514 55.0072 77.9083 55.0072 77.9605C54.9549 78.222 54.5366 78.222 54.432 77.9605C53.7523 75.9213 55.2686 73.673 57.4647 73.9344C60.5496 74.1436 60.9679 77.3854 60.3928 79.8429C60.0791 80.8886 60.4974 81.8298 61.0725 82.7187L61.1771 82.8756C61.4385 83.1893 61.0202 83.6076 60.7065 83.3985Z" fill="#AA55FF"/>
<path d="M102.537 70.5877C103.321 74.3001 104.785 77.7511 106.615 80.9929C108.236 84.9668 104.053 88.7315 100.341 88.5746C99.9222 88.5746 99.87 87.9994 100.236 87.8949C102.589 87.1628 104.733 85.5942 105.099 83.189C105.256 82.457 105.046 81.8295 104.68 81.2021C102.955 77.9602 101.909 74.2478 102.171 70.5877C102.171 70.3262 102.537 70.3262 102.537 70.5877Z" fill="#AA55FF"/>
<path d="M64.3148 76.1827C63.1122 73.0978 60.4978 70.1697 56.9945 70.222C56.6808 70.1697 56.1579 70.2742 55.8442 70.2742C54.9553 70.3265 54.2233 70.6403 53.5436 71.2677C50.1972 74.6141 50.7723 80.5226 53.4913 84.235C54.4325 85.5422 55.6351 86.6926 56.9945 87.6337C58.354 88.5749 59.8704 89.3069 61.4913 89.9344C61.8573 90.039 61.7004 90.6141 61.3344 90.5618C57.8311 89.8298 54.4847 88.1043 52.1841 85.2285C48.6285 80.9409 47.8965 73.7775 52.1318 69.5945C53.073 68.7579 54.3802 68.1305 55.6874 68.1305C56.1057 68.1305 56.7331 68.0259 57.1514 68.1305C59.3475 68.235 61.439 69.3331 62.7985 71.0586C64.0011 72.5226 64.6808 74.3004 64.89 76.0782C64.89 76.3919 64.4194 76.4965 64.3148 76.1827Z" fill="#AA55FF"/>
<path d="M93.5962 111.268C96.0014 110.745 97.4132 108.392 97.204 105.987C97.1517 105.621 97.7269 105.516 97.7792 105.882C98.6681 108.862 97.0472 112.104 94.1713 113.255C92.655 113.83 92.0275 111.529 93.5962 111.268Z" fill="#AA55FF"/>
<path d="M99.0328 93.5432C98.1439 94.1707 96.8367 93.6478 95.8955 94.0661C95.2158 94.2753 94.1177 95.2164 92.5491 95.1119C91.2942 95.0073 90.6667 94.3798 89.621 93.9092C88.5229 93.5432 87.3726 92.8635 86.6406 91.9746C86.4837 91.8177 86.4837 91.6086 86.6406 91.4517C86.8497 91.2426 87.0589 91.3994 87.268 91.504C87.7386 91.7655 88.1046 91.9746 88.4707 92.0792C88.8367 92.1838 89.2027 92.0792 89.7779 92.0792C90.353 92.0269 91.1896 92.2883 91.7125 92.7066C92.0785 92.9681 92.4968 93.1249 92.8105 93.1772C93.6471 93.3341 94.6929 92.6543 95.5818 92.5498C96.2092 92.4452 96.889 92.4975 97.4118 92.6543C97.9347 92.8112 98.3007 92.9158 98.719 92.8112C99.1896 92.7066 99.4511 93.3341 99.0328 93.5432Z" fill="#AA55FF"/>
<path d="M91.0849 63.7906C92.2352 63.6861 92.8104 62.3266 92.183 61.2808C91.8169 60.758 91.3464 60.2874 90.6666 60.0259C88.6797 59.3985 82.196 60.8103 79.3725 64.0521C76.8627 67.0325 85.8562 64.2612 91.0849 63.7906Z" fill="#AA55FF"/>
<path d="M104.889 64.627C104 64.3655 103.738 63.0583 104.47 62.2217C104.836 61.8034 105.359 61.4374 105.934 61.3328C107.712 61.0191 111.791 62.64 112.941 65.725C113.987 68.3917 109.124 65.6727 104.889 64.627Z" fill="#AA55FF"/>
<path d="M83.033 75.9213C81.7781 75.869 80.837 74.8233 80.9415 73.5684L80.9938 72.1043C81.0461 70.8494 82.0919 69.9082 83.3468 70.0128C84.6017 70.0651 85.5428 71.1109 85.4383 72.3658L85.386 73.8298C85.3337 75.0324 84.2879 75.9736 83.033 75.9213Z" fill="#AA55FF"/>
<path d="M105.046 76.7058C103.895 76.6535 103.007 75.6601 103.059 74.5097L103.111 73.1502C103.163 71.9999 104.157 71.111 105.307 71.1633C106.458 71.2156 107.346 72.2091 107.294 73.3594L107.242 74.7189C107.19 75.8692 106.196 76.7581 105.046 76.7058Z" fill="#AA55FF"/>
<path d="M87.7388 73.0977C86.0133 71.9474 84.1309 71.1631 82.0394 71.5814C81.3597 71.686 80.6799 71.8951 80.2616 72.3657C80.1048 72.5749 79.7388 72.5226 79.7388 72.2089C79.7911 71.1631 80.6799 70.4834 81.5165 70.0651C83.1375 69.2285 85.3858 69.3853 86.8499 70.4834C87.3728 70.7971 89.1505 72.7317 88.2094 73.15C88.0002 73.2546 87.8956 73.2023 87.7388 73.0977Z" fill="#AA55FF"/>
<path d="M102.693 73.3589C102.693 71.1628 105.412 70.3785 107.085 71.1628C108.026 71.5811 108.706 72.4177 108.967 73.4112C109.072 73.7249 108.601 73.9863 108.392 73.7249C107.503 72.6792 105.987 72.1563 104.784 72.7837C104.418 72.9929 104.366 73.1498 104.262 73.3589C104.262 74.4047 102.745 74.3524 102.693 73.3589Z" fill="#AA55FF"/>
<path d="M116.183 31.6341C103.634 28.0785 102.274 34.5622 89.7252 27.6602C77.1762 20.706 54.4311 25.3596 50.1958 41.5165C50.1958 41.5165 43.1893 45.804 42.7187 60.6014C42.405 70.5361 47.5814 79.6341 50.9801 84.4969C53.2808 88.2616 55.686 91.0328 57.0978 93.5426C59.3462 97.5688 60.4442 101.961 60.4442 101.961C60.9671 96.9413 62.1697 92.34 61.4377 90.3008L59.7122 89.7256C46.6403 84.706 48.9932 70.1178 55.3723 69.2812C62.0651 68.4446 64.1566 74.4054 64.5226 75.8694C65.4115 74.7714 65.0978 71.4772 64.8886 67.5557C75.3462 72.7322 85.8037 60.9674 89.3069 51.8694C93.6468 40.6276 103.215 49.4119 103.215 49.4119C103.215 49.4119 112.679 67.1374 122.719 59.242C131.608 52.1308 129.83 35.4511 116.183 31.6341Z" fill="#AA55FF"/>
<path d="M91.5048 82.4046C89.0995 82.4569 81.6747 82.5091 79.374 82.5614C75.4002 82.6137 72.4198 79.1627 72.7858 75.2412C72.8381 73.934 72.7858 72.1039 72.8381 70.7967C72.9427 67.398 75.9753 64.5222 79.374 64.6268L88.2106 64.7314C88.8904 64.7314 90.825 64.7837 91.5048 64.7837C94.3283 64.7314 96.995 66.8229 97.6224 69.5941C97.8316 70.3784 97.7793 71.215 97.7793 71.8948V76.3392C97.727 79.6333 94.7989 82.4569 91.5048 82.4046ZM91.5048 81.2542C94.2237 81.3588 96.7335 79.0059 96.7858 76.2869C96.8381 74.8752 96.7858 73.3588 96.7858 71.8948C97.0995 68.7052 94.6943 65.7771 91.4525 65.8817C89.2041 65.934 81.6747 65.9863 79.3217 66.0386C76.4982 66.0386 74.093 68.6007 74.3021 71.4242C74.3021 71.7902 74.3021 72.7314 74.3021 73.0974C74.3544 74.2477 74.1976 76.2346 74.459 77.2804C74.9819 79.4765 77.0734 81.1497 79.3217 81.1497H80.4198C81.9361 81.1497 89.9361 81.2542 91.5048 81.2542Z" fill="#AA55FF"/>
<path d="M112.576 66.1429L108.445 66.1952C107.295 66.2475 105.935 66.0383 104.942 66.718C104.001 67.3455 103.582 68.4958 103.635 69.5939C103.635 70.9533 103.635 72.3651 103.582 73.7246L103.53 73.5154C104.262 76.0775 105.255 78.535 106.772 80.6788L106.249 80.3651C106.667 80.4697 107.399 80.4697 107.818 80.4697C109.386 80.522 111.216 80.6265 112.785 80.6265C114.249 80.6265 115.661 79.5285 115.974 78.0645C116.079 77.6462 116.079 76.9141 116.079 76.4958C116.079 74.2475 116.131 72.0514 116.027 69.803C116.131 67.8161 114.615 66.0383 112.576 66.1429ZM112.576 64.5743C115.347 64.5743 117.282 67.2409 116.811 69.8553C116.706 72.1037 116.759 74.2997 116.759 76.5481C117.02 79.1625 115.452 81.5154 112.733 81.7246C111.582 81.7769 110.484 81.7769 109.386 81.8292C108.811 81.8292 107.399 81.9337 106.876 81.9337C106.615 81.986 106.197 81.9337 105.935 81.9337C105.726 81.9337 105.517 81.7769 105.412 81.62C103.791 79.2148 102.641 76.5481 101.961 73.7769C101.961 71.9991 101.804 70.2213 101.961 68.4435C102.275 66.352 104.157 64.5743 106.301 64.522C107.765 64.4697 111.112 64.5743 112.576 64.5743Z" fill="#AA55FF"/>
<path d="M97.2026 69.3848C98.6144 68.7574 100.183 68.496 101.752 68.6005C102.275 68.6528 102.797 68.8097 103.268 69.228L103.948 69.8032C104.627 70.3783 103.791 71.3718 103.111 70.7966C102.275 70.0646 101.281 70.1692 100.288 70.2215C99.2941 70.326 98.353 70.5352 97.4118 70.9012C96.5229 71.2672 95.9477 69.96 96.7843 69.5417C96.7843 69.5417 97.2026 69.3848 97.2026 69.3848Z" fill="#AA55FF"/>
<path d="M73.6741 71.2678C73.3081 72.1044 72.8898 72.209 72.21 72.1567L70.6937 72.209C67.661 72.209 64.5761 72.1567 61.5434 71.6861C60.4976 71.6339 60.4453 70.1698 61.4911 70.1175L73.6218 69.6992C73.9878 69.6992 74.2493 70.0652 74.0924 70.379L73.6741 71.2678Z" fill="#AA55FF"/>
<path d="M150.693 44.079C182.432 105.203 126.641 174.171 60.1309 157.334C30.2747 149.909 6.27469 124.027 1.30737 93.6476C-4.33969 63.4254 9.30737 30.9548 34.8237 13.8568C69.8041 -10.1955 118.275 -2.19553 143.32 32.2097C143.477 32.3666 143.425 32.628 143.216 32.7849C143.059 32.9417 142.798 32.8894 142.641 32.6803C139.19 28.2358 135.268 24.2097 130.981 20.6019C123.922 14.5888 115.66 9.8829 106.928 6.69336C62.4839 -9.41122 13.6995 17.36 3.97403 63.8437C-7.00636 115.922 37.2812 163.87 90.0917 156.706C130.824 151.582 161.098 113.988 157.752 73.0986C157.02 63.2163 154.405 53.4385 150.066 44.445C149.961 44.2881 150.066 44.079 150.222 43.9744C150.379 43.8698 150.588 43.9221 150.693 44.079Z" fill="#AA55FF"/>
</g>
</svg>
