<svg width="160" height="160" viewBox="0 0 160 160" fill="none" xmlns="http://www.w3.org/2000/svg">
<mask id="mask0_1717_2131" style="mask-type:alpha" maskUnits="userSpaceOnUse" x="-1" y="0" width="161" height="160">
<ellipse cx="79.7373" cy="79.7377" rx="79.7378" ry="79.7377" fill="#D9D9D9"/>
</mask>
<g mask="url(#mask0_1717_2131)">
<path d="M123.451 145.568C123.085 145.829 122.667 146.091 122.301 146.352C121.883 146.614 121.517 146.875 121.099 147.084C120.733 147.293 120.419 147.502 120.053 147.712C120 147.764 119.948 147.764 119.896 147.816C118.693 148.548 117.438 149.228 116.183 149.855C115.817 150.064 115.399 150.274 115.033 150.431C115.033 150.431 114.981 150.483 114.929 150.483C114.51 150.692 114.092 150.901 113.674 151.11C112.837 151.529 111.948 151.895 111.112 152.261C110.693 152.47 110.223 152.627 109.804 152.783C109.386 152.94 108.916 153.149 108.497 153.306C108.079 153.463 107.608 153.672 107.19 153.829C107.19 153.829 107.19 153.829 107.138 153.829C106.719 153.986 106.249 154.143 105.831 154.3C104.889 154.614 103.896 154.927 102.955 155.241C102.641 155.346 102.275 155.45 101.961 155.555C100.968 155.868 99.9743 156.13 98.9809 156.339C98.6149 156.444 98.2489 156.496 97.8306 156.6C96.8894 156.81 95.8959 157.019 94.9547 157.228C94.7456 157.28 94.5887 157.28 94.3796 157.332C94.0658 157.385 93.6998 157.437 93.3861 157.489C92.9155 157.542 92.4972 157.646 92.0266 157.698C91.8175 157.751 91.6083 157.751 91.3992 157.803C91.1377 157.855 90.824 157.908 90.5103 157.908C89.6737 158.012 88.7848 158.117 87.9482 158.221C87.6868 158.274 87.373 158.274 87.1116 158.326H87.0593C86.6933 158.378 86.3273 158.378 85.9613 158.431C85.5953 158.483 85.2292 158.483 84.8632 158.483C84.6541 158.483 84.3926 158.535 84.1835 158.535C83.7652 158.535 83.3992 158.587 83.0332 158.587C82.5103 158.587 82.0397 158.64 81.5168 158.64C80.9939 158.64 80.5234 158.64 80.0005 158.64C79.6345 158.64 79.2685 158.64 78.9024 158.64C56.8371 158.326 37.0201 148.966 22.8501 134.117C22.8501 134.117 22.8501 134.064 22.7979 134.064C21.2292 132.653 22.5887 125.123 28.9155 120.365C36.8632 114.352 55.8959 110.587 55.8959 110.587C55.8959 110.587 63.2685 109.385 90.6149 115.084C106.615 118.431 118.798 123.293 125.595 136.47C127.007 139.189 128.419 143.372 123.451 145.568Z" fill="#FFF8F8"/>
<path d="M90.7715 114.509C100.811 116.548 111.53 118.744 119.791 125.385C122.562 127.633 124.392 130.927 125.909 134.117C126.641 135.686 127.373 137.306 127.948 139.032C128.262 140.182 128.732 141.489 128.471 142.849C128.419 143.215 128.105 143.686 127.843 143.947C126.641 145.15 125.334 145.882 124.026 146.823C116.34 152.156 107.504 155.921 98.3532 157.908C77.961 162.352 55.8956 158.901 37.961 148.182C32.0002 144.574 26.51 140.182 21.8041 135.006C21.2812 134.378 21.2812 133.333 21.2812 132.653C21.3335 131.084 21.7518 129.568 22.2747 128.156C23.5296 124.914 25.1505 121.672 27.9218 119.424C29.9087 118.065 32.0525 116.914 34.2486 115.973C41.1505 113.045 48.4185 111.006 55.8956 110.169C56.5231 110.117 56.6277 111.006 56.0002 111.11C48.8368 112.574 41.7257 114.771 35.0852 117.751C32.6799 118.954 30.1179 119.999 28.1832 121.882C26.3531 123.869 25.046 126.326 24.0002 128.836C23.3205 130.352 22.8499 132.757 23.059 133.96C26.3531 137.882 30.2224 141.333 34.4054 144.313C57.3074 160.313 92.0787 161.359 116.445 148.025C118.641 146.823 120.785 145.463 122.824 144.052C123.817 143.372 124.863 142.797 125.647 142.012C125.7 141.96 125.647 142.012 125.647 142.065C125.647 142.117 125.595 142.169 125.595 142.169C125.647 141.542 125.438 140.705 125.177 139.869C124.236 136.836 122.719 133.646 121.098 130.875C118.536 126.744 114.196 124.13 109.804 122.038C106.771 120.627 103.582 119.529 100.34 118.483C97.0983 117.437 93.8042 116.548 90.51 115.764C89.6734 115.555 89.9349 114.352 90.7715 114.509Z" fill="#0F172A"/>
<path d="M141.699 178.197L9.25439 175.269C17.4113 148.027 21.9603 124.027 28.0779 120.367C39.6858 113.412 50.1433 112.314 56.3655 111.739C57.9342 115.609 63.8949 128.314 76.2871 133.334C88.2609 138.197 95.3721 134.955 96.4701 129.569C97.1498 126.118 95.0061 120.471 93.908 118.641C93.2806 118.118 92.8623 117.334 92.6531 116.55L92.2348 114.824C93.1237 114.615 94.0126 114.406 94.9015 114.092C104.418 115.765 118.849 123.609 121.934 128.001C125.647 133.282 130.771 146.511 130.562 153.778C130.248 165.596 141.699 178.197 141.699 178.197Z" fill="#FFF8F8"/>
<path d="M142.954 178.772C103.529 178.196 48.1041 177.621 9.25446 176.628C8.52243 176.628 7.94727 176 7.94727 175.268C12.1826 160.994 15.5813 146.615 20.1303 132.393C20.7054 130.615 21.3329 128.889 22.0649 127.111C23.3198 124.34 24.5747 121.255 27.1891 119.373C28.7054 118.484 30.3264 117.595 31.895 116.811C39.4767 113.046 47.895 111.111 56.261 110.432C56.8885 110.379 57.4113 110.745 57.6205 111.268C61.5943 120.785 68.81 129.621 78.9015 132.915C83.8689 134.641 92.7055 136.105 95.0584 129.935C95.8427 126.955 94.6924 123.817 93.6466 120.994C93.3852 120.419 93.1238 119.843 92.8623 119.373L93.1238 119.687C92.1303 118.85 91.5028 117.438 91.2937 116.183L91.0323 115.138C90.8754 114.406 91.346 113.674 92.078 113.517C92.9669 113.308 93.8035 113.098 94.6401 112.837C101.96 113.36 116.967 120.785 122.143 126.013C125.176 129.517 126.902 134.066 128.627 138.301C129.882 141.7 130.98 145.203 131.607 148.811C131.869 150.17 132.026 151.582 132.026 152.994C131.973 155.085 132.13 157.229 132.705 159.321C134.431 165.857 138.248 171.87 142.588 177.046L142.692 177.151L142.745 177.203C142.745 177.203 142.692 177.151 142.902 177.36C143.058 177.778 143.111 178.406 142.954 178.772ZM140.496 177.674C140.444 177.83 140.339 178.04 140.392 178.301C140.392 178.562 140.496 178.772 140.601 178.928C140.758 179.138 140.705 179.033 140.705 179.085L140.653 179.033C140.287 178.51 139.555 177.464 139.189 176.889C134.902 170.144 130.666 162.667 130.509 154.458C130.614 149.072 128.941 143.896 127.163 138.928C125.908 135.582 124.444 132.34 122.562 129.308C122.091 128.576 121.62 127.844 120.993 127.216C119.111 125.386 116.81 123.922 114.509 122.615C108.392 119.216 101.751 116.393 94.797 115.504L95.4244 115.451C94.4832 115.765 93.5421 115.974 92.6009 116.183L93.6466 114.562C93.9604 115.66 94.0126 116.968 94.9015 117.7C95.4767 118.379 95.7904 119.268 96.1564 120C96.993 121.987 97.5682 124.027 97.9342 126.17C98.8754 131.294 95.8427 135.53 90.8231 136.68C86.5878 137.674 82.1434 136.785 78.1172 135.477C67.2937 132.027 59.4506 122.562 55.2153 112.314L56.5747 113.151C48.3133 113.046 40.1041 114.667 32.627 118.223C31.0061 119.007 29.3329 119.896 27.8166 120.837C25.6728 122.562 24.627 125.281 23.529 127.739C20.1303 136.314 18.1433 145.308 15.895 154.196C14.3264 160.471 12.2348 169.36 10.6662 175.687L9.41132 173.961C47.2675 174.745 102.013 176.419 140.496 177.674Z" fill="#0F172A"/>
<path d="M32.4703 177.988C32.4703 177.988 31.7906 161.046 31.1108 157.909" stroke="#0F172A" stroke-width="0.633994" stroke-miterlimit="10" stroke-linecap="round" stroke-linejoin="round"/>
<path d="M125.124 177.988C125.124 177.988 123.555 167.478 123.555 165.648C123.555 163.87 124.915 158.014 125.124 152.89" stroke="#0F172A" stroke-width="0.633994" stroke-miterlimit="10" stroke-linecap="round" stroke-linejoin="round"/>
<path d="M47.8955 164.811V158.589L62.9021 164.707C62.8498 164.707 50.7713 165.02 47.8955 164.811Z" fill="#FFF8F8"/>
<path d="M83.6602 144.575L81.7778 183.582C81.7778 183.582 98.353 194.876 98.353 194.562C98.353 194.249 106.196 180.549 106.196 180.549L93.9608 143.007C93.9608 143.007 92.3922 144.628 83.6602 144.575Z" fill="#0F172A"/>
<path d="M87.4249 132.026C87.4249 132.026 80.2615 138.771 79.3203 140.549C78.3791 142.327 83.3465 145.151 83.3465 145.151C83.3465 145.151 91.3465 146.824 94.9543 143.582C94.9543 143.582 96.9935 141.334 96.5752 139.19C96.2092 137.098 87.4249 132.026 87.4249 132.026Z" fill="#0F172A"/>
<path d="M54.2217 106.719C54.2739 106.667 54.3262 106.615 54.3785 106.562C54.9537 105.883 55.7903 105.464 56.7315 105.36C61.1236 104.837 61.5942 105.307 62.5354 106.771C67.0844 113.883 72.9929 127.477 87.4766 132.079L73.5158 146.301C72.7838 147.242 71.4766 147.399 70.5354 146.719C66.0386 143.373 57.0452 133.124 52.0779 120.628C51.0321 118.013 50.823 115.137 51.3458 112.419C51.2413 112.314 53.3328 107.974 54.2217 106.719Z" fill="#FFF8F8"/>
<path d="M53.8558 106.458C54.6401 105.726 55.529 105.098 56.6271 104.941C58.0911 104.785 59.6075 104.471 61.1238 104.785C62.6924 105.255 63.2676 106.981 64.1565 108.183C68.078 114.615 72.1565 121.151 78.1696 125.7C80.3133 127.425 82.7709 128.732 85.2807 129.778C86.2218 130.144 87.2153 130.458 88.1565 130.876C88.9408 131.242 89.0977 132.392 88.4179 132.915C84.5486 136.053 80.8885 139.451 77.2807 142.955C76.4441 143.791 74.5094 145.726 73.7774 146.458C72.9408 147.556 71.2676 147.713 70.2218 146.876L69.699 146.458C67.9212 144.994 66.3003 143.321 64.7316 141.647C59.1369 135.477 54.431 128.471 51.2937 120.732C50.1957 117.961 49.9343 114.824 50.614 111.948C51.3983 110.013 52.4441 108.079 53.8558 106.458ZM54.9016 107.19C53.7512 108.811 52.7578 110.798 51.9212 112.628L51.9735 112.471C51.6597 114.196 51.6597 115.974 52.0258 117.647C52.3395 119.425 53.1238 120.994 53.8035 122.615C55.2153 125.961 56.9931 129.151 58.8754 132.236C60.7578 135.321 62.9016 138.301 65.3068 141.072C66.9277 142.955 68.6532 144.785 70.6401 146.301C70.797 146.458 70.9539 146.51 71.163 146.615C71.895 146.928 72.7839 146.667 73.2545 146.04L74.98 144.262L76.7055 142.432C80.1565 138.824 83.4506 135.059 86.5356 131.138L87.0584 133.281C83.2937 132.131 79.7382 130.092 76.6532 127.53C70.5356 122.562 66.5617 115.66 62.797 108.968C62.3264 108.236 61.8558 107.294 61.3852 106.615C61.1761 106.301 61.0192 106.196 60.7055 106.092C59.5029 105.778 58.0911 105.987 56.8362 106.144C55.9996 106.249 55.3199 106.615 54.9016 107.19Z" fill="#0F172A"/>
<path d="M102.065 141.124C101.751 142.85 100.496 144.47 98.4047 142.327L87.3721 132.026C87.3721 132.026 93.8034 125.908 92.2348 114.823C94.3786 114.353 96.4178 113.673 98.3002 112.784C98.3525 112.889 99.0845 114.301 99.9211 116.653C101.699 121.516 103.947 130.457 102.065 141.124Z" fill="#FFF8F8"/>
<path d="M102.379 141.177C102.065 143.686 100.183 144.732 98.2481 142.798L94.5357 139.347L90.8233 135.896L87.1109 132.445C86.9017 132.235 86.9017 131.922 87.0586 131.713C89.9344 128.366 91.3985 123.817 91.3985 119.425C91.3985 117.856 91.1893 116.34 90.9279 114.771C90.8233 114.144 91.3462 113.569 92.0259 113.516C94.1174 113.464 96.2089 113.203 98.3004 112.68C98.3527 112.628 98.4573 112.68 98.4573 112.732C102.64 121.516 103.947 131.608 102.379 141.177ZM101.804 141.072C103.059 131.765 101.699 122.092 97.3592 113.778L97.2547 113.621C97.2024 113.569 97.1501 113.464 97.1501 113.464L98.9279 113.987C96.8887 114.981 94.7449 115.66 92.5488 116.131L93.5945 114.615C93.9083 117.856 93.6468 121.15 92.7057 124.235C91.7122 127.32 90.1436 130.144 87.7906 132.445V131.66C89.673 133.386 93.3854 136.889 95.2155 138.615L98.8756 142.118C100.183 143.477 101.438 142.954 101.804 141.072Z" fill="#0F172A"/>
<path d="M95.687 128.418C94.589 133.803 87.4779 137.045 75.504 132.182C63.0596 127.163 57.6739 115.189 56.3145 111.633C63.687 97.8293 58.5628 88.2607 58.5628 88.2607C75.5563 86.7967 90.406 106.666 90.406 106.666L92.7066 116.496C92.9158 117.333 93.3341 118.065 93.9615 118.588C95.0596 120.522 96.3668 124.967 95.687 128.418Z" fill="#FFF8F8"/>
<path d="M56.0533 111.79C57.0467 110.274 57.6742 108.496 58.0925 106.771C58.8768 103.163 59.1382 99.5026 59.1905 95.8424V94.483C59.0337 93.1235 58.5631 91.7117 58.0402 90.4568C57.3605 88.7836 59.818 87.7379 60.6023 89.4111C60.7069 89.6202 60.7069 89.9862 60.7069 90.1954C60.8637 97.3065 61.1775 106.457 56.6807 112.365C56.367 112.679 55.7396 112.208 56.0533 111.79Z" fill="#0F172A"/>
<path d="M90.9812 106.562C91.7655 107.033 92.0269 107.66 92.1315 108.287C92.4452 109.542 92.3407 110.902 92.6544 112.209C92.9158 113.464 93.7001 114.667 93.9093 115.974C94.1707 117.333 94.955 120.209 95.2688 121.621C95.3733 121.934 95.1642 122.301 94.7982 122.353C94.589 122.405 94.4322 122.353 94.2753 122.248C93.5956 121.673 93.2818 121.098 92.8635 120.366C92.1838 119.111 91.7132 117.961 91.2949 116.549C90.9289 115.294 91.0858 113.934 90.772 112.627C90.5106 111.372 89.7786 110.17 89.5171 108.863C89.3603 108.235 89.308 107.555 89.7786 106.771C90.0923 106.457 90.6152 106.353 90.9812 106.562Z" fill="#0F172A"/>
<path d="M94.7463 120.365C84.7594 119.842 76.6025 116.705 68.6548 102.535C75.3476 108.444 83.243 110.692 91.5568 111.738L92.6548 116.548C92.8639 117.385 94.1188 119.842 94.7463 120.365Z" fill="#0F172A"/>
<path d="M94.3288 118.43C96.1066 121.776 97.1523 125.959 96.0543 129.672C95.2177 132.286 92.8125 134.221 90.1981 134.953C84.1327 136.574 77.1262 134.012 71.7406 131.136C65.1 127.423 60.185 121.201 57.0477 114.404C56.8386 113.881 57.5706 113.463 57.8843 113.985C58.9824 116.181 60.2373 118.325 61.649 120.26C63.0608 122.247 64.6817 124.077 66.5118 125.698C71.8451 130.508 79.0608 133.489 86.2765 133.489C93.7013 133.28 96.5249 129.358 94.7994 122.142C94.5379 120.992 94.1196 119.789 93.5445 118.796C93.2308 118.378 94.0151 117.907 94.3288 118.43Z" fill="#0F172A"/>
<path d="M114.563 55.6336C115.504 60.0257 114.772 62.9538 114.354 75.0845C114.145 80.8362 113.256 82.98 112.995 89.4113C112.89 92.3394 110.746 96.3656 109.962 98.7185C108.916 101.908 107.87 106.196 105.465 109.281C104.21 110.849 102.694 111.79 100.184 112.209C99.3475 112.366 98.5109 111.111 97.8312 111.372C89.6221 114.98 80.6286 113.307 72.4717 106.196C68.9162 103.058 63.5828 95.4767 61.3345 90.2479C60.8639 89.1499 58.7724 91.4506 55.792 88.1564C51.6613 83.6597 46.6939 74.614 49.1514 58.614C53.1253 32.6793 73.6743 29.6466 88.89 32.5224C104.21 35.3983 112.053 44.078 114.563 55.6336Z" fill="#FFF8F8"/>
<path d="M58.4065 92.7575C57.2039 90.7706 55.6353 88.9928 54.2235 87.1105C52.132 84.2346 50.5634 80.9405 49.5176 77.5418C44.132 60.7052 49.2562 37.8555 68.0797 32.4176C74.9817 30.3261 82.302 30.483 89.3085 31.7902C98.7203 33.4111 108.132 38.2216 112.733 46.9536C114.407 50.1954 115.661 53.6987 116.027 57.3065C116.237 59.7118 115.818 62.117 115.557 64.4699C115.243 66.8229 115.191 69.1235 115.086 71.4765C114.825 74.9797 114.354 78.4307 114.197 81.934C113.988 84.2869 114.145 86.6399 113.779 88.9928C112.995 93.6987 111.217 98.0909 109.753 102.535C108.603 105.934 107.452 110.117 103.949 111.842C101.439 113.359 98.4065 113.411 95.6353 113.202C95.217 113.202 94.9033 113.097 94.5895 113.202C87.8444 114.509 81.5699 113.359 75.9229 109.28C73.2039 107.137 69.9621 105.097 67.9229 102.274C67.7137 101.96 68.132 101.594 68.3935 101.856C70.0144 103.476 71.949 104.731 73.9359 105.934C75.9752 107.189 77.8052 108.496 79.8444 109.385C84.1843 111.476 89.0471 111.79 93.7529 110.954C94.0144 110.901 94.5373 110.797 94.7987 110.849C96.5242 110.954 98.1974 111.11 99.8706 110.849C101.91 110.535 103.897 109.646 105.047 107.973C106.25 106.3 106.877 103.999 107.714 101.803C109.335 97.4634 111.269 93.1758 112.263 88.6791C112.681 86.7444 112.786 83.8163 112.942 81.7771C113.309 77.1235 114.145 72.5222 114.145 67.8163C114.197 65.4634 114.25 63.1105 114.197 60.8098C113.57 49.0974 106.825 39.0582 95.6876 34.9274C83.2954 30.2738 66.7725 30.5876 57.6745 41.4111C53.2824 46.5876 51.2431 53.385 50.302 60.0255C48.5242 70.5876 49.2039 81.0451 57.6222 88.7314L60.0797 91.2935C61.0209 92.6529 59.2431 94.0124 58.4065 92.7575Z" fill="#0F172A"/>
<path d="M64.5759 76.1308C64.5759 76.1308 62.955 68.2876 55.321 69.2288C48.7327 70.0654 46.4321 85.8563 61.3863 90.2484" fill="#FFF8F8"/>
<path d="M60.7065 83.398C59.5039 82.7182 58.6673 81.5679 58.615 80.1561C58.6673 79.1104 58.8241 77.9078 58.5627 76.862C58.4058 75.8686 57.3601 75.6071 56.5758 75.6594C55.7392 75.8163 55.2163 76.862 55.0594 77.6986C55.0594 77.7509 55.0072 77.9078 55.0072 77.9601C54.9549 78.2215 54.5366 78.2215 54.432 77.9601C53.7523 75.9208 55.2686 73.6725 57.4647 73.9339C60.5496 74.1431 60.9679 77.3849 60.3928 79.8424C60.0791 80.8882 60.4974 81.8293 61.0725 82.7182L61.1771 82.8751C61.4385 83.1888 61.0202 83.6071 60.7065 83.398Z" fill="#0F172A"/>
<path d="M102.537 70.5877C103.321 74.3001 104.785 77.7511 106.615 80.9929C108.236 84.9668 104.053 88.7315 100.341 88.5746C99.9222 88.5746 99.87 87.9994 100.236 87.8949C102.589 87.1628 104.733 85.5942 105.099 83.189C105.256 82.457 105.046 81.8295 104.68 81.2021C102.955 77.9602 101.909 74.2478 102.171 70.5877C102.171 70.3262 102.537 70.3262 102.537 70.5877Z" fill="#0F172A"/>
<path d="M64.3148 76.1827C63.1122 73.0978 60.4978 70.1697 56.9945 70.222C56.6808 70.1697 56.1579 70.2742 55.8442 70.2742C54.9553 70.3265 54.2233 70.6403 53.5436 71.2677C50.1972 74.6141 50.7723 80.5226 53.4913 84.235C54.4325 85.5422 55.6351 86.6926 56.9945 87.6337C58.354 88.5749 59.8704 89.3069 61.4913 89.9344C61.8573 90.039 61.7004 90.6141 61.3344 90.5618C57.8311 89.8298 54.4847 88.1043 52.1841 85.2285C48.6285 80.9409 47.8965 73.7775 52.1318 69.5945C53.073 68.7579 54.3802 68.1305 55.6874 68.1305C56.1057 68.1305 56.7331 68.0259 57.1514 68.1305C59.3475 68.235 61.439 69.3331 62.7985 71.0586C64.0011 72.5226 64.6808 74.3004 64.89 76.0782C64.89 76.3919 64.4194 76.4965 64.3148 76.1827Z" fill="#0F172A"/>
<path d="M93.5962 111.268C96.0014 110.745 97.4132 108.392 97.204 105.987C97.1517 105.621 97.7269 105.516 97.7792 105.882C98.6681 108.862 97.0472 112.104 94.1713 113.255C92.655 113.83 92.0275 111.529 93.5962 111.268Z" fill="#0F172A"/>
<path d="M99.0328 93.5432C98.1439 94.1707 96.8367 93.6478 95.8955 94.0661C95.2158 94.2753 94.1177 95.2164 92.5491 95.1119C91.2942 95.0073 90.6667 94.3798 89.621 93.9092C88.5229 93.5432 87.3726 92.8635 86.6406 91.9746C86.4837 91.8177 86.4837 91.6086 86.6406 91.4517C86.8497 91.2426 87.0589 91.3994 87.268 91.504C87.7386 91.7655 88.1046 91.9746 88.4707 92.0792C88.8367 92.1838 89.2027 92.0792 89.7779 92.0792C90.353 92.0269 91.1896 92.2883 91.7125 92.7066C92.0785 92.9681 92.4968 93.1249 92.8105 93.1772C93.6471 93.3341 94.6929 92.6543 95.5818 92.5498C96.2092 92.4452 96.889 92.4975 97.4118 92.6543C97.9347 92.8112 98.3007 92.9158 98.719 92.8112C99.1896 92.7066 99.4511 93.3341 99.0328 93.5432Z" fill="#0F172A"/>
<path d="M91.0849 63.7902C92.2352 63.6856 92.8104 62.3261 92.183 61.2804C91.8169 60.7575 91.3464 60.2869 90.6666 60.0255C88.6797 59.398 82.196 60.8098 79.3725 64.0516C76.8627 67.032 85.8562 64.2607 91.0849 63.7902Z" fill="#0F172A"/>
<path d="M104.889 64.6265C104 64.365 103.738 63.0578 104.47 62.2212C104.836 61.8029 105.359 61.4369 105.934 61.3324C107.712 61.0186 111.791 62.6395 112.941 65.7245C113.987 68.3912 109.124 65.6722 104.889 64.6265Z" fill="#0F172A"/>
<path d="M83.033 75.9213C81.7781 75.869 80.837 74.8233 80.9415 73.5684L80.9938 72.1043C81.0461 70.8494 82.0919 69.9082 83.3468 70.0128C84.6017 70.0651 85.5428 71.1109 85.4383 72.3658L85.386 73.8298C85.3337 75.0324 84.2879 75.9736 83.033 75.9213Z" fill="#0F172A"/>
<path d="M105.046 76.7048C103.895 76.6525 103.007 75.6591 103.059 74.5088L103.111 73.1493C103.163 71.9989 104.157 71.1101 105.307 71.1623C106.458 71.2146 107.346 72.2081 107.294 73.3584L107.242 74.7179C107.19 75.8682 106.196 76.7571 105.046 76.7048Z" fill="#0F172A"/>
<path d="M87.7388 73.0973C86.0133 71.9469 84.1309 71.1626 82.0394 71.5809C81.3597 71.6855 80.6799 71.8946 80.2616 72.3652C80.1048 72.5744 79.7388 72.5221 79.7388 72.2084C79.7911 71.1626 80.6799 70.4829 81.5165 70.0646C83.1375 69.228 85.3858 69.3848 86.8499 70.4829C87.3728 70.7966 89.1505 72.7312 88.2094 73.1495C88.0002 73.2541 87.8956 73.2018 87.7388 73.0973Z" fill="#0F172A"/>
<path d="M102.693 73.3589C102.693 71.1628 105.412 70.3785 107.085 71.1628C108.026 71.5811 108.706 72.4177 108.967 73.4112C109.072 73.7249 108.601 73.9863 108.392 73.7249C107.503 72.6792 105.987 72.1563 104.784 72.7837C104.418 72.9929 104.366 73.1498 104.262 73.3589C104.262 74.4047 102.745 74.3524 102.693 73.3589Z" fill="#0F172A"/>
<path d="M116.183 31.6336C103.634 28.0781 102.274 34.5617 89.7252 27.6598C77.1762 20.7055 54.4311 25.3591 50.1958 41.516C50.1958 41.516 43.1893 45.8036 42.7187 60.6009C42.405 70.5356 47.5814 79.6336 50.9801 84.4964C53.2808 88.2611 55.686 91.0323 57.0978 93.5421C59.3462 97.5683 60.4442 101.96 60.4442 101.96C60.9671 96.9408 62.1697 92.3395 61.4377 90.3003L59.7122 89.7251C46.6403 84.7055 48.9932 70.1173 55.3723 69.2807C62.0651 68.4441 64.1566 74.4049 64.5226 75.8689C65.4115 74.7709 65.0978 71.4768 64.8886 67.5552C75.3462 72.7317 85.8037 60.967 89.3069 51.8689C93.6468 40.6271 103.215 49.4114 103.215 49.4114C103.215 49.4114 112.679 67.1369 122.719 59.2415C131.608 52.1304 129.83 35.4506 116.183 31.6336Z" fill="#0F172A"/>
<path d="M91.5048 82.4056C89.0995 82.4578 81.6747 82.5101 79.374 82.5624C75.4002 82.6147 72.4198 79.1637 72.7858 75.2421C72.8381 73.935 72.7858 72.1049 72.8381 70.7977C72.9427 67.399 75.9753 64.5232 79.374 64.6278L88.2106 64.7323C88.8904 64.7323 90.825 64.7846 91.5048 64.7846C94.3283 64.7323 96.9949 66.8238 97.6224 69.5951C97.8316 70.3794 97.7793 71.216 97.7793 71.8957V76.3402C97.727 79.6343 94.7989 82.4578 91.5048 82.4056ZM91.5048 81.2552C94.2237 81.3598 96.7335 79.0069 96.7858 76.2879C96.8381 74.8761 96.7858 73.3598 96.7858 71.8957C97.0995 68.7062 94.6943 65.7781 91.4525 65.8827C89.2041 65.935 81.6747 65.9872 79.3217 66.0395C76.4982 66.0395 74.093 68.6016 74.3021 71.4252C74.3021 71.7912 74.3021 72.7323 74.3021 73.0984C74.3544 74.2487 74.1976 76.2356 74.459 77.2814C74.9819 79.4775 77.0734 81.1507 79.3217 81.1507H80.4198C81.9361 81.1507 89.9361 81.2552 91.5048 81.2552Z" fill="#0F172A"/>
<path d="M112.576 66.1434L108.445 66.1957C107.295 66.2479 105.935 66.0388 104.942 66.7185C104.001 67.346 103.582 68.4963 103.635 69.5944C103.635 70.9538 103.635 72.3656 103.582 73.7251L103.53 73.5159C104.262 76.078 105.255 78.5355 106.772 80.6793L106.249 80.3656C106.667 80.4702 107.399 80.4702 107.818 80.4702C109.386 80.5225 111.216 80.627 112.785 80.627C114.249 80.627 115.661 79.529 115.974 78.0649C116.079 77.6466 116.079 76.9146 116.079 76.4963C116.079 74.2479 116.131 72.0519 116.027 69.8035C116.131 67.8166 114.615 66.0388 112.576 66.1434ZM112.576 64.5747C115.347 64.5747 117.282 67.2414 116.811 69.8558C116.706 72.1042 116.759 74.3002 116.759 76.5486C117.02 79.163 115.452 81.5159 112.733 81.7251C111.582 81.7774 110.484 81.7774 109.386 81.8297C108.811 81.8297 107.399 81.9342 106.876 81.9342C106.615 81.9865 106.197 81.9342 105.935 81.9342C105.726 81.9342 105.517 81.7774 105.412 81.6205C103.791 79.2153 102.641 76.5486 101.961 73.7774C101.961 71.9996 101.804 70.2218 101.961 68.444C102.275 66.3525 104.157 64.5747 106.301 64.5225C107.765 64.4702 111.112 64.5747 112.576 64.5747Z" fill="#0F172A"/>
<path d="M97.2026 69.3858C98.6144 68.7584 100.183 68.4969 101.752 68.6015C102.275 68.6538 102.797 68.8107 103.268 69.229L103.948 69.8041C104.627 70.3793 103.791 71.3728 103.111 70.7976C102.275 70.0656 101.281 70.1701 100.288 70.2224C99.2941 70.327 98.353 70.5362 97.4118 70.9022C96.5229 71.2682 95.9477 69.961 96.7843 69.5427L97.2026 69.3858Z" fill="#0F172A"/>
<path d="M73.6741 71.2678C73.3081 72.1044 72.8898 72.209 72.21 72.1567L70.6937 72.209C67.661 72.209 64.5761 72.1567 61.5434 71.6861C60.4976 71.6339 60.4453 70.1698 61.4911 70.1175L73.6218 69.6992C73.9878 69.6992 74.2493 70.0652 74.0924 70.379L73.6741 71.2678Z" fill="#0F172A"/>
<path d="M150.693 44.079C182.432 105.203 126.641 174.171 60.1309 157.334C30.2747 149.909 6.27469 124.027 1.30737 93.6476C-4.33969 63.4254 9.30737 30.9548 34.8237 13.8568C69.8041 -10.1955 118.275 -2.19553 143.32 32.2097C143.477 32.3666 143.425 32.628 143.216 32.7849C143.059 32.9417 142.798 32.8894 142.641 32.6803C139.19 28.2358 135.268 24.2097 130.981 20.6019C123.922 14.5888 115.66 9.8829 106.928 6.69336C62.4839 -9.41122 13.6995 17.36 3.97403 63.8437C-7.00636 115.922 37.2812 163.87 90.0917 156.706C130.824 151.582 161.098 113.988 157.752 73.0986C157.02 63.2163 154.405 53.4385 150.066 44.445C149.961 44.2881 150.066 44.079 150.222 43.9744C150.379 43.8698 150.588 43.9221 150.693 44.079Z" fill="#0F172A"/>
</g>
</svg>
