<svg width="24" height="24" viewBox="0 0 24 24" fill="none" xmlns="http://www.w3.org/2000/svg">
<rect width="24" height="24" rx="8" fill="white"/>
<path d="M11.9998 17.8334C15.2215 17.8334 17.8332 15.2217 17.8332 12.0001C17.8332 8.77842 15.2215 6.16675 11.9998 6.16675C8.77818 6.16675 6.1665 8.77842 6.1665 12.0001C6.1665 15.2217 8.77818 17.8334 11.9998 17.8334Z" fill="#FEC942"/>
<path d="M12.0002 21.1333C11.5418 21.1333 11.1668 20.7916 11.1668 20.3333V20.2666C11.1668 19.8083 11.5418 19.4333 12.0002 19.4333C12.4585 19.4333 12.8335 19.8083 12.8335 20.2666C12.8335 20.7249 12.4585 21.1333 12.0002 21.1333ZM17.9502 18.7833C17.7335 18.7833 17.5252 18.6999 17.3585 18.5416L17.2502 18.4333C16.9252 18.1083 16.9252 17.5833 17.2502 17.2583C17.5752 16.9333 18.1002 16.9333 18.4252 17.2583L18.5335 17.3666C18.8585 17.6916 18.8585 18.2166 18.5335 18.5416C18.3752 18.6999 18.1668 18.7833 17.9502 18.7833ZM6.05016 18.7833C5.8335 18.7833 5.62516 18.6999 5.4585 18.5416C5.1335 18.2166 5.1335 17.6916 5.4585 17.3666L5.56683 17.2583C5.89183 16.9333 6.41683 16.9333 6.74183 17.2583C7.06683 17.5833 7.06683 18.1083 6.74183 18.4333L6.6335 18.5416C6.47516 18.6999 6.2585 18.7833 6.05016 18.7833ZM20.3335 12.8333H20.2668C19.8085 12.8333 19.4335 12.4583 19.4335 11.9999C19.4335 11.5416 19.8085 11.1666 20.2668 11.1666C20.7252 11.1666 21.1335 11.5416 21.1335 11.9999C21.1335 12.4583 20.7918 12.8333 20.3335 12.8333ZM3.7335 12.8333H3.66683C3.2085 12.8333 2.8335 12.4583 2.8335 11.9999C2.8335 11.5416 3.2085 11.1666 3.66683 11.1666C4.12516 11.1666 4.5335 11.5416 4.5335 11.9999C4.5335 12.4583 4.19183 12.8333 3.7335 12.8333ZM17.8418 6.99158C17.6252 6.99158 17.4168 6.90825 17.2502 6.74992C16.9252 6.42492 16.9252 5.89992 17.2502 5.57492L17.3585 5.46659C17.6835 5.14159 18.2085 5.14159 18.5335 5.46659C18.8585 5.79158 18.8585 6.31659 18.5335 6.64159L18.4252 6.74992C18.2668 6.90825 18.0585 6.99158 17.8418 6.99158ZM6.1585 6.99158C5.94183 6.99158 5.7335 6.90825 5.56683 6.74992L5.4585 6.63325C5.1335 6.30825 5.1335 5.78325 5.4585 5.45825C5.7835 5.13325 6.3085 5.13325 6.6335 5.45825L6.74183 5.56659C7.06683 5.89159 7.06683 6.41659 6.74183 6.74159C6.5835 6.90825 6.36683 6.99158 6.1585 6.99158ZM12.0002 4.53325C11.5418 4.53325 11.1668 4.19159 11.1668 3.73325V3.66659C11.1668 3.20825 11.5418 2.83325 12.0002 2.83325C12.4585 2.83325 12.8335 3.20825 12.8335 3.66659C12.8335 4.12492 12.4585 4.53325 12.0002 4.53325Z" fill="#FF9900"/>
</svg>
