<svg width="24" height="24" viewBox="0 0 24 24" fill="none" xmlns="http://www.w3.org/2000/svg">
<rect width="24" height="24" rx="8" fill="#111519"/>
<path d="M9.5 17.8334C9.5 18.5334 9.60833 19.2167 9.80833 19.8501C6.60833 18.7417 4.19167 15.8001 3.94167 12.3584C3.69167 8.70006 5.8 5.28339 9.20833 3.85006C10.0917 3.48339 10.5417 3.75006 10.7333 3.94172C10.9167 4.12506 11.175 4.56672 10.8083 5.40839C10.4333 6.27506 10.25 7.19172 10.25 8.14172C10.2583 9.84172 10.925 11.4167 12.0083 12.6251C10.4833 13.8417 9.5 15.7251 9.5 17.8334Z" fill="#0071FF"/>
<path d="M19.675 16.7667C18.025 19.0083 15.4083 20.325 12.6167 20.325C12.4833 20.325 12.35 20.3167 12.2167 20.3083C11.3833 20.275 10.575 20.1167 9.80833 19.85C9.60833 19.2167 9.5 18.5333 9.5 17.8333C9.5 15.725 10.4833 13.8417 12.0083 12.625C13.2333 14 14.9917 14.8917 16.9333 14.975C17.4583 15 17.9833 14.9583 18.5 14.8667C19.4333 14.7 19.8083 15.05 19.9417 15.275C20.0833 15.5 20.2333 15.9917 19.675 16.7667Z" fill="#AFD2FF"/>
</svg>
