<svg width="160" height="160" viewBox="0 0 160 160" fill="none" xmlns="http://www.w3.org/2000/svg">
<mask id="mask0_1725_1504" style="mask-type:alpha" maskUnits="userSpaceOnUse" x="0" y="0" width="160" height="160">
<ellipse cx="79.7378" cy="79.7377" rx="79.7378" ry="79.7377" fill="#D9D9D9"/>
</mask>
<g mask="url(#mask0_1725_1504)">
<path d="M123.451 145.569C123.085 145.83 122.667 146.092 122.301 146.353C121.883 146.614 121.517 146.876 121.099 147.085C120.733 147.294 120.419 147.503 120.053 147.713C120 147.765 119.948 147.765 119.896 147.817C118.693 148.549 117.438 149.229 116.183 149.856C115.817 150.065 115.399 150.275 115.033 150.431C115.033 150.431 114.981 150.484 114.929 150.484C114.51 150.693 114.092 150.902 113.674 151.111C112.837 151.53 111.948 151.896 111.112 152.262C110.693 152.471 110.223 152.628 109.804 152.784C109.386 152.941 108.916 153.15 108.497 153.307C108.079 153.464 107.608 153.673 107.19 153.83C107.19 153.83 107.19 153.83 107.138 153.83C106.719 153.987 106.249 154.144 105.831 154.301C104.889 154.614 103.896 154.928 102.955 155.242C102.641 155.347 102.275 155.451 101.961 155.556C100.968 155.869 99.9743 156.131 98.9809 156.34C98.6149 156.445 98.2489 156.497 97.8306 156.601C96.8894 156.811 95.8959 157.02 94.9547 157.229C94.7456 157.281 94.5887 157.281 94.3796 157.333C94.0658 157.386 93.6998 157.438 93.3861 157.49C92.9155 157.543 92.4972 157.647 92.0266 157.699C91.8175 157.752 91.6083 157.752 91.3992 157.804C91.1377 157.856 90.824 157.909 90.5103 157.909C89.6737 158.013 88.7848 158.118 87.9482 158.222C87.6868 158.275 87.373 158.275 87.1116 158.327H87.0593C86.6933 158.379 86.3273 158.379 85.9613 158.431C85.5953 158.484 85.2292 158.484 84.8632 158.484C84.6541 158.484 84.3926 158.536 84.1835 158.536C83.7652 158.536 83.3992 158.588 83.0332 158.588C82.5103 158.588 82.0397 158.641 81.5168 158.641C80.9939 158.641 80.5234 158.641 80.0005 158.641C79.6345 158.641 79.2685 158.641 78.9024 158.641C56.8371 158.327 37.0201 148.967 22.8501 134.118C22.8501 134.118 22.8501 134.065 22.7979 134.065C21.2292 132.654 22.5887 125.124 28.9155 120.366C36.8632 114.353 55.8959 110.588 55.8959 110.588C55.8959 110.588 63.2685 109.386 90.6149 115.085C106.615 118.431 118.798 123.294 125.595 136.471C127.007 139.19 128.419 143.373 123.451 145.569Z" fill="#F8F8F8"/>
<path d="M90.7715 114.51C100.811 116.549 111.53 118.745 119.791 125.385C122.562 127.634 124.392 130.928 125.909 134.117C126.641 135.686 127.373 137.307 127.948 139.032C128.262 140.183 128.732 141.49 128.471 142.849C128.419 143.215 128.105 143.686 127.843 143.947C126.641 145.15 125.334 145.882 124.026 146.823C116.34 152.157 107.504 155.921 98.3532 157.908C77.961 162.353 55.8956 158.902 37.961 148.183C32.0002 144.575 26.51 140.183 21.8041 135.006C21.2812 134.379 21.2812 133.333 21.2812 132.653C21.3335 131.085 21.7518 129.568 22.2747 128.157C23.5296 124.915 25.1505 121.673 27.9218 119.425C29.9087 118.065 32.0525 116.915 34.2486 115.974C41.1505 113.046 48.4185 111.006 55.8956 110.17C56.5231 110.117 56.6277 111.006 56.0002 111.111C48.8368 112.575 41.7257 114.771 35.0852 117.751C32.6799 118.954 30.1179 120 28.1832 121.882C26.3531 123.869 25.046 126.327 24.0002 128.836C23.3205 130.353 22.8499 132.758 23.059 133.961C26.3531 137.882 30.2224 141.333 34.4054 144.314C57.3074 160.314 92.0787 161.359 116.445 148.026C118.641 146.823 120.785 145.464 122.824 144.052C123.817 143.372 124.863 142.797 125.647 142.013C125.7 141.961 125.647 142.013 125.647 142.065C125.647 142.117 125.595 142.17 125.595 142.17C125.647 141.542 125.438 140.706 125.177 139.869C124.236 136.836 122.719 133.647 121.098 130.876C118.536 126.745 114.196 124.13 109.804 122.039C106.771 120.627 103.582 119.529 100.34 118.483C97.0983 117.438 93.8042 116.549 90.51 115.764C89.6734 115.555 89.9349 114.353 90.7715 114.51Z" fill="#AA55FF"/>
<path d="M130.613 152.993C129.62 145.254 125.228 132.234 122.561 128.731C119.633 124.914 118.43 123.712 108.652 120.417C108.13 117.803 106.195 111.215 103.894 108.444C100.391 103.162 90.8224 101.96 87.9466 102.587C87.9466 102.587 72.4694 97.1494 54.6394 97.1494C48.9923 98.4043 42.4563 100.966 38.9008 106.352C36.4956 109.908 39.2145 111.058 38.0119 114.3C37.6982 115.136 30.3779 119.319 27.3975 121.829C26.038 122.927 24.5217 125.698 23.4759 129.306C21.3844 136.679 23.6328 146.875 21.0184 155.764C15.9988 172.914 5.80273 178.038 5.80273 178.038H140.914C140.809 177.986 132.757 169.306 130.613 152.993Z" fill="#F8F8F8"/>
<path d="M129.829 153.097C128.783 146.247 126.691 139.45 124.025 133.071C122.717 129.986 120.731 127.005 117.959 125.175C116.548 124.286 114.979 123.606 113.358 122.927C111.737 122.299 110.064 121.724 108.443 121.149C108.182 121.044 107.972 120.835 107.92 120.574C107.711 119.528 107.45 118.535 107.136 117.489C105.776 113.254 104.312 108.548 100.338 106.09C97.3057 104.26 93.6979 103.371 90.1946 103.214C89.5149 103.214 88.7828 103.214 88.1554 103.319H87.9462C87.8939 103.319 87.7894 103.319 87.7371 103.267C85.2273 102.064 82.456 101.332 79.7371 100.6C71.5802 98.7176 63.0573 97.9332 54.6913 97.881C49.5671 99.0836 42.4037 101.907 39.2665 107.136C38.7436 107.972 38.4822 108.809 38.5867 109.75C38.6913 110.796 39.0573 111.946 38.7959 113.044C38.6913 113.515 38.5867 114.038 38.3776 114.456C37.9593 115.031 37.2796 115.397 36.7567 115.763C34.0377 117.541 31.2665 119.11 28.6521 120.94C27.7632 121.567 26.9266 122.142 26.2992 123.031C24.4691 125.646 23.3711 128.783 22.9005 131.92C22.0639 138.299 22.9005 144.783 22.0639 151.162C21.1227 157.541 18.6652 163.711 15.2142 169.149C12.809 172.809 9.88085 176.208 6.16844 178.561L5.80242 177.097H140.914L140.338 178.404C138.77 176.626 137.515 174.691 136.365 172.652C132.809 166.691 130.717 159.946 129.829 153.097ZM131.397 152.888C131.972 157.332 133.07 161.724 134.744 165.907C136.417 170.038 138.508 174.064 141.436 177.463C141.855 177.933 141.489 178.822 140.861 178.77H5.75013C5.33183 178.77 4.96582 178.404 4.96582 177.986C4.96582 177.672 5.12268 177.41 5.38412 177.306C6.22072 176.835 7.05732 176.155 7.84164 175.476C14.6913 169.306 18.9789 160.155 20.3907 151.057C21.5933 142.535 19.3449 133.332 23.1619 125.227C24.0508 123.345 25.1488 121.358 26.9266 120.155C30.1684 117.75 33.724 115.972 36.9135 113.62C36.9658 113.62 36.9658 113.567 36.9658 113.567C36.9135 113.62 36.8613 113.724 36.8613 113.776C37.175 113.044 37.2796 112.417 37.175 111.58C37.0181 110.535 36.7567 109.123 37.1227 108.025C37.2796 107.397 37.5933 106.822 37.907 106.352C41.6717 100.704 48.3122 98.1947 54.639 96.7829C56.4168 96.8352 58.2469 96.5215 60.0247 96.5215C62.4822 96.5215 64.992 96.8875 67.4495 97.2012C74.5083 98.2993 81.3057 100.182 88.26 101.698L87.7894 101.646C89.4103 101.332 90.9266 101.489 92.4953 101.698C102.534 103.214 105.933 107.606 108.652 116.966C108.966 118.012 109.227 119.057 109.489 120.155L108.966 119.528C113.985 121.306 119.633 122.927 122.822 127.58C123.972 128.992 124.809 130.665 125.541 132.338C128.208 139.031 130.299 145.776 131.397 152.888Z" fill="#AA55FF"/>
<path d="M48.2093 118.587C52.0786 126.849 58.0917 133.855 65.2551 139.398C65.5165 139.607 65.2551 140.025 64.9414 139.869C58.5623 136.836 53.1767 131.659 49.9871 125.385C48.9414 123.293 48.0525 121.045 47.7387 118.692C47.6342 118.431 48.0525 118.326 48.2093 118.587Z" fill="#AA55FF"/>
<path d="M109.438 120.313C109.595 129.045 106.039 137.987 99.2421 143.634C99.0852 143.791 98.8761 143.738 98.7192 143.581C98.5624 143.425 98.6146 143.215 98.7715 143.059C100.288 141.594 101.804 140.078 102.955 138.3C105.36 134.849 106.824 130.771 107.504 126.64C107.817 124.601 108.026 122.405 107.87 120.366C107.817 119.372 109.386 119.268 109.438 120.313Z" fill="#AA55FF"/>
<path d="M78.6396 141.071C77.437 145.306 76.4436 149.908 77.0187 154.3C77.1756 155.293 75.6592 155.555 75.4501 154.509C75.1887 152.104 75.5024 149.751 75.9207 147.45C76.3913 145.149 76.9664 142.953 77.7507 140.757C77.9599 140.234 78.8488 140.496 78.6396 141.071Z" fill="#AA55FF"/>
<path d="M95.2677 140.287C96.9932 144 98.1958 147.869 99.137 151.791C99.2416 152.209 98.9801 152.627 98.5618 152.732C98.1435 152.836 97.7252 152.575 97.6206 152.157C97.0978 149.228 96.418 146.3 95.4768 143.425C95.1631 142.483 94.8494 141.542 94.4834 140.601C94.2742 140.13 95.0063 139.764 95.2677 140.287Z" fill="#AA55FF"/>
<path d="M39.11 114.092C41.0447 124.654 48.4695 133.595 57.4107 139.294C60.4434 141.229 63.6852 142.902 67.0316 144.262C67.2408 144.366 67.3453 144.575 67.2408 144.784C67.1885 144.994 66.927 145.098 66.7702 144.994C63.3192 143.739 59.9728 142.17 56.8355 140.288C50.4565 136.523 44.8617 131.294 41.097 124.915C39.1623 121.621 37.646 118.17 36.914 114.405C36.8094 113.778 37.2277 113.203 37.8551 113.098C38.4303 112.941 39.0578 113.412 39.11 114.092Z" fill="#AA55FF"/>
<path d="M75.5024 155.451C74.0384 155.294 72.9926 153.934 73.3063 152.47L73.8815 149.699C74.0906 148.601 75.1364 147.817 76.2344 147.974C77.3325 148.078 78.2214 149.019 78.2214 150.17V152.993C78.2737 154.457 77.0187 155.608 75.5024 155.451Z" fill="#AA55FF"/>
<path d="M99.6072 153.516C98.1954 154.039 96.6791 153.202 96.3131 151.738L95.6333 148.967C95.3719 147.869 95.9471 146.771 97.0451 146.353C98.0909 145.987 99.2935 146.457 99.7641 147.451L101.019 150.013C101.646 151.425 101.019 153.045 99.6072 153.516Z" fill="#AA55FF"/>
<path d="M123.764 151.947C123.764 151.947 126.692 168.366 125.542 177.986" stroke="#AA55FF" stroke-width="0.630856" stroke-miterlimit="10" stroke-linecap="round" stroke-linejoin="round"/>
<path d="M55.4762 112.209C54.7442 110.117 54.4305 107.974 54.5873 105.778C54.5873 105.568 54.7442 105.464 54.9533 105.464C55.1102 105.464 55.267 105.621 55.267 105.778C55.4239 107.765 55.9991 109.804 56.9403 111.529C57.4108 112.575 55.8422 113.255 55.4762 112.209Z" fill="#AA55FF"/>
<path d="M90.8223 114.98C89.3583 111.686 85.7504 110.013 82.5609 108.862C80.5739 108.235 78.3779 107.764 76.2863 107.45C71.2145 106.666 64.0511 105.464 58.9792 104.941C58.9269 104.941 58.9269 104.836 58.9792 104.836C60.4432 104.679 61.9073 104.679 63.3713 104.679C67.7635 104.784 72.1556 105.254 76.4955 105.934C80.8354 106.614 85.489 107.921 88.7831 111.058C89.8288 112.156 90.77 113.411 91.0315 114.928C91.0837 115.084 90.8746 115.137 90.8223 114.98Z" fill="#AA55FF"/>
<path d="M95.6851 128.418C94.587 133.804 87.4759 137.046 75.502 132.183C63.0576 127.163 57.672 115.189 56.3125 111.634C63.6851 97.8298 58.5609 88.2612 58.5609 88.2612C75.5543 86.7971 90.404 106.666 90.404 106.666L92.7047 116.496C92.9138 117.333 93.3321 118.065 93.9596 118.588C95.0576 120.523 96.3648 124.967 95.6851 128.418Z" fill="#F8F8F8"/>
<path d="M56.0513 111.791C57.0448 110.274 57.6722 108.497 58.0905 106.771C58.8749 103.163 59.1363 99.5031 59.1886 95.8429V94.4834C59.0317 93.124 58.5611 91.7122 58.0383 90.4573C57.3585 88.7841 59.816 87.7383 60.6003 89.4115C60.7049 89.6207 60.7049 89.9867 60.7049 90.1959C60.8618 97.307 61.1755 106.457 56.6788 112.366C56.3651 112.68 55.7376 112.209 56.0513 111.791Z" fill="#AA55FF"/>
<path d="M90.9797 106.562C91.764 107.033 92.0255 107.66 92.1301 108.287C92.4438 109.542 92.3392 110.902 92.6529 112.209C92.9144 113.464 93.6987 114.667 93.9078 115.974C94.1693 117.333 94.9536 120.209 95.2673 121.621C95.3719 121.934 95.1627 122.3 94.7967 122.353C94.5876 122.405 94.4307 122.353 94.2739 122.248C93.5941 121.673 93.2804 121.098 92.8621 120.366C92.1823 119.111 91.7118 117.961 91.2935 116.549C90.9274 115.294 91.0843 113.934 90.7706 112.627C90.5091 111.372 89.7771 110.17 89.5157 108.863C89.3588 108.235 89.3065 107.555 89.7771 106.771C90.0908 106.457 90.6137 106.353 90.9797 106.562Z" fill="#AA55FF"/>
<path d="M94.7443 120.366C84.7574 119.843 76.6005 116.706 68.6528 102.536C75.3456 108.444 83.2411 110.693 91.5548 111.738L92.6528 116.549C92.862 117.385 94.1169 119.843 94.7443 120.366Z" fill="#AA55FF"/>
<path d="M94.3264 118.43C96.1041 121.777 97.1499 125.96 96.0518 129.672C95.2152 132.287 92.81 134.221 90.1956 134.953C84.1303 136.574 77.1237 134.012 71.7381 131.136C65.0976 127.424 60.1825 121.202 57.0453 114.404C56.8361 113.881 57.5682 113.463 57.8819 113.986C58.9799 116.182 60.2348 118.326 61.6466 120.26C63.0584 122.247 64.6793 124.077 66.5093 125.698C71.8427 130.509 79.0584 133.489 86.2741 133.489C93.6989 133.28 96.5224 129.358 94.7969 122.143C94.5355 120.992 94.1172 119.79 93.542 118.796C93.2283 118.378 94.0126 117.907 94.3264 118.43Z" fill="#AA55FF"/>
<path d="M114.561 55.6336C115.502 60.0258 115.973 63.5813 113.41 75.2937C110.901 86.9539 117.018 89.3591 102.535 108.026C96.6262 115.66 82.2993 113.516 70.6915 105.621C66.7699 102.954 65.0967 96.1042 62.1686 91.2414C59.868 87.4245 58.8222 91.3983 55.7895 88.1042C51.6588 83.6075 46.6915 74.5617 49.149 58.5617C53.1229 32.6271 73.6719 29.5944 88.8876 32.4702C104.208 35.3983 112.051 44.078 114.561 55.6336Z" fill="#F8F8F8"/>
<path d="M58.4037 92.7575C57.2011 90.7183 55.6324 88.9405 54.1684 87.0582C52.7566 85.1235 51.6063 82.9797 50.6651 80.7836C44.4429 65.5157 46.8481 44.0255 62.1161 35.032C68.4429 31.3719 76.0769 30.483 83.188 31.0581C98.4037 32.1562 112.364 39.1627 115.659 55.2673C117.436 62.3784 115.031 69.6987 113.672 76.6529C113.044 80.1039 113.567 83.6595 113.515 87.215C113.463 90.8229 112.469 94.4307 111.11 97.7771C110.273 100.078 108.809 102.117 107.293 103.999C104.783 107.032 102.273 110.117 99.0834 112.47C98.3514 112.993 97.0442 113.254 96.1553 113.359C93.6978 113.725 91.2926 113.829 88.8351 113.673C79.2142 113.254 68.9135 108.601 65.0442 99.2934C64.8874 98.9274 65.4102 98.666 65.6194 98.9797C70.639 106.927 79.8416 110.849 88.9919 111.372C91.8155 111.529 94.6913 111.476 97.4625 110.901C98.822 110.222 100.025 109.019 101.175 107.921C103.998 105.097 106.874 102.065 108.914 98.6137C111.371 93.9601 112.731 88.8882 112.312 83.6072C112.208 81.2542 112.155 78.7967 112.626 76.4438C113.044 74.0908 113.567 71.8425 113.881 69.4372C114.195 67.1366 114.351 64.7836 114.351 62.483C114.09 55.7379 111.894 48.7836 107.606 43.5549C98.1423 31.7902 75.7632 28.7052 63.1619 36.7575C55.2142 41.6725 51.5017 50.8751 50.2991 59.8163C48.469 70.5353 48.9919 81.0974 57.5148 88.8882L60.0246 91.5026C61.0181 92.6529 59.2403 94.0124 58.4037 92.7575Z" fill="#AA55FF"/>
<path d="M64.5739 76.1303C64.5739 76.1303 62.953 68.2871 55.319 69.2283C48.7308 70.0649 46.4301 85.8558 61.3844 90.2479" fill="#F8F8F8"/>
<path d="M60.705 83.398C59.5024 82.7182 58.6658 81.5679 58.6135 80.1561C58.6658 79.1104 58.8227 77.9078 58.5612 76.862C58.4044 75.8686 57.3586 75.6071 56.5743 75.6594C55.7377 75.8163 55.2148 76.862 55.058 77.6986C55.058 77.7509 55.0057 77.9078 55.0057 77.9601C54.9534 78.2215 54.5351 78.2215 54.4305 77.9601C53.7508 75.9208 55.2671 73.6725 57.4632 73.9339C60.5482 74.1431 60.9665 77.3849 60.3913 79.8424C60.0776 80.8882 60.4959 81.8293 61.0711 82.7182L61.1756 82.8751C61.4371 83.1888 61.0188 83.6071 60.705 83.398Z" fill="#AA55FF"/>
<path d="M102.535 70.5872C103.319 74.2996 104.783 77.7506 106.613 80.9924C108.234 84.9663 104.051 88.731 100.339 88.5741C99.9203 88.5741 99.868 87.999 100.234 87.8944C102.587 87.1624 104.731 85.5937 105.097 83.1885C105.254 82.4565 105.044 81.829 104.678 81.2016C102.953 77.9597 101.907 74.2473 102.169 70.5872C102.169 70.3258 102.535 70.3258 102.535 70.5872Z" fill="#AA55FF"/>
<path d="M64.3129 76.1827C63.1102 73.0978 60.4959 70.1697 56.9926 70.222C56.6789 70.1697 56.156 70.2742 55.8423 70.2742C54.9534 70.3265 54.2214 70.6403 53.5416 71.2677C50.1952 74.6141 50.7704 80.5226 53.4893 84.235C54.4305 85.5422 55.6331 86.6926 56.9926 87.6337C58.3521 88.5749 59.8684 89.3069 61.4893 89.9344C61.8553 90.039 61.6985 90.6141 61.3325 90.5618C57.8292 89.8298 54.4828 88.1043 52.1821 85.2285C48.6266 80.9409 47.8945 73.7775 52.1298 69.5945C53.071 68.7579 54.3782 68.1305 55.6854 68.1305C56.1037 68.1305 56.7312 68.0259 57.1495 68.1305C59.3455 68.235 61.437 69.3331 62.7965 71.0586C63.9991 72.5226 64.6789 74.3004 64.888 76.0782C64.888 76.3919 64.4174 76.4965 64.3129 76.1827Z" fill="#AA55FF"/>
<path d="M97.3594 93.5947C97.4117 94.4313 96.7842 95.8953 95.6339 96.9411C89.7254 93.3332 87.0587 95.2156 87.0587 95.2156C84.9672 92.026 85.4378 87.6862 90.5097 90.9803C94.013 93.2809 96.2091 93.6469 97.3594 93.5947Z" fill="#AA55FF"/>
<path d="M95.5815 96.9937C94.3266 98.0917 92.4443 98.7714 89.8822 97.7257C88.6796 97.2551 87.7384 96.3139 87.0063 95.2682C87.0586 95.2682 89.673 93.3858 95.5815 96.9937Z" fill="#F8F8F8"/>
<path d="M98.3529 93.438C98.3529 93.438 96.1568 94.6406 90.5097 91.0328C83.7646 86.6929 85.1241 95.791 89.8823 97.7256C94.8496 99.7648 97.4117 95.3204 97.3594 93.6472" stroke="#AA55FF" stroke-width="0.369231" stroke-miterlimit="10" stroke-linecap="round" stroke-linejoin="round"/>
<path d="M87.0591 95.2682C87.0591 95.2682 89.7257 93.3858 95.6342 96.9937" stroke="#AA55FF" stroke-width="0.369231" stroke-miterlimit="10" stroke-linecap="round" stroke-linejoin="round"/>
<path d="M90.7182 65.0461C91.8685 65.203 92.7574 64.0003 92.3391 62.85C92.13 62.2226 91.764 61.6474 91.1888 61.2814C89.411 60.1833 82.7705 60.0788 79.2672 62.5886C76.13 64.8892 85.4895 64.3141 90.7182 65.0461Z" fill="#AA55FF"/>
<path d="M105.202 65.6212C104.261 65.6212 103.686 64.4186 104.156 63.4251C104.418 62.9022 104.784 62.4316 105.307 62.1702C106.928 61.3859 111.267 61.8565 113.202 64.5231C114.928 66.8761 109.542 65.5689 105.202 65.6212Z" fill="#AA55FF"/>
<path d="M88.7836 71.7916C86.1169 70.6413 83.0842 70.955 80.313 71.5825C79.9992 71.687 79.7901 71.2687 80.0515 71.0596C82.4568 69.0727 87.0058 68.8112 88.9404 71.5302C89.0973 71.6347 88.9927 71.8439 88.7836 71.7916Z" fill="#AA55FF"/>
<path d="M109.332 72.8891C108.077 72.0002 106.247 72.1571 104.783 72.3139C104.26 72.3662 103.738 72.4708 103.162 72.6277C103.006 72.6799 102.849 72.4185 102.953 72.3139L103.058 72.2094C104.365 70.8499 106.404 70.5361 108.182 71.2159C108.81 71.4773 109.437 71.8433 109.751 72.5754C109.908 72.8368 109.542 73.0982 109.332 72.8891Z" fill="#AA55FF"/>
<path d="M113.205 85.0719C113.31 88.1569 113.467 90.1438 113.467 90.1438L119.375 88.5229C119.375 88.5229 117.597 78.2746 118.486 69.4379C120.212 52.7059 118.486 48 118.486 48C117.597 43.6602 114.721 39.7909 108.342 38.6405C106.408 37.4379 104.264 36.4968 101.911 35.7124C93.4927 32.7321 74.9829 26.5098 60.7607 35.8693C46.5384 45.2288 46.0156 62.6406 44.0809 74.2484C42.1463 85.8563 29.4927 94.3268 29.4927 94.3268L32.4208 98.5099C33.9894 99.6602 38.2247 94.4837 38.9044 94.3268C39.5842 94.17 35.0874 99.6079 35.0874 99.6079C36.2378 104.261 41.1528 106.98 41.1528 106.98C41.1528 106.98 48.7868 102.065 47.2182 104.314C45.6495 106.562 42.7214 108.34 42.7214 108.34C42.7214 108.34 50.3554 115.085 53.4927 114.51C56.6299 113.935 61.1267 106.771 60.7607 108.34C60.4469 109.909 57.8848 115.66 57.8848 115.66L62.0156 118.013C75.0352 113.83 64.6822 97.4118 72.1071 87.3203C79.4796 77.2288 70.0678 71.8432 75.9763 68.4968C77.4927 67.6079 78.9567 66.6667 80.2639 65.621L88.7345 67.085C88.7345 67.085 94.2247 66.9804 92.6561 56C92.0809 51.9739 93.4404 47.6863 93.9633 46.2745C94.0156 46.2745 94.0156 46.2745 94.0679 46.2745C93.8587 47.6863 93.4927 51.8693 94.6953 57.2549C96.3685 64.8366 91.1397 67.7647 91.1397 67.7647L96.4208 69.4379C101.806 66.7713 97.4666 58.2484 96.4208 51.451C96.1071 49.2549 96.5254 47.8955 97.2574 47.1111C100.918 48.2092 103.27 49.4641 103.48 48.366C112.107 50.5098 112.212 61.8562 112.473 62.17C112.369 64.2615 112.107 67.817 112.055 72.4183C112.055 74.5621 112.264 78.6929 112.107 81.0981C111.95 84.0262 111.689 86.7451 111.27 89.4641C110.486 93.6471 109.284 98.0393 107.558 100.758C104.107 106.144 101.388 110.693 96.4208 112.994C91.5058 115.242 85.911 115.712 85.911 115.712C85.911 115.712 87.4796 116.706 91.192 116.915C94.9045 117.124 97.5711 115.66 100.29 115.242C103.009 114.771 109.231 116.497 109.231 116.497C109.911 115.294 109.44 110.85 110.12 111.739C110.8 112.628 110.695 116.497 110.695 116.497L116.29 117.49C117.493 114.667 117.65 109.647 117.65 109.647C117.65 108.811 117.597 107.974 117.545 107.033C116.656 98.1438 113.153 96.6275 113.205 85.0719Z" fill="#AA55FF"/>
<path d="M150.693 44.079C182.432 105.203 126.641 174.171 60.1309 157.334C30.2747 149.909 6.27469 124.027 1.30737 93.6476C-4.33969 63.4254 9.30737 30.9548 34.8237 13.8568C69.8041 -10.1955 118.275 -2.19553 143.32 32.2097C143.477 32.3666 143.425 32.628 143.216 32.7849C143.059 32.9417 142.798 32.8894 142.641 32.6803C139.19 28.2358 135.268 24.2097 130.981 20.6019C123.922 14.5888 115.66 9.8829 106.928 6.69336C62.4839 -9.41122 13.6995 17.36 3.97403 63.8437C-7.00636 115.922 37.2812 163.87 90.0917 156.706C130.824 151.582 161.098 113.988 157.752 73.0986C157.02 63.2163 154.405 53.4385 150.066 44.445C149.961 44.2881 150.066 44.079 150.222 43.9744C150.379 43.8698 150.588 43.9221 150.693 44.079Z" fill="#AA55FF"/>
</g>
</svg>
