<svg width="160" height="160" viewBox="0 0 160 160" fill="none" xmlns="http://www.w3.org/2000/svg">
<mask id="mask0_1725_1130" style="mask-type:alpha" maskUnits="userSpaceOnUse" x="0" y="0" width="160" height="160">
<ellipse cx="79.7378" cy="79.7377" rx="79.7378" ry="79.7377" fill="#D9D9D9"/>
</mask>
<g mask="url(#mask0_1725_1130)">
<path d="M123.451 145.568C123.085 145.829 122.667 146.091 122.301 146.352C121.883 146.614 121.517 146.875 121.099 147.084C120.733 147.293 120.419 147.502 120.053 147.712C120 147.764 119.948 147.764 119.896 147.816C118.693 148.548 117.438 149.228 116.183 149.855C115.817 150.064 115.399 150.274 115.033 150.431C115.033 150.431 114.981 150.483 114.929 150.483C114.51 150.692 114.092 150.901 113.674 151.11C112.837 151.529 111.948 151.895 111.112 152.261C110.693 152.47 110.223 152.627 109.804 152.783C109.386 152.94 108.916 153.149 108.497 153.306C108.079 153.463 107.608 153.672 107.19 153.829C107.19 153.829 107.19 153.829 107.138 153.829C106.719 153.986 106.249 154.143 105.831 154.3C104.889 154.614 103.896 154.927 102.955 155.241C102.641 155.346 102.275 155.45 101.961 155.555C100.968 155.868 99.9743 156.13 98.9809 156.339C98.6149 156.444 98.2489 156.496 97.8306 156.6C96.8894 156.81 95.8959 157.019 94.9547 157.228C94.7456 157.28 94.5887 157.28 94.3796 157.332C94.0658 157.385 93.6998 157.437 93.3861 157.489C92.9155 157.542 92.4972 157.646 92.0266 157.698C91.8175 157.751 91.6083 157.751 91.3992 157.803C91.1377 157.855 90.824 157.908 90.5103 157.908C89.6737 158.012 88.7848 158.117 87.9482 158.221C87.6868 158.274 87.373 158.274 87.1116 158.326H87.0593C86.6933 158.378 86.3273 158.378 85.9613 158.431C85.5953 158.483 85.2292 158.483 84.8632 158.483C84.6541 158.483 84.3926 158.535 84.1835 158.535C83.7652 158.535 83.3992 158.587 83.0332 158.587C82.5103 158.587 82.0397 158.64 81.5168 158.64C80.9939 158.64 80.5234 158.64 80.0005 158.64C79.6345 158.64 79.2685 158.64 78.9024 158.64C56.8371 158.326 37.0201 148.966 22.8501 134.117C22.8501 134.117 22.8501 134.064 22.7979 134.064C21.2292 132.653 22.5887 125.123 28.9155 120.365C36.8632 114.352 55.8959 110.587 55.8959 110.587C55.8959 110.587 63.2685 109.385 90.6149 115.084C106.615 118.431 118.798 123.293 125.595 136.47C127.007 139.189 128.419 143.372 123.451 145.568Z" fill="#FFF8F8"/>
<path d="M90.7715 114.509C100.811 116.548 111.53 118.744 119.791 125.385C122.562 127.633 124.392 130.927 125.909 134.117C126.641 135.686 127.373 137.306 127.948 139.032C128.262 140.182 128.732 141.489 128.471 142.849C128.419 143.215 128.105 143.686 127.843 143.947C126.641 145.15 125.334 145.882 124.026 146.823C116.34 152.156 107.504 155.921 98.3532 157.908C77.961 162.352 55.8956 158.901 37.961 148.182C32.0002 144.574 26.51 140.182 21.8041 135.006C21.2812 134.378 21.2812 133.333 21.2812 132.653C21.3335 131.084 21.7518 129.568 22.2747 128.156C23.5296 124.914 25.1505 121.672 27.9218 119.424C29.9087 118.065 32.0525 116.914 34.2486 115.973C41.1505 113.045 48.4185 111.006 55.8956 110.169C56.5231 110.117 56.6277 111.006 56.0002 111.11C48.8368 112.574 41.7257 114.771 35.0852 117.751C32.6799 118.954 30.1179 119.999 28.1832 121.882C26.3531 123.869 25.046 126.326 24.0002 128.836C23.3205 130.352 22.8499 132.757 23.059 133.96C26.3531 137.882 30.2224 141.333 34.4054 144.313C57.3074 160.313 92.0787 161.359 116.445 148.025C118.641 146.823 120.785 145.463 122.824 144.052C123.817 143.372 124.863 142.797 125.647 142.012C125.7 141.96 125.647 142.012 125.647 142.065C125.647 142.117 125.595 142.169 125.595 142.169C125.647 141.542 125.438 140.705 125.177 139.869C124.236 136.836 122.719 133.646 121.098 130.875C118.536 126.744 114.196 124.13 109.804 122.038C106.771 120.627 103.582 119.529 100.34 118.483C97.0983 117.437 93.8042 116.548 90.51 115.764C89.6734 115.555 89.9349 114.352 90.7715 114.509Z" fill="#0F172A"/>
<path d="M130.613 152.993C129.62 145.254 125.228 132.234 122.561 128.731C119.633 124.914 118.43 123.712 108.652 120.417C108.13 117.803 106.195 111.215 103.894 108.444C100.391 103.162 90.8224 101.96 87.9466 102.587C87.9466 102.587 72.4694 97.1494 54.6394 97.1494C48.9923 98.4043 42.4563 100.966 38.9008 106.352C36.4956 109.908 39.2145 111.058 38.0119 114.3C37.6982 115.136 30.3779 119.319 27.3975 121.829C26.038 122.927 24.5217 125.698 23.4759 129.306C21.3844 136.679 23.6328 146.875 21.0184 155.764C15.9988 172.914 5.80273 178.038 5.80273 178.038H140.914C140.809 177.986 132.757 169.306 130.613 152.993Z" fill="#FFF8F8"/>
<path d="M129.829 153.097C128.783 146.247 126.691 139.45 124.025 133.071C122.717 129.986 120.731 127.005 117.959 125.175C116.548 124.286 114.979 123.606 113.358 122.927C111.737 122.299 110.064 121.724 108.443 121.149C108.182 121.044 107.972 120.835 107.92 120.574C107.711 119.528 107.45 118.535 107.136 117.489C105.776 113.254 104.312 108.548 100.338 106.09C97.3057 104.26 93.6979 103.371 90.1946 103.214C89.5149 103.214 88.7828 103.214 88.1554 103.319H87.9462C87.8939 103.319 87.7894 103.319 87.7371 103.267C85.2273 102.064 82.456 101.332 79.7371 100.6C71.5802 98.7176 63.0573 97.9332 54.6913 97.881C49.5671 99.0836 42.4037 101.907 39.2665 107.136C38.7436 107.972 38.4822 108.809 38.5867 109.75C38.6913 110.796 39.0573 111.946 38.7959 113.044C38.6913 113.515 38.5867 114.038 38.3776 114.456C37.9593 115.031 37.2796 115.397 36.7567 115.763C34.0377 117.541 31.2665 119.11 28.6521 120.94C27.7632 121.567 26.9266 122.142 26.2992 123.031C24.4691 125.646 23.3711 128.783 22.9005 131.92C22.0639 138.299 22.9005 144.783 22.0639 151.162C21.1227 157.541 18.6652 163.711 15.2142 169.149C12.809 172.809 9.88085 176.208 6.16844 178.561L5.80242 177.097H140.914L140.338 178.404C138.77 176.626 137.515 174.691 136.365 172.652C132.809 166.691 130.717 159.946 129.829 153.097ZM131.397 152.888C131.972 157.332 133.07 161.724 134.744 165.907C136.417 170.038 138.508 174.064 141.436 177.463C141.855 177.933 141.489 178.822 140.861 178.77H5.75013C5.33183 178.77 4.96582 178.404 4.96582 177.986C4.96582 177.672 5.12268 177.41 5.38412 177.306C6.22072 176.835 7.05732 176.155 7.84164 175.476C14.6913 169.306 18.9789 160.155 20.3907 151.057C21.5933 142.535 19.3449 133.332 23.1619 125.227C24.0508 123.345 25.1488 121.358 26.9266 120.155C30.1684 117.75 33.724 115.972 36.9135 113.62C36.9658 113.62 36.9658 113.567 36.9658 113.567C36.9135 113.62 36.8613 113.724 36.8613 113.776C37.175 113.044 37.2796 112.417 37.175 111.58C37.0181 110.535 36.7567 109.123 37.1227 108.025C37.2796 107.397 37.5933 106.822 37.907 106.352C41.6717 100.704 48.3122 98.1947 54.639 96.7829C56.4168 96.8352 58.2469 96.5215 60.0247 96.5215C62.4822 96.5215 64.992 96.8875 67.4495 97.2012C74.5083 98.2993 81.3057 100.182 88.26 101.698L87.7894 101.646C89.4103 101.332 90.9266 101.489 92.4953 101.698C102.534 103.214 105.933 107.606 108.652 116.966C108.966 118.012 109.227 119.057 109.489 120.155L108.966 119.528C113.985 121.306 119.633 122.927 122.822 127.58C123.972 128.992 124.809 130.665 125.541 132.338C128.208 139.031 130.299 145.776 131.397 152.888Z" fill="#0F172A"/>
<path d="M48.2088 118.587C52.0781 126.848 58.0912 133.855 65.2546 139.397C65.516 139.607 65.2546 140.025 64.9409 139.868C58.5618 136.835 53.1762 131.659 49.9866 125.384C48.9409 123.293 48.052 121.044 47.7383 118.692C47.6337 118.43 48.052 118.326 48.2088 118.587Z" fill="#0F172A"/>
<path d="M109.438 120.313C109.595 129.045 106.039 137.986 99.2416 143.633C99.0848 143.79 98.8756 143.738 98.7187 143.581C98.5619 143.424 98.6142 143.215 98.771 143.058C100.287 141.594 101.804 140.078 102.954 138.3C105.359 134.849 106.823 130.77 107.503 126.64C107.817 124.601 108.026 122.404 107.869 120.365C107.817 119.372 109.385 119.267 109.438 120.313Z" fill="#0F172A"/>
<path d="M78.6396 141.07C77.437 145.306 76.4436 149.907 77.0187 154.299C77.1756 155.293 75.6592 155.554 75.4501 154.508C75.1887 152.103 75.5024 149.75 75.9207 147.45C76.3913 145.149 76.9664 142.953 77.7507 140.757C77.9599 140.234 78.8488 140.495 78.6396 141.07Z" fill="#0F172A"/>
<path d="M95.2677 140.287C96.9932 144 98.1958 147.869 99.137 151.791C99.2416 152.209 98.9801 152.627 98.5618 152.732C98.1435 152.836 97.7252 152.575 97.6206 152.157C97.0978 149.228 96.418 146.3 95.4768 143.425C95.1631 142.483 94.8494 141.542 94.4834 140.601C94.2742 140.13 95.0063 139.764 95.2677 140.287Z" fill="#0F172A"/>
<path d="M39.1105 114.091C41.0452 124.653 48.47 133.594 57.4112 139.294C60.4439 141.228 63.6857 142.902 67.0321 144.261C67.2413 144.366 67.3458 144.575 67.2413 144.784C67.189 144.993 66.9275 145.098 66.7707 144.993C63.3197 143.738 59.9733 142.17 56.836 140.287C50.4569 136.522 44.8622 131.294 41.0975 124.915C39.1628 121.621 37.6465 118.17 36.9145 114.405C36.8099 113.777 37.2282 113.202 37.8556 113.098C38.4308 112.941 39.0582 113.411 39.1105 114.091Z" fill="#0F172A"/>
<path d="M75.5029 155.45C74.0388 155.293 72.9931 153.934 73.3068 152.47L73.882 149.699C74.0911 148.601 75.1369 147.816 76.2349 147.973C77.333 148.078 78.2219 149.019 78.2219 150.169V152.993C78.2741 154.457 77.0192 155.607 75.5029 155.45Z" fill="#0F172A"/>
<path d="M99.6077 153.516C98.1959 154.038 96.6796 153.202 96.3136 151.738L95.6338 148.966C95.3724 147.868 95.9475 146.77 97.0456 146.352C98.0913 145.986 99.294 146.457 99.7645 147.45L101.019 150.012C101.647 151.424 101.019 153.045 99.6077 153.516Z" fill="#0F172A"/>
<path d="M123.764 151.947C123.764 151.947 126.692 168.366 125.541 177.986" stroke="#0F172A" stroke-width="0.630856" stroke-miterlimit="10" stroke-linecap="round" stroke-linejoin="round"/>
<path d="M55.4762 112.209C54.7442 110.117 54.4305 107.974 54.5873 105.778C54.5873 105.568 54.7442 105.464 54.9533 105.464C55.1102 105.464 55.267 105.621 55.267 105.778C55.4239 107.765 55.9991 109.804 56.9403 111.529C57.4108 112.575 55.8422 113.255 55.4762 112.209Z" fill="#0F172A"/>
<path d="M90.8228 114.98C89.3587 111.686 85.7509 110.013 82.5613 108.863C80.5744 108.235 78.3783 107.765 76.2868 107.451C71.2149 106.667 64.0515 105.464 58.9796 104.941C58.9274 104.941 58.9274 104.837 58.9796 104.837C60.4437 104.68 61.9077 104.68 63.3718 104.68C67.764 104.784 72.1561 105.255 76.496 105.935C80.8359 106.614 85.4895 107.922 88.7836 111.059C89.8293 112.157 90.7705 113.412 91.0319 114.928C91.0842 115.085 90.8751 115.137 90.8228 114.98Z" fill="#0F172A"/>
<path d="M95.6851 128.418C94.587 133.803 87.4759 137.045 75.502 132.182C63.0576 127.163 57.672 115.189 56.3125 111.633C63.6851 97.8293 58.5609 88.2607 58.5609 88.2607C75.5543 86.7967 90.404 106.666 90.404 106.666L92.7047 116.496C92.9138 117.333 93.3321 118.065 93.9596 118.588C95.0576 120.522 96.3648 124.967 95.6851 128.418Z" fill="#FFF8F8"/>
<path d="M56.0513 111.79C57.0448 110.274 57.6722 108.496 58.0905 106.771C58.8749 103.163 59.1363 99.5026 59.1886 95.8424V94.483C59.0317 93.1235 58.5611 91.7117 58.0383 90.4568C57.3585 88.7836 59.816 87.7379 60.6003 89.4111C60.7049 89.6202 60.7049 89.9862 60.7049 90.1954C60.8618 97.3065 61.1755 106.457 56.6788 112.365C56.3651 112.679 55.7376 112.208 56.0513 111.79Z" fill="#0F172A"/>
<path d="M90.9797 106.562C91.764 107.033 92.0255 107.66 92.1301 108.287C92.4438 109.542 92.3392 110.902 92.6529 112.209C92.9144 113.464 93.6987 114.667 93.9078 115.974C94.1693 117.333 94.9536 120.209 95.2673 121.621C95.3719 121.934 95.1627 122.3 94.7967 122.353C94.5876 122.405 94.4307 122.353 94.2739 122.248C93.5941 121.673 93.2804 121.098 92.8621 120.366C92.1823 119.111 91.7118 117.961 91.2935 116.549C90.9274 115.294 91.0843 113.934 90.7706 112.627C90.5091 111.372 89.7771 110.17 89.5157 108.863C89.3588 108.235 89.3065 107.555 89.7771 106.771C90.0908 106.457 90.6137 106.353 90.9797 106.562Z" fill="#0F172A"/>
<path d="M94.7438 120.365C84.7569 119.842 76.6001 116.705 68.6523 102.535C75.3452 108.444 83.2406 110.692 91.5543 111.738L92.6523 116.548C92.8615 117.385 94.1164 119.842 94.7438 120.365Z" fill="#0F172A"/>
<path d="M94.3259 118.43C96.1036 121.776 97.1494 125.959 96.0514 129.672C95.2148 132.286 92.8095 134.221 90.1951 134.953C84.1298 136.574 77.1232 134.012 71.7376 131.136C65.0971 127.423 60.1821 121.201 57.0448 114.404C56.8357 113.881 57.5677 113.463 57.8814 113.985C58.9794 116.181 60.2343 118.325 61.6461 120.26C63.0579 122.247 64.6788 124.077 66.5089 125.698C71.8422 130.508 79.0579 133.489 86.2736 133.489C93.6984 133.28 96.5219 129.358 94.7965 122.142C94.535 120.992 94.1167 119.789 93.5415 118.796C93.2278 118.378 94.0121 117.907 94.3259 118.43Z" fill="#0F172A"/>
<path d="M114.561 55.6331C115.502 60.0253 115.973 63.5808 113.41 75.2932C110.901 86.9534 117.018 89.3586 102.535 108.025C96.6262 115.659 82.2993 113.515 70.6915 105.62C66.7699 102.953 65.0967 96.1037 62.1686 91.241C59.868 87.424 58.8222 91.3978 55.7895 88.1037C51.6588 83.607 46.6915 74.5612 49.149 58.5612C53.1229 32.6266 73.6719 29.5939 88.8876 32.4697C104.208 35.3978 112.051 44.0776 114.561 55.6331Z" fill="#FFF8F8"/>
<path d="M58.4037 92.7575C57.2011 90.7183 55.6324 88.9405 54.1684 87.0582C52.7566 85.1235 51.6063 82.9797 50.6651 80.7836C44.4429 65.5157 46.8481 44.0255 62.1161 35.032C68.4429 31.3719 76.0769 30.483 83.188 31.0581C98.4037 32.1562 112.364 39.1627 115.659 55.2673C117.436 62.3784 115.031 69.6987 113.672 76.6529C113.044 80.1039 113.567 83.6595 113.515 87.215C113.463 90.8229 112.469 94.4307 111.11 97.7771C110.273 100.078 108.809 102.117 107.293 103.999C104.783 107.032 102.273 110.117 99.0834 112.47C98.3514 112.993 97.0442 113.254 96.1553 113.359C93.6978 113.725 91.2926 113.829 88.8351 113.673C79.2142 113.254 68.9135 108.601 65.0442 99.2934C64.8874 98.9274 65.4102 98.666 65.6194 98.9797C70.639 106.927 79.8416 110.849 88.9919 111.372C91.8155 111.529 94.6913 111.476 97.4625 110.901C98.822 110.222 100.025 109.019 101.175 107.921C103.998 105.097 106.874 102.065 108.914 98.6137C111.371 93.9601 112.731 88.8882 112.312 83.6072C112.208 81.2542 112.155 78.7967 112.626 76.4438C113.044 74.0908 113.567 71.8425 113.881 69.4372C114.195 67.1366 114.351 64.7836 114.351 62.483C114.09 55.7379 111.894 48.7836 107.606 43.5549C98.1423 31.7902 75.7632 28.7052 63.1619 36.7575C55.2142 41.6725 51.5017 50.8751 50.2991 59.8163C48.469 70.5353 48.9919 81.0974 57.5148 88.8882L60.0246 91.5026C61.0181 92.6529 59.2403 94.0124 58.4037 92.7575Z" fill="#0F172A"/>
<path d="M64.5734 76.1298C64.5734 76.1298 62.9525 68.2866 55.3185 69.2278C48.7303 70.0644 46.4296 85.8553 61.3839 90.2474" fill="#FFF8F8"/>
<path d="M60.705 83.398C59.5024 82.7182 58.6658 81.5679 58.6135 80.1561C58.6658 79.1104 58.8227 77.9078 58.5612 76.862C58.4044 75.8686 57.3586 75.6071 56.5743 75.6594C55.7377 75.8163 55.2148 76.862 55.058 77.6986C55.058 77.7509 55.0057 77.9078 55.0057 77.9601C54.9534 78.2215 54.5351 78.2215 54.4305 77.9601C53.7508 75.9208 55.2671 73.6725 57.4632 73.9339C60.5482 74.1431 60.9665 77.3849 60.3913 79.8424C60.0776 80.8882 60.4959 81.8293 61.0711 82.7182L61.1756 82.8751C61.4371 83.1888 61.0188 83.6071 60.705 83.398Z" fill="#0F172A"/>
<path d="M102.535 70.5877C103.319 74.3001 104.783 77.7511 106.613 80.9929C108.234 84.9668 104.051 88.7315 100.339 88.5746C99.9203 88.5746 99.868 87.9995 100.234 87.8949C102.587 87.1629 104.731 85.5942 105.097 83.189C105.254 82.457 105.044 81.8295 104.678 81.2021C102.953 77.9602 101.907 74.2478 102.169 70.5877C102.169 70.3262 102.535 70.3262 102.535 70.5877Z" fill="#0F172A"/>
<path d="M64.3133 76.1827C63.1107 73.0978 60.4964 70.1697 56.9931 70.222C56.6794 70.1697 56.1565 70.2742 55.8428 70.2742C54.9539 70.3265 54.2218 70.6403 53.5421 71.2677C50.1957 74.6141 50.7709 80.5226 53.4898 84.235C54.431 85.5422 55.6336 86.6926 56.9931 87.6337C58.3526 88.5749 59.8689 89.3069 61.4898 89.9344C61.8558 90.039 61.699 90.6141 61.333 90.5618C57.8297 89.8298 54.4833 88.1043 52.1826 85.2285C48.6271 80.9409 47.895 73.7775 52.1303 69.5945C53.0715 68.7579 54.3787 68.1305 55.6859 68.1305C56.1042 68.1305 56.7316 68.0259 57.1499 68.1305C59.346 68.235 61.4375 69.3331 62.797 71.0586C63.9996 72.5226 64.6794 74.3004 64.8885 76.0782C64.8885 76.3919 64.4179 76.4965 64.3133 76.1827Z" fill="#0F172A"/>
<path d="M97.3589 93.5947C97.4112 94.4313 96.7837 95.8953 95.6334 96.9411C89.7249 93.3332 87.0582 95.2156 87.0582 95.2156C84.9667 92.026 85.4373 87.6862 90.5092 90.9803C94.0125 93.2809 96.2086 93.6469 97.3589 93.5947Z" fill="#0F172A"/>
<path d="M95.581 96.9937C94.3261 98.0917 92.4438 98.7714 89.8817 97.7257C88.6791 97.2551 87.7379 96.3139 87.0059 95.2682C87.0581 95.2682 89.6725 93.3858 95.581 96.9937Z" fill="#FFF8F8"/>
<path d="M98.3529 93.438C98.3529 93.438 96.1568 94.6406 90.5097 91.0328C83.7646 86.6929 85.1241 95.791 89.8823 97.7256C94.8496 99.7648 97.4117 95.3204 97.3594 93.6472" stroke="#0F172A" stroke-width="0.369231" stroke-miterlimit="10" stroke-linecap="round" stroke-linejoin="round"/>
<path d="M87.0586 95.2682C87.0586 95.2682 89.7253 93.3858 95.6338 96.9937" stroke="#0F172A" stroke-width="0.369231" stroke-miterlimit="10" stroke-linecap="round" stroke-linejoin="round"/>
<path d="M90.7182 65.0456C91.8685 65.2025 92.7574 63.9998 92.3391 62.8495C92.13 62.2221 91.764 61.6469 91.1888 61.2809C89.411 60.1829 82.7705 60.0783 79.2672 62.5881C76.13 64.8887 85.4895 64.3136 90.7182 65.0456Z" fill="#0F172A"/>
<path d="M105.202 65.6212C104.26 65.6212 103.685 64.4186 104.156 63.4251C104.417 62.9022 104.783 62.4316 105.306 62.1702C106.927 61.3859 111.267 61.8565 113.202 64.5231C114.927 66.8761 109.541 65.5689 105.202 65.6212Z" fill="#0F172A"/>
<path d="M88.784 71.7906C86.1174 70.6403 83.0847 70.954 80.3135 71.5815C79.9997 71.6861 79.7906 71.2678 80.052 71.0586C82.4572 69.0717 87.0063 68.8102 88.9409 71.5292C89.0978 71.6338 88.9932 71.8429 88.784 71.7906Z" fill="#0F172A"/>
<path d="M109.333 72.8891C108.078 72.0002 106.248 72.1571 104.784 72.3139C104.261 72.3662 103.738 72.4708 103.163 72.6277C103.006 72.6799 102.849 72.4185 102.954 72.3139L103.058 72.2094C104.366 70.8499 106.405 70.5361 108.183 71.2159C108.81 71.4773 109.437 71.8433 109.751 72.5754C109.908 72.8368 109.542 73.0982 109.333 72.8891Z" fill="#0F172A"/>
<path d="M113.205 85.0715C113.309 88.1564 113.466 90.1433 113.466 90.1433L119.375 88.5224C119.375 88.5224 117.597 78.2741 118.486 69.4375C120.211 52.7054 118.486 47.9995 118.486 47.9995C117.597 43.6597 114.721 39.7904 108.342 38.6401C106.407 37.4374 104.263 36.4963 101.911 35.712C93.4922 32.7316 74.9824 26.5093 60.7602 35.8688C46.5379 45.2283 46.0151 62.6401 44.0804 74.2479C42.1458 85.8558 29.4922 94.3264 29.4922 94.3264L32.4203 98.5094C33.9889 99.6597 38.2242 94.4832 38.904 94.3264C39.5837 94.1695 35.087 99.6074 35.087 99.6074C36.2373 104.261 41.1523 106.98 41.1523 106.98C41.1523 106.98 48.7863 102.065 47.2177 104.313C45.6491 106.562 42.7209 108.339 42.7209 108.339C42.7209 108.339 50.3549 115.085 53.4922 114.509C56.6295 113.934 61.1262 106.771 60.7602 108.339C60.4464 109.908 57.8844 115.66 57.8844 115.66L62.0151 118.013C75.0347 113.83 64.6817 97.4113 72.1066 87.3198C79.4791 77.2283 70.0674 71.8427 75.9759 68.4963C77.4922 67.6074 78.9563 66.6662 80.2634 65.6205L88.734 67.0845C88.734 67.0845 94.2242 66.9799 92.6556 55.9995C92.0804 51.9734 93.4399 47.6858 93.9628 46.2741C94.0151 46.2741 94.0151 46.2741 94.0674 46.2741C93.8582 47.6858 93.4922 51.8688 94.6948 57.2544C96.368 64.8361 91.1393 67.7643 91.1393 67.7643L96.4203 69.4375C101.806 66.7708 97.4661 58.2479 96.4203 51.4505C96.1066 49.2544 96.5249 47.895 97.2569 47.1107C100.917 48.2087 103.27 49.4636 103.479 48.3656C112.107 50.5093 112.211 61.8558 112.473 62.1695C112.368 64.261 112.107 67.8165 112.054 72.4179C112.054 74.5616 112.263 78.6924 112.107 81.0976C111.95 84.0257 111.688 86.7447 111.27 89.4636C110.486 93.6466 109.283 98.0388 107.558 100.758C104.107 106.143 101.388 110.692 96.4203 112.993C91.5053 115.241 85.9105 115.712 85.9105 115.712C85.9105 115.712 87.4791 116.705 91.1916 116.915C94.904 117.124 97.5706 115.66 100.29 115.241C103.009 114.771 109.231 116.496 109.231 116.496C109.911 115.294 109.44 110.849 110.12 111.738C110.799 112.627 110.695 116.496 110.695 116.496L116.29 117.49C117.492 114.666 117.649 109.647 117.649 109.647C117.649 108.81 117.597 107.973 117.544 107.032C116.656 98.1434 113.152 96.627 113.205 85.0715Z" fill="#0F172A"/>
<path d="M150.694 44.079C182.432 105.203 126.641 174.171 60.1314 157.334C30.2752 149.909 6.27518 124.027 1.30786 93.6476C-4.3392 63.4254 9.30786 30.9548 34.8242 13.8568C69.8046 -10.1955 118.275 -2.19553 143.321 32.2097C143.478 32.3666 143.426 32.628 143.216 32.7849C143.06 32.9417 142.798 32.8894 142.641 32.6803C139.19 28.2358 135.269 24.2097 130.981 20.6019C123.922 14.5888 115.661 9.8829 106.929 6.69336C62.4843 -9.41122 13.7 17.36 3.97452 63.8437C-7.00587 115.922 37.2817 163.87 90.0922 156.706C130.824 151.582 161.099 113.988 157.752 73.0986C157.02 63.2163 154.406 53.4385 150.066 44.445C149.961 44.2881 150.066 44.079 150.223 43.9744C150.38 43.8698 150.589 43.9221 150.694 44.079Z" fill="#0F172A"/>
</g>
</svg>
